mtllib lod3.mtl

g Tur_MissileCorvette
usemtl Tur_MissileCorvette

v 10.1459 7.186777 -17.01306
vt 0.99999 0
vn 1 0 0

v 10.1459 5.571145 -3.817188
vt 0.676675 0.025913
vn 1 0 0

v 10.1459 -7.177371 -17.01306
vt 0.99999 0.23039
vn 1 0 0

v -10.1459 7.186777 -17.01306
vt 0.99999 0
vn -1 0 0

v -10.1459 -7.177371 -17.01306
vt 0.99999 0.23039
vn -1 0 0

v -10.1459 5.571145 -3.817188
vt 0.676675 0.025913
vn -1 0 0

v -2.6775 0.108412 21.0607
vt 0.067118 0.113532
vn -0.921511 0.360422 0.144619

v -4.17375 -0.511875 13.0725
vt 0.262845 0.12348
vn -0.921511 0.360422 0.144619

v -3.932712 -4.2 23.8
vt 0 0.182635
vn -0.921511 0.360422 0.144619

v 2.6775 0.108412 21.0607
vt 0.067118 0.113532
vn 0.921511 0.360422 0.144619

v 3.932712 -4.2 23.8
vt 0 0.182635
vn 0.921511 0.360422 0.144619

v 4.17375 -0.511875 13.0725
vt 0.262845 0.12348
vn 0.921511 0.360422 0.144619

v -6.18975 -8.4 13.0725
vt 0.262845 0.249997
vn -0.96337 0.246212 0.106294

v -3.932712 -4.2 23.8
vt 0 0.182635
vn -0.96337 0.246212 0.106294

v -4.17375 -0.511875 13.0725
vt 0.262845 0.12348
vn -0.96337 0.246212 0.106294

v 6.18975 -8.4 13.0725
vt 0.262845 0.249997
vn 0.96337 0.246212 0.106294

v 4.17375 -0.511875 13.0725
vt 0.262845 0.12348
vn 0.96337 0.246212 0.106294

v 3.932712 -4.2 23.8
vt 0 0.182635
vn 0.96337 0.246212 0.106294

v 4.17375 5.394375 13.0725
vt 0.262845 0.028749
vn 0.972858 0 -0.231404

v 5.199902 3.6421 17.3866
vt 0.157141 0.056854
vn 0.972858 0 -0.231404

v 4.17375 -0.511875 13.0725
vt 0.262845 0.12348
vn 0.972858 0 -0.231404

v 4.17375 5.394375 13.0725
vt 0.262845 0.028749
vn 0.260593 0 0.965449

v 13.69107 -3.634313 10.50359
vt 0.325788 0.173562
vn 0.260593 0 0.965449

v 13.69107 3.634313 10.50359
vt 0.325788 0.056979
vn 0.260593 0 0.965449

v 4.17375 -0.511875 13.0725
vt 0.262845 0.12348
vn 0.883496 -0.424333 0.198435

v 5.199902 3.6421 17.3866
vt 0.157141 0.056854
vn 0.883496 -0.424333 0.198435

v 2.6775 0.108412 21.0607
vt 0.067118 0.113532
vn 0.883496 -0.424333 0.198435

v -2.6775 0.108412 21.0607
vt 0.067118 0.113532
vn -0.883496 -0.424333 0.198435

v -5.199902 3.6421 17.3866
vt 0.157141 0.056854
vn -0.883496 -0.424333 0.198435

v -4.17375 -0.511875 13.0725
vt 0.262845 0.12348
vn -0.883496 -0.424333 0.198435

v -10.1459 -7.177371 -17.01306
vt 0.99999 0.23039
vn -1 0 0

v -10.1459 -5.6 -3.817188
vt 0.676675 0.20509
vn -1 0 0

v -10.1459 5.571145 -3.817188
vt 0.676675 0.025913
vn -1 0 0

v 10.1459 -7.177371 -17.01306
vt 0.99999 0.23039
vn 1 0 0

v 10.1459 5.571145 -3.817188
vt 0.676675 0.025913
vn 1 0 0

v 10.1459 -5.6 -3.817188
vt 0.676675 0.20509
vn 1 0 0

v 13.69107 -3.634313 10.50359
vt 0.325788 0.173562
vn 0.200406 -0.066853 0.977429

v 4.17375 5.394375 13.0725
vt 0.262845 0.028749
vn 0.200406 -0.066853 0.977429

v 0.041738 -6.992125 13.0725
vt 0.262845 0.227419
vn 0.200406 -0.066853 0.977429

v 10.1459 5.571145 -3.817188
vt 0.676675 0.025913
vn 0.970698 0 -0.240301

v 13.69107 3.634313 10.50359
vt 0.325788 0.056979
vn 0.970698 0 -0.240301

v 13.69107 -3.634313 10.50359
vt 0.325788 0.173562
vn 0.970698 0 -0.240301

v -10.1459 -5.6 -3.817188
vt 0.676675 0.391184
vn -0.249399 -0.965807 0.070828

v 0.041738 -6.992125 13.0725
vt 0.262845 0.437691
vn -0.249399 -0.965807 0.070828

v -13.69107 -3.634313 10.50359
vt 0.325788 0.375
vn -0.249399 -0.965807 0.070828

v -10.1459 -5.6 -3.817188
vt 0.676675 0.391184
vn -0.315477 -0.942225 0.112629

v -10.1459 -7.177371 -17.01306
vt 0.99999 0.391184
vn -0.315477 -0.942225 0.112629

v 0.041738 -6.992125 13.0725
vt 0.262845 0.437691
vn -0.315477 -0.942225 0.112629

v 0.041738 -6.992125 13.0725
vt 0.262845 0.437691
vn 0.250771 -0.96548 0.070443

v 10.1459 -5.6 -3.817188
vt 0.676675 0.483816
vn 0.250771 -0.96548 0.070443

v 13.69107 -3.634313 10.50359
vt 0.325788 0.499999
vn 0.250771 -0.96548 0.070443

v 0.041738 -6.992125 13.0725
vt 0.262845 0.437691
vn 0.317821 -0.941448 0.112536

v 10.1459 -7.177371 -17.01306
vt 0.99999 0.483816
vn 0.317821 -0.941448 0.112536

v 10.1459 -5.6 -3.817188
vt 0.676675 0.483816
vn 0.317821 -0.941448 0.112536

v 10.1459 5.571145 -3.817188
vt 0.676675 0.025913
vn 0.970698 0 -0.240301

v 13.69107 -3.634313 10.50359
vt 0.325788 0.173562
vn 0.970698 0 -0.240301

v 10.1459 -5.6 -3.817188
vt 0.676675 0.20509
vn 0.970698 0 -0.240301

v -13.69107 -3.634313 10.50359
vt 0.325788 0.173562
vn -0.260593 0 0.965449

v -4.17375 5.394375 13.0725
vt 0.262845 0.028749
vn -0.260593 0 0.965449

v -13.69107 3.634313 10.50359
vt 0.325788 0.056979
vn -0.260593 0 0.965449

v -4.17375 5.394375 13.0725
vt 0.262845 0.028749
vn -0.199462 -0.067883 0.977551

v -13.69107 -3.634313 10.50359
vt 0.325788 0.173562
vn -0.199462 -0.067883 0.977551

v 0.041738 -6.992125 13.0725
vt 0.262845 0.227419
vn -0.199462 -0.067883 0.977551

v -13.69107 -3.634313 10.50359
vt 0.325788 0.173562
vn -0.970698 0 -0.240301

v -10.1459 5.571145 -3.817188
vt 0.676675 0.025913
vn -0.970698 0 -0.240301

v -10.1459 -5.6 -3.817188
vt 0.676675 0.20509
vn -0.970698 0 -0.240301

v 0.041738 -6.992125 13.0725
vt 0.262845 0.437691
vn 0 -0.999981 0.006157

v -10.1459 -7.177371 -17.01306
vt 0.99999 0.391184
vn 0 -0.999981 0.006157

v 10.1459 -7.177371 -17.01306
vt 0.99999 0.483816
vn 0 -0.999981 0.006157

v -4.17375 -0.511875 13.0725
vt 0.262845 0.12348
vn -0.972858 0 -0.231404

v -5.199902 3.6421 17.3866
vt 0.157141 0.056854
vn -0.972858 0 -0.231404

v -4.17375 5.394375 13.0725
vt 0.262845 0.028749
vn -0.972858 0 -0.231404

v -10.1459 5.571145 -3.817188
vt 0.676675 0.025913
vn -0.970698 0 -0.240301

v -13.69107 -3.634313 10.50359
vt 0.325788 0.173562
vn -0.970698 0 -0.240301

v -13.69107 3.634313 10.50359
vt 0.325788 0.056979
vn -0.970698 0 -0.240301

v -3.932712 -4.2 23.8
vt 0 0.419547
vn 0 -0.931175 0.364571

v 6.18975 -8.4 13.0725
vt 0.262845 0.465756
vn 0 -0.931175 0.364571

v 3.932712 -4.2 23.8
vt 0 0.455453
vn 0 -0.931175 0.364571

v 6.18975 -8.4 13.0725
vt 0.262845 0.465756
vn 0 -0.931175 0.364571

v -3.932712 -4.2 23.8
vt 0 0.419547
vn 0 -0.931175 0.364571

v -6.18975 -8.4 13.0725
vt 0.262845 0.409244
vn 0 -0.931175 0.364571

# 81 vertice(s).

f 1/1/1 2/2/2 3/3/3
f 4/4/4 5/5/5 6/6/6
f 7/7/7 8/8/8 9/9/9
f 10/10/10 11/11/11 12/12/12
f 13/13/13 14/14/14 15/15/15
f 16/16/16 17/17/17 18/18/18
f 19/19/19 20/20/20 21/21/21
f 22/22/22 23/23/23 24/24/24
f 25/25/25 26/26/26 27/27/27
f 28/28/28 29/29/29 30/30/30
f 31/31/31 32/32/32 33/33/33
f 34/34/34 35/35/35 36/36/36
f 37/37/37 38/38/38 39/39/39
f 40/40/40 41/41/41 42/42/42
f 43/43/43 44/44/44 45/45/45
f 46/46/46 47/47/47 48/48/48
f 49/49/49 50/50/50 51/51/51
f 52/52/52 53/53/53 54/54/54
f 55/55/55 56/56/56 57/57/57
f 58/58/58 59/59/59 60/60/60
f 61/61/61 62/62/62 63/63/63
f 64/64/64 65/65/65 66/66/66
f 67/67/67 68/68/68 69/69/69
f 70/70/70 71/71/71 72/72/72
f 73/73/73 74/74/74 75/75/75
f 76/76/76 77/77/77 78/78/78
f 79/79/79 80/80/80 81/81/81
# 81 indices; 27 primitives.

# 1 primitive groups.

g Tur_MissileCorvette_Engine
usemtl Tur_MissileCorvette_Engine

v -10.1459 7.186777 -17.01306
vt 0.99999 0
vn 0 0 -1

v 10.1459 -7.177371 -17.01306
vt 0 0.499995
vn 0 0 -1

v -10.1459 -7.177371 -17.01306
vt 0.99999 0.499995
vn 0 0 -1

v 2.6775 0.108412 21.0607
vt 0.283715 0.5
vn 0 0.536538 0.843876

v -3.932712 -4.2 23.8
vt 0.817679 0.626593
vn 0 0.536538 0.843876

v 3.932712 -4.2 23.8
vt 0.182321 0.626593
vn 0 0.536538 0.843876

v -3.932712 -4.2 23.8
vt 0.817679 0.626593
vn 0 0.536538 0.843876

v 2.6775 0.108412 21.0607
vt 0.283715 0.5
vn 0 0.536538 0.843876

v -2.6775 0.108412 21.0607
vt 0.716285 0.5
vn 0 0.536538 0.843876

v -4.17375 -0.511875 13.0725
vt 0.83715 0.518226
vn 0 0 -1

v 6.18975 -8.4 13.0725
vt 0 0.749997
vn 0 0 -1

v -6.18975 -8.4 13.0725
vt 0.99999 0.749997
vn 0 0 -1

v 6.18975 -8.4 13.0725
vt 0 0.749997
vn 0 0 -1

v -4.17375 -0.511875 13.0725
vt 0.83715 0.518226
vn 0 0 -1

v 4.17375 -0.511875 13.0725
vt 0.16285 0.518226
vn 0 0 -1

v 10.1459 -7.177371 -17.01306
vt 0 0.499995
vn 0 0 -1

v -10.1459 7.186777 -17.01306
vt 0.99999 0
vn 0 0 -1

v 10.1459 7.186777 -17.01306
vt 0 0
vn 0 0 -1

# 18 vertice(s).

f 82/82/82 83/83/83 84/84/84
f 85/85/85 86/86/86 87/87/87
f 88/88/88 89/89/89 90/90/90
f 91/91/91 92/92/92 93/93/93
f 94/94/94 95/95/95 96/96/96
f 97/97/97 98/98/98 99/99/99
# 18 indices; 6 primitives.

# 1 primitive groups.

g Tur_MissileCorvetteLauncher
usemtl Tur_MissileCorvetteLauncher

v 4.17375 5.394375 13.0725
vt 0.209809 0.652426
vn 0 0.926491 0.376317

v -5.199902 3.6421 17.3866
vt 0.0965 0.310099
vn 0 0.926491 0.376317

v 5.199902 3.6421 17.3866
vt 0.0965 0.689901
vn 0 0.926491 0.376317

v 0 8.75 7.676239
vt 0.35154 0.5
vn -0.342027 0.938738 0.04229

v -10.1459 5.571145 -3.817188
vt 0.653413 0.12947
vn -0.342027 0.938738 0.04229

v -13.69107 3.634313 10.50359
vt 0.277281 0
vn -0.342027 0.938738 0.04229

v 0 8.75 7.676239
vt 0.35154 0.5
vn -0.26187 0.897274 0.35542

v -13.69107 3.634313 10.50359
vt 0.277281 0
vn -0.26187 0.897274 0.35542

v -4.17375 5.394375 13.0725
vt 0.209809 0.347574
vn -0.26187 0.897274 0.35542

v 0 8.75 7.676239
vt 0.35154 0.5
vn 0.26187 0.897274 0.35542

v 4.17375 5.394375 13.0725
vt 0.209809 0.652426
vn 0.26187 0.897274 0.35542

v 13.69107 3.634313 10.50359
vt 0.277281 0.99999
vn 0.26187 0.897274 0.35542

v 0 8.75 7.676239
vt 0.35154 0.5
vn 0.342027 0.938738 0.04229

v 13.69107 3.634313 10.50359
vt 0.277281 0.99999
vn 0.342027 0.938738 0.04229

v 10.1459 5.571145 -3.817188
vt 0.653413 0.87053
vn 0.342027 0.938738 0.04229

v 10.1459 7.186777 -17.01306
vt 0.99999 0.87053
vn 0.344947 0.931665 0.114068

v 0 9.45 -4.816528
vt 0.67966 0.5
vn 0.344947 0.931665 0.114068

v 10.1459 5.571145 -3.817188
vt 0.653413 0.87053
vn 0.344947 0.931665 0.114068

v 0 9.45 -4.816528
vt 0.67966 0.5
vn -0.344947 0.931665 0.114068

v -10.1459 7.186777 -17.01306
vt 0.99999 0.12947
vn -0.344947 0.931665 0.114068

v -10.1459 5.571145 -3.817188
vt 0.653413 0.12947
vn -0.344947 0.931665 0.114068

v 0 9.45 -4.816528
vt 0.67966 0.5
vn 0 0.983216 -0.182448

v 10.1459 7.186777 -17.01306
vt 0.99999 0.87053
vn 0 0.983216 -0.182448

v -10.1459 7.186777 -17.01306
vt 0.99999 0.12947
vn 0 0.983216 -0.182448

v -2.6775 0.108412 21.0607
vt 0 0.402217
vn 0 0.720745 0.6932

v 5.199902 3.6421 17.3866
vt 0.0965 0.689901
vn 0 0.720745 0.6932

v -5.199902 3.6421 17.3866
vt 0.0965 0.310099
vn 0 0.720745 0.6932

v 4.17375 5.394375 13.0725
vt 0.209809 0.652426
vn 0 0.849201 0.528069

v 0 8.75 7.676239
vt 0.35154 0.5
vn 0 0.849201 0.528069

v -4.17375 5.394375 13.0725
vt 0.209809 0.347574
vn 0 0.849201 0.528069

v 10.1459 5.571145 -3.817188
vt 0.653413 0.87053
vn 0.352107 0.934494 0.052362

v 0 9.45 -4.816528
vt 0.67966 0.5
vn 0.352107 0.934494 0.052362

v 0 8.75 7.676239
vt 0.35154 0.5
vn 0.352107 0.934494 0.052362

v -10.1459 5.571145 -3.817188
vt 0.653413 0.12947
vn -0.352107 0.934494 0.052362

v 0 8.75 7.676239
vt 0.35154 0.5
vn -0.352107 0.934494 0.052362

v 0 9.45 -4.816528
vt 0.67966 0.5
vn -0.352107 0.934494 0.052362

v 5.199902 3.6421 17.3866
vt 0.0965 0.689901
vn 0 0.720745 0.6932

v -2.6775 0.108412 21.0607
vt 0 0.402217
vn 0 0.720745 0.6932

v 2.6775 0.108412 21.0607
vt 0 0.597783
vn 0 0.720745 0.6932

v -5.199902 3.6421 17.3866
vt 0.0965 0.310099
vn 0 0.926491 0.376317

v 4.17375 5.394375 13.0725
vt 0.209809 0.652426
vn 0 0.926491 0.376317

v -4.17375 5.394375 13.0725
vt 0.209809 0.347574
vn 0 0.926491 0.376317

# 42 vertice(s).

f 100/100/100 101/101/101 102/102/102
f 103/103/103 104/104/104 105/105/105
f 106/106/106 107/107/107 108/108/108
f 109/109/109 110/110/110 111/111/111
f 112/112/112 113/113/113 114/114/114
f 115/115/115 116/116/116 117/117/117
f 118/118/118 119/119/119 120/120/120
f 121/121/121 122/122/122 123/123/123
f 124/124/124 125/125/125 126/126/126
f 127/127/127 128/128/128 129/129/129
f 130/130/130 131/131/131 132/132/132
f 133/133/133 134/134/134 135/135/135
f 136/136/136 137/137/137 138/138/138
f 139/139/139 140/140/140 141/141/141
# 42 indices; 14 primitives.

# 1 primitive groups.

# 3 parts.

