mtllib lod0.mtl

g SWKcap
usemtl SWKcap

v -15.64309 -27.0946 86.39999
vt 0.310681 0.852334
vn 0 0 0.9

v -15.64307 27.09461 86.39999
vt 0.310681 0.144616
vn 0 0 0.9

v -31.28616 1E-05 86.39999
vt 0.122563 0.534125
vn 0 0 0.9

v -15.64309 -27.0946 86.39999
vt 0.310681 0.852334
vn 0 0 0.9

v 15.64309 27.0946 86.39999
vt 0.686919 0.144616
vn 0 0 0.9

v -15.64307 27.09461 86.39999
vt 0.310681 0.144616
vn 0 0 0.9

v 15.64309 27.0946 86.39999
vt 0.686919 0.144616
vn 0 0 0.9

v 15.64307 -27.09461 86.39999
vt 0.686919 0.852334
vn 0 0 0.9

v 31.28616 -1E-05 86.39999
vt 0.875038 0.526995
vn 0 0 0.9

v 15.64309 27.0946 86.39999
vt 0.686919 0.144616
vn 0 0 0.9

v -15.64309 -27.0946 86.39999
vt 0.310681 0.852334
vn 0 0 0.9

v 15.64307 -27.09461 86.39999
vt 0.686919 0.852334
vn 0 0 0.9

v -15.64307 27.09461 -86.39999
vt 0.310681 0.144616
vn 0 0 -0.9

v 15.64307 -27.09461 -86.39999
vt 0.686919 0.852334
vn 0 0 -0.9

v -15.64309 -27.0946 -86.39999
vt 0.310681 0.852334
vn 0 0 -0.9

v 15.64307 -27.09461 -86.39999
vt 0.686919 0.852334
vn 0 0 -0.9

v 15.64309 27.0946 -86.39999
vt 0.686919 0.144616
vn 0 0 -0.9

v 31.28616 -1E-05 -86.39999
vt 0.875038 0.526995
vn 0 0 -0.9

v 15.64307 -27.09461 -86.39999
vt 0.686919 0.852334
vn 0 0 -0.9

v -15.64307 27.09461 -86.39999
vt 0.310681 0.144616
vn 0 0 -0.9

v 15.64309 27.0946 -86.39999
vt 0.686919 0.144616
vn 0 0 -0.9

v -15.64307 27.09461 -86.39999
vt 0.310681 0.144616
vn 0 0 -0.9

v -15.64309 -27.0946 -86.39999
vt 0.310681 0.852334
vn 0 0 -0.9

v -31.28616 1E-05 -86.39999
vt 0.122562 0.534125
vn 0 0 -0.9

# 24 vertice(s).

f 1/1/1 2/2/2 3/3/3
f 4/4/4 5/5/5 6/6/6
f 7/7/7 8/8/8 9/9/9
f 10/10/10 11/11/11 12/12/12
f 13/13/13 14/14/14 15/15/15
f 16/16/16 17/17/17 18/18/18
f 19/19/19 20/20/20 21/21/21
f 22/22/22 23/23/23 24/24/24
# 24 indices; 8 primitives.

# 1 primitive groups.

g SMO_mothership_ribs
usemtl SMO_mothership_ribs

v -15.64307 27.09461 86.39999
vt 0.259951 0.058973
vn 0 0.804984 0.402493

v 19.80001 34.2946 71.99999
vt 0.745049 0.938009
vn 0 0.804984 0.402493

v -19.79999 34.29461 71.99999
vt 0.750049 0.058426
vn 0 0.804984 0.402493

v 15.64307 -27.09461 86.39999
vt 0.745049 0.062538
vn 0 -0.804984 0.402493

v -19.80001 -34.2946 71.99999
vt 0.254951 0.941574
vn 0 -0.804984 0.402493

v 19.79999 -34.29461 71.99999
vt 0.259951 0.061992
vn 0 -0.804984 0.402493

v 19.80001 34.2946 71.99999
vt 0.745049 0.938009
vn 0 0.804984 0.402493

v -15.64307 27.09461 86.39999
vt 0.259951 0.058973
vn 0 0.804984 0.402493

v 15.64309 27.0946 86.39999
vt 0.259951 0.937462
vn 0 0.804984 0.402493

v -19.80001 -34.2946 71.99999
vt 0.254951 0.941574
vn 0 -0.804984 0.402493

v 15.64307 -27.09461 86.39999
vt 0.745049 0.062538
vn 0 -0.804984 0.402493

v -15.64309 -27.0946 86.39999
vt 0.74505 0.941027
vn 0 -0.804984 0.402493

v -15.64309 -27.0946 86.39999
vt 0.749442 0.064022
vn -0.697137 -0.402492 0.402492

v -39.59999 1.2E-05 71.99999
vt 0.259951 0.934938
vn -0.697137 -0.402492 0.402492

v -19.80001 -34.2946 71.99999
vt 0.257475 0.064568
vn -0.697137 -0.402492 0.402492

v 15.64309 27.0946 86.39999
vt 0.745558 0.066103
vn 0.697137 0.402492 0.402492

v 39.59999 -1.2E-05 71.99999
vt 0.255049 0.931372
vn 0.697137 0.402492 0.402492

v 19.80001 34.2946 71.99999
vt 0.257525 0.065557
vn 0.697137 0.402492 0.402492

v -39.59999 1.2E-05 71.99999
vt 0.259951 0.934938
vn -0.697137 -0.402492 0.402492

v -15.64309 -27.0946 86.39999
vt 0.749442 0.064022
vn -0.697137 -0.402492 0.402492

v -31.28616 1E-05 86.39999
vt 0.753884 0.934938
vn -0.697137 -0.402492 0.402492

v 39.59999 -1.2E-05 71.99999
vt 0.255049 0.931372
vn 0.697137 0.402492 0.402492

v 15.64309 27.0946 86.39999
vt 0.745558 0.066103
vn 0.697137 0.402492 0.402492

v 31.28616 -1E-05 86.39999
vt 0.751116 0.938503
vn 0.697137 0.402492 0.402492

v -39.59999 1.2E-05 71.99999
vt 0.745049 0.057438
vn -0.697137 0.402493 0.402492

v -15.64307 27.09461 86.39999
vt 0.254951 0.93296
vn -0.697137 0.402493 0.402492

v -19.79999 34.29461 71.99999
vt 0.740049 0.931867
vn -0.697137 0.402493 0.402492

v 39.59999 -1.2E-05 71.99999
vt 0.745049 0.053873
vn 0.697137 -0.402493 0.402492

v 15.64307 -27.09461 86.39999
vt 0.259951 0.939492
vn 0.697137 -0.402493 0.402492

v 19.79999 -34.29461 71.99999
vt 0.740049 0.93702
vn 0.697137 -0.402493 0.402492

v 39.59999 -1.2E-05 71.99999
vt 0.745049 0.053873
vn 0.697137 -0.402493 0.402492

v 31.28616 -1E-05 86.39999
vt 0.249951 0.053873
vn 0.697137 -0.402493 0.402492

v 15.64307 -27.09461 86.39999
vt 0.259951 0.939492
vn 0.697137 -0.402493 0.402492

v -39.59999 1.2E-05 71.99999
vt 0.745049 0.057438
vn -0.697137 0.402493 0.402492

v -31.28616 1E-05 86.39999
vt 0.249951 0.057438
vn -0.697137 0.402493 0.402492

v -15.64307 27.09461 86.39999
vt 0.254951 0.93296
vn -0.697137 0.402493 0.402492

v 15.64309 27.0946 -86.39999
vt 0.742525 0.923223
vn 0 0.804984 -0.402493

v -19.79999 34.29461 -71.99999
vt 0.249975 0.074783
vn 0 0.804984 -0.402493

v 19.80001 34.2946 -71.99999
vt 0.249975 0.923692
vn 0 0.804984 -0.402493

v -19.79999 34.29461 -71.99999
vt 0.249975 0.074783
vn 0 0.804984 -0.402493

v 15.64309 27.0946 -86.39999
vt 0.742525 0.923223
vn 0 0.804984 -0.402493

v -15.64307 27.09461 -86.39999
vt 0.740025 0.075252
vn 0 0.804984 -0.402493

v -15.64309 -27.0946 -86.39999
vt 0.259975 0.924748
vn 0 -0.804984 -0.402493

v 19.79999 -34.29461 -71.99999
vt 0.750025 0.076309
vn 0 -0.804984 -0.402493

v -19.80001 -34.2946 -71.99999
vt 0.750025 0.925217
vn 0 -0.804984 -0.402493

v 19.79999 -34.29461 -71.99999
vt 0.750025 0.076309
vn 0 -0.804984 -0.402493

v -15.64309 -27.0946 -86.39999
vt 0.259975 0.924748
vn 0 -0.804984 -0.402493

v 15.64307 -27.09461 -86.39999
vt 0.257475 0.076777
vn 0 -0.804984 -0.402493

v -39.59999 1.2E-05 -71.99999
vt 0.74005 0.924242
vn -0.697137 -0.402492 -0.402492

v -15.64309 -27.0946 -86.39999
vt 0.250558 0.073233
vn -0.697137 -0.402492 -0.402492

v -19.80001 -34.2946 -71.99999
vt 0.742525 0.072687
vn -0.697137 -0.402492 -0.402492

v 39.59999 -1.2E-05 -71.99999
vt 0.740049 0.924242
vn 0.697137 0.402492 -0.402492

v 15.64309 27.0946 -86.39999
vt 0.255558 0.076798
vn 0.697137 0.402492 -0.402492

v 19.80001 34.2946 -71.99999
vt 0.737525 0.076252
vn 0.697137 0.402492 -0.402492

v 39.59999 -1.2E-05 -71.99999
vt 0.740049 0.924242
vn 0.697137 0.402492 -0.402492

v 31.28616 -1E-05 -86.39999
vt 0.256116 0.924242
vn 0.697137 0.402492 -0.402492

v 15.64309 27.0946 -86.39999
vt 0.255558 0.076798
vn 0.697137 0.402492 -0.402492

v -39.59999 1.2E-05 -71.99999
vt 0.74005 0.924242
vn -0.697137 -0.402492 -0.402492

v -31.28616 1E-05 -86.39999
vt 0.256116 0.924242
vn -0.697137 -0.402492 -0.402492

v -15.64309 -27.0946 -86.39999
vt 0.250558 0.073233
vn -0.697137 -0.402492 -0.402492

v -15.64307 27.09461 -86.39999
vt 0.740049 0.917633
vn -0.697137 0.402493 -0.402492

v -39.59999 1.2E-05 -71.99999
vt 0.254951 0.079817
vn -0.697137 0.402493 -0.402492

v -19.79999 34.29461 -71.99999
vt 0.259951 0.915577
vn -0.697137 0.402493 -0.402492

v 15.64307 -27.09461 -86.39999
vt 0.740049 0.082367
vn 0.697137 -0.402493 -0.402492

v 39.59999 -1.2E-05 -71.99999
vt 0.259951 0.920183
vn 0.697137 -0.402493 -0.402492

v 19.79999 -34.29461 -71.99999
vt 0.254951 0.080858
vn 0.697137 -0.402493 -0.402492

v -39.59999 1.2E-05 -71.99999
vt 0.254951 0.079817
vn -0.697137 0.402493 -0.402492

v -15.64307 27.09461 -86.39999
vt 0.740049 0.917633
vn -0.697137 0.402493 -0.402492

v -31.28616 1E-05 -86.39999
vt 0.740049 0.080363
vn -0.697137 0.402493 -0.402492

v 39.59999 -1.2E-05 -71.99999
vt 0.259951 0.920183
vn 0.697137 -0.402493 -0.402492

v 15.64307 -27.09461 -86.39999
vt 0.740049 0.082367
vn 0.697137 -0.402493 -0.402492

v 31.28616 -1E-05 -86.39999
vt 0.740049 0.916072
vn 0.697137 -0.402493 -0.402492

# 72 vertice(s).

f 25/25/25 26/26/26 27/27/27
f 28/28/28 29/29/29 30/30/30
f 31/31/31 32/32/32 33/33/33
f 34/34/34 35/35/35 36/36/36
f 37/37/37 38/38/38 39/39/39
f 40/40/40 41/41/41 42/42/42
f 43/43/43 44/44/44 45/45/45
f 46/46/46 47/47/47 48/48/48
f 49/49/49 50/50/50 51/51/51
f 52/52/52 53/53/53 54/54/54
f 55/55/55 56/56/56 57/57/57
f 58/58/58 59/59/59 60/60/60
f 61/61/61 62/62/62 63/63/63
f 64/64/64 65/65/65 66/66/66
f 67/67/67 68/68/68 69/69/69
f 70/70/70 71/71/71 72/72/72
f 73/73/73 74/74/74 75/75/75
f 76/76/76 77/77/77 78/78/78
f 79/79/79 80/80/80 81/81/81
f 82/82/82 83/83/83 84/84/84
f 85/85/85 86/86/86 87/87/87
f 88/88/88 89/89/89 90/90/90
f 91/91/91 92/92/92 93/93/93
f 94/94/94 95/95/95 96/96/96
# 72 indices; 24 primitives.

# 1 primitive groups.

g SMO_dock_sides_2
usemtl SMO_dock_sides_2

v -19.79999 34.29461 71.99999
vt 0.966014 0.8102
vn 0 0.9 0

v 19.80001 34.2946 -71.99999
vt 1.58252 1.22121
vn 0 0.9 0

v -19.79999 34.29461 -71.99999
vt 1.58619 0.811382
vn 0 0.9 0

v 19.80001 34.2946 -71.99999
vt 1.58252 1.22121
vn 0 0.9 0

v -19.79999 34.29461 71.99999
vt 0.966014 0.8102
vn 0 0.9 0

v 19.80001 34.2946 71.99999
vt 0.962346 1.220028
vn 0 0.9 0

v -19.80001 -34.2946 71.99999
vt 0.96991 1.222267
vn -0.779423 -0.45 0

v -39.59999 1.2E-05 -71.99999
vt 1.58242 0.813135
vn -0.779423 -0.45 0

v -19.80001 -34.2946 -71.99999
vt 1.58044 1.220412
vn -0.779423 -0.45 0

v -39.59999 1.2E-05 -71.99999
vt 1.58242 0.813135
vn -0.779423 -0.45 0

v -19.80001 -34.2946 71.99999
vt 0.96991 1.222267
vn -0.779423 -0.45 0

v -39.59999 1.2E-05 71.99999
vt 0.971886 0.811425
vn -0.779423 -0.45 0

v 39.59999 -1.2E-05 71.99999
vt 0.976886 0.80868
vn 0.779423 -0.45 0

v 19.79999 -34.29461 -71.99999
vt 1.57747 1.221485
vn 0.779423 -0.45 0

v 39.59999 -1.2E-05 -71.99999
vt 1.57369 0.810055
vn 0.779423 -0.45 0

v 19.79999 -34.29461 -71.99999
vt 1.57747 1.221485
vn 0.779423 -0.45 0

v 39.59999 -1.2E-05 71.99999
vt 0.976886 0.80868
vn 0.779423 -0.45 0

v 19.79999 -34.29461 71.99999
vt 0.977164 1.220111
vn 0.779423 -0.45 0

# 18 vertice(s).

f 97/97/97 98/98/98 99/99/99
f 100/100/100 101/101/101 102/102/102
f 103/103/103 104/104/104 105/105/105
f 106/106/106 107/107/107 108/108/108
f 109/109/109 110/110/110 111/111/111
f 112/112/112 113/113/113 114/114/114
# 18 indices; 6 primitives.

# 1 primitive groups.

g SMOsuprt
usemtl SMOsuprt

v 19.79999 -34.29461 71.99999
vt 0.00495 0.995049
vn 0 -0.9 0

v -19.80001 -34.2946 -71.99999
vt 0.995049 0.00495
vn 0 -0.9 0

v 19.79999 -34.29461 -71.99999
vt 0.995049 0.995049
vn 0 -0.9 0

v -19.80001 -34.2946 -71.99999
vt 0.995049 0.00495
vn 0 -0.9 0

v 19.79999 -34.29461 71.99999
vt 0.00495 0.995049
vn 0 -0.9 0

v -19.80001 -34.2946 71.99999
vt 0.00495 0.00495
vn 0 -0.9 0

v 19.80001 34.2946 71.99999
vt 0.00495 0.00495
vn 0.779423 0.45 0

v 39.59999 -1.2E-05 -71.99999
vt 0.995049 0.99505
vn 0.779423 0.45 0

v 19.80001 34.2946 -71.99999
vt 0.995049 0.00495
vn 0.779423 0.45 0

v 39.59999 -1.2E-05 -71.99999
vt 0.995049 0.99505
vn 0.779423 0.45 0

v 19.80001 34.2946 71.99999
vt 0.00495 0.00495
vn 0.779423 0.45 0

v 39.59999 -1.2E-05 71.99999
vt 0.00495 0.99505
vn 0.779423 0.45 0

v -39.59999 1.2E-05 71.99999
vt 0.00495 0.004951
vn -0.779423 0.45 0

v -19.79999 34.29461 -71.99999
vt 0.995049 0.995049
vn -0.779423 0.45 0

v -39.59999 1.2E-05 -71.99999
vt 0.995049 0.004951
vn -0.779423 0.45 0

v -19.79999 34.29461 -71.99999
vt 0.995049 0.995049
vn -0.779423 0.45 0

v -39.59999 1.2E-05 71.99999
vt 0.00495 0.004951
vn -0.779423 0.45 0

v -19.79999 34.29461 71.99999
vt 0.00495 0.995049
vn -0.779423 0.45 0

# 18 vertice(s).

f 115/115/115 116/116/116 117/117/117
f 118/118/118 119/119/119 120/120/120
f 121/121/121 122/122/122 123/123/123
f 124/124/124 125/125/125 126/126/126
f 127/127/127 128/128/128 129/129/129
f 130/130/130 131/131/131 132/132/132
# 18 indices; 6 primitives.

# 1 primitive groups.

# 4 parts.

