mtllib multiguncorvettefrontgun0.mtl

g Tai_MultiGunCorvette
usemtl Tai_MultiGunCorvette

v -0.020268 -1.119961 1.332066
vt -0.281835 0.767728
vn 0.149887 -0.983784 -0.098506

v -0.567326 -1.059401 1.330157
vt -0.268621 0.767728
vn -0.361115 -0.927106 -0.100348

v -0.415191 -0.684964 -0.160044
vt -0.268621 0.801903
vn -0.349654 -0.899577 -0.26173

v -0.415191 -0.684964 -0.160044
vt -0.268621 0.801903
vn -0.349654 -0.899577 -0.26173

v -0.075475 -0.722571 -0.158858
vt -0.281835 0.801903
vn 0.146005 -0.954552 -0.259832

v -0.020268 -1.119961 1.332066
vt -0.281835 0.767728
vn 0.149887 -0.983784 -0.098506

v -0.020268 -1.119961 1.332066
vt -0.281835 0.767728
vn 0.149887 -0.983784 -0.098506

v -0.098446 -0.749276 7.592421
vt -0.281835 0.610514
vn 0.135732 -0.902316 0.409149

v -0.452095 -0.710127 7.591188
vt -0.268621 0.610514
vn -0.332899 -0.850349 0.407535

v -0.452095 -0.710127 7.591188
vt -0.268621 0.610514
vn -0.332899 -0.850349 0.407535

v -0.567326 -1.059401 1.330157
vt -0.268621 0.767728
vn -0.361115 -0.927106 -0.100348

v -0.020268 -1.119961 1.332066
vt -0.281835 0.767728
vn 0.149887 -0.983784 -0.098506

v 0.440478 -0.311073 -0.157059
vt -0.308222 0.801903
vn 0.899586 -0.352602 -0.257713

v 0.810593 -0.457307 1.334962
vt -0.308222 0.767728
vn 0.926716 -0.363298 -0.095978

v 0.484085 -0.899578 1.333824
vt -0.295047 0.767728
vn 0.620966 -0.777822 -0.096923

v 0.484085 -0.899578 1.333824
vt -0.295047 0.767728
vn 0.620966 -0.777822 -0.096923

v 0.237721 -0.585716 -0.157765
vt -0.295047 0.801903
vn 0.602943 -0.754775 -0.258408

v 0.440478 -0.311073 -0.157059
vt -0.308222 0.801903
vn 0.899586 -0.352602 -0.257713

v 0.237721 -0.585716 -0.157765
vt -0.295047 0.801903
vn 0.602943 -0.754775 -0.258408

v 0.484085 -0.899578 1.333824
vt -0.295047 0.767728
vn 0.620966 -0.777822 -0.096923

v -0.020268 -1.119961 1.332066
vt -0.281835 0.767728
vn 0.149887 -0.983784 -0.098506

v -0.020268 -1.119961 1.332066
vt -0.281835 0.767728
vn 0.149887 -0.983784 -0.098506

v -0.075475 -0.722571 -0.158858
vt -0.281835 0.801903
vn 0.146005 -0.954552 -0.259832

v 0.237721 -0.585716 -0.157765
vt -0.295047 0.801903
vn 0.602943 -0.754775 -0.258408

v 0.484085 -0.899578 1.333824
vt -0.295047 0.767728
vn 0.620966 -0.777822 -0.096923

v 0.227596 -0.606809 7.593559
vt -0.295047 0.610514
vn 0.567753 -0.713443 0.410677

v -0.098446 -0.749276 7.592421
vt -0.281835 0.610514
vn 0.135732 -0.902316 0.409149

v -0.098446 -0.749276 7.592421
vt -0.281835 0.610514
vn 0.135732 -0.902316 0.409149

v -0.020268 -1.119961 1.332066
vt -0.281835 0.767728
vn 0.149887 -0.983784 -0.098506

v 0.484085 -0.899578 1.333824
vt -0.295047 0.767728
vn 0.620966 -0.777822 -0.096923

v -0.011601 0.412754 7.74382
vt -0.043171 0.8375
vn -0.00349 -1.4E-05 0.999994

v -0.280127 0.442479 7.74288
vt -0.033324 0.834867
vn -0.003498 3.5E-05 0.999994

v -0.527691 0.334305 7.742018
vt -0.023477 0.8375
vn -0.003488 6E-06 0.999994

v 0.20572 0.253249 7.744576
vt -0.050372 0.844679
vn -0.003488 -1E-06 0.999994

v -0.011601 0.412754 7.74382
vt -0.043171 0.8375
vn -0.00349 -1.4E-05 0.999994

v -0.527691 0.334305 7.742018
vt -0.023477 0.8375
vn -0.003488 6E-06 0.999994

v 0.20572 0.253249 7.744576
vt -0.050372 0.844679
vn -0.003488 -1E-06 0.999994

v -0.527691 0.334305 7.742018
vt -0.023477 0.8375
vn -0.003488 6E-06 0.999994

v -0.687799 0.117427 7.741461
vt -0.016276 0.844681
vn -0.003486 1E-06 0.999994

v 0.20572 0.253249 7.744576
vt -0.050372 0.844679
vn -0.003488 -1E-06 0.999994

v -0.687799 0.117427 7.741461
vt -0.016276 0.844681
vn -0.003486 1E-06 0.999994

v -0.717768 -0.149877 7.741356
vt -0.013643 0.854481
vn -0.003486 -6E-06 0.999994

v 0.313763 0.006924 7.744953
vt -0.053005 0.854481
vn -0.00349 3E-06 0.999994

v 0.20572 0.253249 7.744576
vt -0.050372 0.844679
vn -0.003488 -1E-06 0.999994

v -0.717768 -0.149877 7.741356
vt -0.013643 0.854481
vn -0.003486 -6E-06 0.999994

v 0.313763 0.006924 7.744953
vt -0.053005 0.854481
vn -0.00349 3E-06 0.999994

v -0.717768 -0.149877 7.741356
vt -0.013643 0.854481
vn -0.003486 -6E-06 0.999994

v -0.609724 -0.396204 7.74173
vt -0.016275 0.864279
vn -0.003489 -3E-06 0.999994

v 0.283795 -0.260382 7.74485
vt -0.050373 0.86428
vn -0.003491 3E-06 0.999994

v 0.313763 0.006924 7.744953
vt -0.053005 0.854481
vn -0.00349 3E-06 0.999994

v -0.609724 -0.396204 7.74173
vt -0.016275 0.864279
vn -0.003489 -3E-06 0.999994

v 0.283795 -0.260382 7.74485
vt -0.050373 0.86428
vn -0.003491 3E-06 0.999994

v -0.609724 -0.396204 7.74173
vt -0.016275 0.864279
vn -0.003489 -3E-06 0.999994

v -0.392404 -0.555707 7.742491
vt -0.023477 0.871461
vn -0.003492 8E-06 0.999994

v 0.123686 -0.477257 7.744289
vt -0.04317 0.871461
vn -0.003483 -1.2E-05 0.999994

v 0.283795 -0.260382 7.74485
vt -0.050373 0.86428
vn -0.003491 3E-06 0.999994

v -0.392404 -0.555707 7.742491
vt -0.023477 0.871461
vn -0.003492 8E-06 0.999994

v 0.123686 -0.477257 7.744289
vt -0.04317 0.871461
vn -0.003483 -1.2E-05 0.999994

v -0.392404 -0.555707 7.742491
vt -0.023477 0.871461
vn -0.003492 8E-06 0.999994

v -0.123878 -0.585433 7.743427
vt -0.033324 0.874093
vn -0.003487 9E-06 0.999994

v -0.789369 0.16812 -0.161348
vt -0.229182 0.801903
vn -0.897767 0.352602 -0.263981

v -0.827357 -0.170724 -0.16148
vt -0.242287 0.801903
vn -0.953455 -0.145071 -0.264345

v -1.231055 -0.231299 1.327844
vt -0.242287 0.767728
vn -0.983408 -0.149538 -0.102698

v -1.231055 -0.231299 1.327844
vt -0.242287 0.767728
vn -0.983408 -0.149538 -0.102698

v -1.169881 0.314355 1.328057
vt -0.229182 0.767728
vn -0.926025 0.363297 -0.102438

v -0.789369 0.16812 -0.161348
vt -0.229182 0.801903
vn -0.897767 0.352602 -0.263981

v -1.010505 -0.734129 1.328609
vt -0.255429 0.767728
vn -0.776229 -0.622159 -0.101917

v -0.567326 -1.059401 1.330157
vt -0.268621 0.767728
vn -0.361115 -0.927106 -0.100348

v -0.452095 -0.710127 7.591188
vt -0.268621 0.610514
vn -0.332899 -0.850349 0.407535

v -0.452095 -0.710127 7.591188
vt -0.268621 0.610514
vn -0.332899 -0.850349 0.407535

v -0.738589 -0.499853 7.590187
vt -0.255429 0.610514
vn -0.713648 -0.570679 0.406241

v -1.010505 -0.734129 1.328609
vt -0.255429 0.767728
vn -0.776229 -0.622159 -0.101917

v -1.010505 -0.734129 1.328609
vt -0.255429 0.767728
vn -0.776229 -0.622159 -0.101917

v -0.690399 -0.482975 -0.161003
vt -0.255429 0.801903
vn -0.752401 -0.603717 -0.263474

v -0.415191 -0.684964 -0.160044
vt -0.268621 0.801903
vn -0.349654 -0.899577 -0.26173

v -0.415191 -0.684964 -0.160044
vt -0.268621 0.801903
vn -0.349654 -0.899577 -0.26173

v -0.567326 -1.059401 1.330157
vt -0.268621 0.767728
vn -0.361115 -0.927106 -0.100348

v -1.010505 -0.734129 1.328609
vt -0.255429 0.767728
vn -0.776229 -0.622159 -0.101917

v -1.231055 -0.231299 1.327844
vt -0.242287 0.767728
vn -0.983408 -0.149538 -0.102698

v -0.827357 -0.170724 -0.16148
vt -0.242287 0.801903
vn -0.953455 -0.145071 -0.264345

v -0.690399 -0.482975 -0.161003
vt -0.255429 0.801903
vn -0.752401 -0.603717 -0.263474

v -0.690399 -0.482975 -0.161003
vt -0.255429 0.801903
vn -0.752401 -0.603717 -0.263474

v -1.010505 -0.734129 1.328609
vt -0.255429 0.767728
vn -0.776229 -0.622159 -0.101917

v -1.231055 -0.231299 1.327844
vt -0.242287 0.767728
vn -0.983408 -0.149538 -0.102698

v 0.484085 -0.899578 1.333824
vt -0.295047 0.767728
vn 0.620966 -0.777822 -0.096923

v 0.810593 -0.457307 1.334962
vt -0.308222 0.767728
vn 0.926716 -0.363298 -0.095978

v 0.438668 -0.3209 7.594296
vt -0.308222 0.610514
vn 0.848202 -0.333266 0.411688

v 0.438668 -0.3209 7.594296
vt -0.308222 0.610514
vn 0.848202 -0.333266 0.411688

v 0.227596 -0.606809 7.593559
vt -0.295047 0.610514
vn 0.567753 -0.713443 0.410677

v 0.484085 -0.899578 1.333824
vt -0.295047 0.767728
vn 0.620966 -0.777822 -0.096923

v 0.651216 0.591176 1.334407
vt -0.334454 0.767728
vn 0.776921 0.622159 -0.0965

v 0.341508 0.340022 -0.157404
vt -0.334454 0.801903
vn 0.754221 0.603717 -0.258219

v 0.066299 0.542012 -0.158361
vt -0.3473 0.801903
vn 0.351472 0.899577 -0.259285

v 0.066299 0.542012 -0.158361
vt -0.3473 0.801903
vn 0.351472 0.899577 -0.259285

v 0.208038 0.916451 1.332862
vt -0.3473 0.767728
vn 0.361808 0.927106 -0.097827

v 0.651216 0.591176 1.334407
vt -0.334454 0.767728
vn 0.776921 0.622159 -0.0965

v 0.651216 0.591176 1.334407
vt -0.334454 0.767728
vn 0.776921 0.622159 -0.0965

v 0.871767 0.088347 1.335176
vt -0.321352 0.767728
vn 0.9841 0.14954 -0.095838

v 0.478466 0.027771 -0.156926
vt -0.321352 0.801903
vn 0.955275 0.145071 -0.257689

v 0.478466 0.027771 -0.156926
vt -0.321352 0.801903
vn 0.955275 0.145071 -0.257689

v 0.341508 0.340022 -0.157404
vt -0.334454 0.801903
vn 0.754221 0.603717 -0.258219

v 0.651216 0.591176 1.334407
vt -0.334454 0.767728
vn 0.776921 0.622159 -0.0965

v 0.478466 0.027771 -0.156926
vt -0.321352 0.801903
vn 0.955275 0.145071 -0.257689

v 0.871767 0.088347 1.335176
vt -0.321352 0.767728
vn 0.9841 0.14954 -0.095838

v 0.810593 -0.457307 1.334962
vt -0.308222 0.767728
vn 0.926716 -0.363298 -0.095978

v 0.810593 -0.457307 1.334962
vt -0.308222 0.767728
vn 0.926716 -0.363298 -0.095978

v 0.440478 -0.311073 -0.157059
vt -0.308222 0.801903
vn 0.899586 -0.352602 -0.257713

v 0.478466 0.027771 -0.156926
vt -0.321352 0.801903
vn 0.955275 0.145071 -0.257689

v 0.478216 0.031842 7.594433
vt -0.321352 0.610514
vn 0.900853 0.137154 0.411889

v 0.438668 -0.3209 7.594296
vt -0.308222 0.610514
vn 0.848202 -0.333266 0.411688

v 0.810593 -0.457307 1.334962
vt -0.308222 0.767728
vn 0.926716 -0.363298 -0.095978

v 0.810593 -0.457307 1.334962
vt -0.308222 0.767728
vn 0.926716 -0.363298 -0.095978

v 0.871767 0.088347 1.335176
vt -0.321352 0.767728
vn 0.9841 0.14954 -0.095838

v 0.478216 0.031842 7.594433
vt -0.321352 0.610514
vn 0.900853 0.137154 0.411889

v -0.881166 -0.174795 7.589693
vt -0.242287 0.610514
vn -0.903703 -0.137154 0.405599

v -1.231055 -0.231299 1.327844
vt -0.242287 0.767728
vn -0.983408 -0.149538 -0.102698

v -1.010505 -0.734129 1.328609
vt -0.255429 0.767728
vn -0.776229 -0.622159 -0.101917

v -1.010505 -0.734129 1.328609
vt -0.255429 0.767728
vn -0.776229 -0.622159 -0.101917

v -0.738589 -0.499853 7.590187
vt -0.255429 0.610514
vn -0.713648 -0.570679 0.406241

v -0.881166 -0.174795 7.589693
vt -0.242287 0.610514
vn -0.903703 -0.137154 0.405599

v -1.169881 0.314355 1.328057
vt -0.229182 0.767728
vn -0.926025 0.363297 -0.102438

v -0.843373 0.756627 1.329195
vt -0.216117 0.767728
vn -0.620275 0.777822 -0.101252

v -0.586612 0.442765 -0.160642
vt -0.216117 0.801903
vn -0.601126 0.754775 -0.262607

v -0.586612 0.442765 -0.160642
vt -0.216117 0.801903
vn -0.601126 0.754775 -0.262607

v -0.789369 0.16812 -0.161348
vt -0.229182 0.801903
vn -0.897767 0.352602 -0.263981

v -1.169881 0.314355 1.328057
vt -0.229182 0.767728
vn -0.926025 0.363297 -0.102438

v -0.33902 0.977009 1.33095
vt -0.203084 0.767728
vn -0.149196 0.983784 -0.09955

v 0.208038 0.916451 1.332862
vt -0.190358 0.767728
vn 0.361808 0.927106 -0.097827

v 0.066299 0.542012 -0.158361
vt -0.190358 0.801903
vn 0.351472 0.899577 -0.259285

v 0.066299 0.542012 -0.158361
vt -0.190358 0.801903
vn 0.351472 0.899577 -0.259285

v -0.273416 0.579618 -0.159548
vt -0.203084 0.801903
vn -0.14419 0.954552 -0.260845

v -0.33902 0.977009 1.33095
vt -0.203084 0.767728
vn -0.149196 0.983784 -0.09955

v -0.843373 0.756627 1.329195
vt -0.216117 0.767728
vn -0.620275 0.777822 -0.101252

v -0.33902 0.977009 1.33095
vt -0.203084 0.767728
vn -0.149196 0.983784 -0.09955

v -0.273416 0.579618 -0.159548
vt -0.203084 0.801903
vn -0.14419 0.954552 -0.260845

v -0.273416 0.579618 -0.159548
vt -0.203084 0.801903
vn -0.14419 0.954552 -0.260845

v -0.586612 0.442765 -0.160642
vt -0.216117 0.801903
vn -0.601126 0.754775 -0.262607

v -0.843373 0.756627 1.329195
vt -0.216117 0.767728
vn -0.620275 0.777822 -0.101252

v -0.841619 0.177946 7.589828
vt -0.229182 0.610514
vn -0.851054 0.333266 0.40576

v -0.630547 0.463856 7.590565
vt -0.216117 0.610514
vn -0.570603 0.713444 0.406706

v -0.843373 0.756627 1.329195
vt -0.216117 0.767728
vn -0.620275 0.777822 -0.101252

v -0.843373 0.756627 1.329195
vt -0.216117 0.767728
vn -0.620275 0.777822 -0.101252

v -1.169881 0.314355 1.328057
vt -0.229182 0.767728
vn -0.926025 0.363297 -0.102438

v -0.841619 0.177946 7.589828
vt -0.229182 0.610514
vn -0.851054 0.333266 0.40576

v 0.651216 0.591176 1.334407
vt -0.334454 0.767728
vn 0.776921 0.622159 -0.0965

v 0.208038 0.916451 1.332862
vt -0.3473 0.767728
vn 0.361808 0.927106 -0.097827

v 0.049144 0.567175 7.592937
vt -0.3473 0.610514
vn 0.330046 0.85035 0.409848

v 0.049144 0.567175 7.592937
vt -0.3473 0.610514
vn 0.330046 0.85035 0.409848

v 0.335639 0.356898 7.593937
vt -0.334454 0.610514
vn 0.710797 0.570677 0.411212

v 0.651216 0.591176 1.334407
vt -0.334454 0.767728
vn 0.776921 0.622159 -0.0965

v -0.881166 -0.174795 7.589693
vt -0.242287 0.610514
vn -0.903703 -0.137154 0.405599

v -0.841619 0.177946 7.589828
vt -0.229182 0.610514
vn -0.851054 0.333266 0.40576

v -1.169881 0.314355 1.328057
vt -0.229182 0.767728
vn -0.926025 0.363297 -0.102438

v -1.169881 0.314355 1.328057
vt -0.229182 0.767728
vn -0.926025 0.363297 -0.102438

v -1.231055 -0.231299 1.327844
vt -0.242287 0.767728
vn -0.983408 -0.149538 -0.102698

v -0.881166 -0.174795 7.589693
vt -0.242287 0.610514
vn -0.903703 -0.137154 0.405599

v 0.871767 0.088347 1.335176
vt -0.321352 0.767728
vn 0.9841 0.14954 -0.095838

v 0.651216 0.591176 1.334407
vt -0.334454 0.767728
vn 0.776921 0.622159 -0.0965

v 0.335639 0.356898 7.593937
vt -0.334454 0.610514
vn 0.710797 0.570677 0.411212

v 0.335639 0.356898 7.593937
vt -0.334454 0.610514
vn 0.710797 0.570677 0.411212

v 0.478216 0.031842 7.594433
vt -0.321352 0.610514
vn 0.900853 0.137154 0.411889

v 0.871767 0.088347 1.335176
vt -0.321352 0.767728
vn 0.9841 0.14954 -0.095838

v -0.304505 0.606322 7.5917
vt -0.203084 0.610514
vn -0.138584 0.902316 0.408192

v 0.049144 0.567175 7.592937
vt -0.190358 0.610514
vn 0.330046 0.85035 0.409848

v 0.208038 0.916451 1.332862
vt -0.190358 0.767728
vn 0.361808 0.927106 -0.097827

v 0.208038 0.916451 1.332862
vt -0.190358 0.767728
vn 0.361808 0.927106 -0.097827

v -0.33902 0.977009 1.33095
vt -0.203084 0.767728
vn -0.149196 0.983784 -0.09955

v -0.304505 0.606322 7.5917
vt -0.203084 0.610514
vn -0.138584 0.902316 0.408192

v -0.630547 0.463856 7.590565
vt -0.216117 0.610514
vn -0.570603 0.713444 0.406706

v -0.304505 0.606322 7.5917
vt -0.203084 0.610514
vn -0.138584 0.902316 0.408192

v -0.33902 0.977009 1.33095
vt -0.203084 0.767728
vn -0.149196 0.983784 -0.09955

v -0.33902 0.977009 1.33095
vt -0.203084 0.767728
vn -0.149196 0.983784 -0.09955

v -0.843373 0.756627 1.329195
vt -0.216117 0.767728
vn -0.620275 0.777822 -0.101252

v -0.630547 0.463856 7.590565
vt -0.216117 0.610514
vn -0.570603 0.713444 0.406706

v -0.098446 -0.749276 7.592421
vt -0.032019 0.885279
vn 0.135732 -0.902316 0.409149

v -0.123878 -0.585433 7.743427
vt -0.033324 0.874093
vn 0.09867 -0.666082 0.739323

v -0.392404 -0.555707 7.742491
vt -0.023477 0.871461
vn -0.24725 -0.627684 0.73816

v -0.392404 -0.555707 7.742491
vt -0.023477 0.871461
vn -0.24725 -0.627684 0.73816

v -0.452095 -0.710127 7.591188
vt -0.01905 0.881814
vn -0.332899 -0.850349 0.407535

v -0.098446 -0.749276 7.592421
vt -0.032019 0.885279
vn 0.135732 -0.902316 0.409149

v 0.227596 -0.606809 7.593559
vt -0.047597 0.881813
vn 0.567753 -0.713443 0.410677

v 0.123686 -0.477257 7.744289
vt -0.04317 0.871461
vn 0.417554 -0.526627 0.740481

v -0.123878 -0.585433 7.743427
vt -0.033324 0.874093
vn 0.09867 -0.666082 0.739323

v -0.123878 -0.585433 7.743427
vt -0.033324 0.874093
vn 0.09867 -0.666082 0.739323

v -0.098446 -0.749276 7.592421
vt -0.034629 0.885278
vn 0.135732 -0.902316 0.409149

v 0.227596 -0.606809 7.593559
vt -0.047597 0.881813
vn 0.567753 -0.713443 0.410677

v -0.452095 -0.710127 7.591188
vt -0.016762 0.880503
vn -0.332899 -0.850349 0.407535

v -0.392404 -0.555707 7.742491
vt -0.023477 0.871461
vn -0.24725 -0.627684 0.73816

v -0.609724 -0.396204 7.74173
vt -0.016275 0.864279
vn -0.528233 -0.421198 0.737267

v -0.609724 -0.396204 7.74173
vt -0.016275 0.864279
vn -0.528233 -0.421198 0.737267

v -0.738589 -0.499853 7.590187
vt -0.007267 0.871036
vn -0.713648 -0.570679 0.406241

v -0.452095 -0.710127 7.591188
vt -0.016762 0.880503
vn -0.332899 -0.850349 0.407535

v 0.123686 -0.477257 7.744289
vt -0.297072 0.609582
vn 0.417554 -0.526627 0.740481

v 0.227596 -0.606809 7.593559
vt -0.295047 0.610514
vn 0.567753 -0.713443 0.410677

v 0.438668 -0.3209 7.594296
vt -0.308222 0.610514
vn 0.848202 -0.333266 0.411688

v 0.438668 -0.3209 7.594296
vt -0.308222 0.610514
vn 0.848202 -0.333266 0.411688

v 0.283795 -0.260382 7.74485
vt -0.30617 0.609586
vn 0.624494 -0.245977 0.741284

v 0.123686 -0.477257 7.744289
vt -0.297072 0.609582
vn 0.417554 -0.526627 0.740481

v 0.478216 0.031842 7.594433
vt -0.064188 0.855806
vn 0.900853 0.137154 0.411889

v 0.313763 0.006924 7.744953
vt -0.053005 0.854481
vn 0.663312 0.101222 0.741466

v 0.283795 -0.260382 7.74485
vt -0.050373 0.86428
vn 0.624494 -0.245977 0.741284

v 0.283795 -0.260382 7.74485
vt -0.050373 0.86428
vn 0.624494 -0.245977 0.741284

v 0.438668 -0.3209 7.594296
vt -0.060714 0.868737
vn 0.848202 -0.333266 0.411688

v 0.478216 0.031842 7.594433
vt -0.064188 0.855806
vn 0.900853 0.137154 0.411889

v -0.738589 -0.499853 7.590187
vt -0.005935 0.868736
vn -0.713648 -0.570679 0.406241

v -0.609724 -0.396204 7.74173
vt -0.016275 0.864279
vn -0.528233 -0.421198 0.737267

v -0.717768 -0.149877 7.741356
vt -0.013643 0.854481
vn -0.668466 -0.101224 0.736822

v -0.717768 -0.149877 7.741356
vt -0.013643 0.854481
vn -0.668466 -0.101224 0.736822

v -0.881166 -0.174795 7.589693
vt -0.002461 0.855806
vn -0.903703 -0.137154 0.405599

v -0.738589 -0.499853 7.590187
vt -0.005935 0.868736
vn -0.713648 -0.570679 0.406241

v -0.841619 0.177946 7.589828
vt -0.007268 0.837925
vn -0.851054 0.333266 0.40576

v -0.687799 0.117427 7.741461
vt -0.016276 0.844681
vn -0.629651 0.245978 0.736909

v -0.527691 0.334305 7.742018
vt -0.023477 0.8375
vn -0.422709 0.526631 0.737548

v -0.527691 0.334305 7.742018
vt -0.023477 0.8375
vn -0.422709 0.526631 0.737548

v -0.630547 0.463856 7.590565
vt -0.016762 0.828458
vn -0.570603 0.713444 0.406706

v -0.841619 0.177946 7.589828
vt -0.007268 0.837925
vn -0.851054 0.333266 0.40576

v 0.049144 0.567175 7.592937
vt -0.049885 0.828459
vn 0.330046 0.85035 0.409848

v -0.011601 0.412754 7.74382
vt -0.043171 0.8375
vn 0.242091 0.627685 0.739867

v 0.20572 0.253249 7.744576
vt -0.050372 0.844679
vn 0.523076 0.421195 0.740936

v 0.20572 0.253249 7.744576
vt -0.050372 0.844679
vn 0.523076 0.421195 0.740936

v 0.335639 0.356898 7.593937
vt -0.059378 0.837923
vn 0.710797 0.570677 0.411212

v 0.049144 0.567175 7.592937
vt -0.049885 0.828459
vn 0.330046 0.85035 0.409848

v -0.881166 -0.174795 7.589693
vt -0.002459 0.853156
vn -0.903703 -0.137154 0.405599

v -0.717768 -0.149877 7.741356
vt -0.013643 0.854481
vn -0.668466 -0.101224 0.736822

v -0.687799 0.117427 7.741461
vt -0.016276 0.844681
vn -0.629651 0.245978 0.736909

v -0.687799 0.117427 7.741461
vt -0.016276 0.844681
vn -0.629651 0.245978 0.736909

v -0.841619 0.177946 7.589828
vt -0.005934 0.840223
vn -0.851054 0.333266 0.40576

v -0.881166 -0.174795 7.589693
vt -0.002459 0.853156
vn -0.903703 -0.137154 0.405599

v 0.335639 0.356898 7.593937
vt -0.060715 0.840221
vn 0.710797 0.570677 0.411212

v 0.20572 0.253249 7.744576
vt -0.050372 0.844679
vn 0.523076 0.421195 0.740936

v 0.313763 0.006924 7.744953
vt -0.053005 0.854481
vn 0.663312 0.101222 0.741466

v 0.313763 0.006924 7.744953
vt -0.053005 0.854481
vn 0.663312 0.101222 0.741466

v 0.478216 0.031842 7.594433
vt -0.064191 0.853156
vn 0.900853 0.137154 0.411889

v 0.335639 0.356898 7.593937
vt -0.060715 0.840221
vn 0.710797 0.570677 0.411212

v -0.304505 0.606322 7.5917
vt -0.034629 0.82368
vn -0.138584 0.902316 0.408192

v -0.280127 0.442479 7.74288
vt -0.033324 0.834867
vn -0.103828 0.666082 0.738616

v -0.011601 0.412754 7.74382
vt -0.043171 0.8375
vn 0.242091 0.627685 0.739867

v -0.011601 0.412754 7.74382
vt -0.043171 0.8375
vn 0.242091 0.627685 0.739867

v 0.049144 0.567175 7.592937
vt -0.047599 0.827147
vn 0.330046 0.85035 0.409848

v -0.304505 0.606322 7.5917
vt -0.034629 0.82368
vn -0.138584 0.902316 0.408192

v -0.630547 0.463856 7.590565
vt -0.019049 0.827147
vn -0.570603 0.713444 0.406706

v -0.527691 0.334305 7.742018
vt -0.023477 0.8375
vn -0.422709 0.526631 0.737548

v -0.280127 0.442479 7.74288
vt -0.033324 0.834867
vn -0.103828 0.666082 0.738616

v -0.280127 0.442479 7.74288
vt -0.033324 0.834867
vn -0.103828 0.666082 0.738616

v -0.304505 0.606322 7.5917
vt -0.032018 0.823681
vn -0.138584 0.902316 0.408192

v -0.630547 0.463856 7.590565
vt -0.019049 0.827147
vn -0.570603 0.713444 0.406706

# 246 vertice(s).

f 1/1/1 2/2/2 3/3/3
f 4/4/4 5/5/5 6/6/6
f 7/7/7 8/8/8 9/9/9
f 10/10/10 11/11/11 12/12/12
f 13/13/13 14/14/14 15/15/15
f 16/16/16 17/17/17 18/18/18
f 19/19/19 20/20/20 21/21/21
f 22/22/22 23/23/23 24/24/24
f 25/25/25 26/26/26 27/27/27
f 28/28/28 29/29/29 30/30/30
f 31/31/31 32/32/32 33/33/33
f 34/34/34 35/35/35 36/36/36
f 37/37/37 38/38/38 39/39/39
f 40/40/40 41/41/41 42/42/42
f 43/43/43 44/44/44 45/45/45
f 46/46/46 47/47/47 48/48/48
f 49/49/49 50/50/50 51/51/51
f 52/52/52 53/53/53 54/54/54
f 55/55/55 56/56/56 57/57/57
f 58/58/58 59/59/59 60/60/60
f 61/61/61 62/62/62 63/63/63
f 64/64/64 65/65/65 66/66/66
f 67/67/67 68/68/68 69/69/69
f 70/70/70 71/71/71 72/72/72
f 73/73/73 74/74/74 75/75/75
f 76/76/76 77/77/77 78/78/78
f 79/79/79 80/80/80 81/81/81
f 82/82/82 83/83/83 84/84/84
f 85/85/85 86/86/86 87/87/87
f 88/88/88 89/89/89 90/90/90
f 91/91/91 92/92/92 93/93/93
f 94/94/94 95/95/95 96/96/96
f 97/97/97 98/98/98 99/99/99
f 100/100/100 101/101/101 102/102/102
f 103/103/103 104/104/104 105/105/105
f 106/106/106 107/107/107 108/108/108
f 109/109/109 110/110/110 111/111/111
f 112/112/112 113/113/113 114/114/114
f 115/115/115 116/116/116 117/117/117
f 118/118/118 119/119/119 120/120/120
f 121/121/121 122/122/122 123/123/123
f 124/124/124 125/125/125 126/126/126
f 127/127/127 128/128/128 129/129/129
f 130/130/130 131/131/131 132/132/132
f 133/133/133 134/134/134 135/135/135
f 136/136/136 137/137/137 138/138/138
f 139/139/139 140/140/140 141/141/141
f 142/142/142 143/143/143 144/144/144
f 145/145/145 146/146/146 147/147/147
f 148/148/148 149/149/149 150/150/150
f 151/151/151 152/152/152 153/153/153
f 154/154/154 155/155/155 156/156/156
f 157/157/157 158/158/158 159/159/159
f 160/160/160 161/161/161 162/162/162
f 163/163/163 164/164/164 165/165/165
f 166/166/166 167/167/167 168/168/168
f 169/169/169 170/170/170 171/171/171
f 172/172/172 173/173/173 174/174/174
f 175/175/175 176/176/176 177/177/177
f 178/178/178 179/179/179 180/180/180
f 181/181/181 182/182/182 183/183/183
f 184/184/184 185/185/185 186/186/186
f 187/187/187 188/188/188 189/189/189
f 190/190/190 191/191/191 192/192/192
f 193/193/193 194/194/194 195/195/195
f 196/196/196 197/197/197 198/198/198
f 199/199/199 200/200/200 201/201/201
f 202/202/202 203/203/203 204/204/204
f 205/205/205 206/206/206 207/207/207
f 208/208/208 209/209/209 210/210/210
f 211/211/211 212/212/212 213/213/213
f 214/214/214 215/215/215 216/216/216
f 217/217/217 218/218/218 219/219/219
f 220/220/220 221/221/221 222/222/222
f 223/223/223 224/224/224 225/225/225
f 226/226/226 227/227/227 228/228/228
f 229/229/229 230/230/230 231/231/231
f 232/232/232 233/233/233 234/234/234
f 235/235/235 236/236/236 237/237/237
f 238/238/238 239/239/239 240/240/240
f 241/241/241 242/242/242 243/243/243
f 244/244/244 245/245/245 246/246/246
# 246 indices; 82 primitives.

# 1 primitive groups.

# 1 parts.

