mtllib Right Turret 2.mtl

g guntop
usemtl guntop

v 13.98344 11.35696 12.49184
vt 0.353467 0.146181
vn 0 0.993627 0.11272

v 16.756 11.35696 -9.02752
vt 0.819333 0.07648402
vn 0 1 0

v 0.273733 11.35696 -17.37292
vt 1 0.490817
vn 0 1 0

v -19.98172 -11.35695 21.29212
vt 0.162953 1
vn 0 -0.777294 0.629137

v 13.39508 -5.264524 28.81928
vt 0 0.160971
vn 0 -0.777294 0.629137

v -13.59976 -5.264516 28.81928
vt 0 0.83957
vn 0 -0.777294 0.629137

v 13.98344 11.35696 12.49184
vt 0.353467 0.146181
vn 0 0.993627 0.11272

v -10.209 8.178803 26.3192
vt 0.054123 0.754332
vn 0 0.974588 0.224004

v 9.953362 8.178797 26.3192
vt 0.054123 0.247489
vn 0 0.974588 0.224004

v -14.25264 11.35697 12.49184
vt 0.353467 0.855981
vn 0 0.997177 0.075093

v 13.98344 11.35696 12.49184
vt 0.353467 0.146181
vn 0 0.993627 0.11272

v 0.273733 11.35696 -17.37292
vt 1 0.490817
vn 0 1 0

v 13.39508 -5.264524 28.81928
vt 0 0.160971
vn 0 -0.777294 0.629137

v -19.98172 -11.35695 21.29212
vt 0.162953 1
vn 0 -0.777294 0.629137

v 19.79856 -11.35697 21.29212
vt 0.162953 0
vn 0 -0.777294 0.629137

v -10.209 8.178803 26.3192
vt 0.054123 0.754332
vn 0 0.974588 0.224004

v 13.98344 11.35696 12.49184
vt 0.353467 0.146181
vn 0 0.993627 0.11272

v -14.25264 11.35697 12.49184
vt 0.353467 0.855981
vn 0 0.997177 0.075093

v -14.25264 11.35697 12.49184
vt 0.353467 0.855981
vn 0 0.997177 0.075093

v 0.273733 11.35696 -17.37292
vt 1 0.490817
vn 0 1 0

v -16.85832 11.35697 -9.02752
vt 0.819333 0.921484
vn 0 1 0

# 21 vertice(s).

f 1/1/1 2/2/2 3/3/3
f 4/4/4 5/5/5 6/6/6
f 7/7/7 8/8/8 9/9/9
f 10/10/10 11/11/11 12/12/12
f 13/13/13 14/14/14 15/15/15
f 16/16/16 17/17/17 18/18/18
f 19/19/19 20/20/20 21/21/21
# 21 indices; 7 primitives.

# 1 primitive groups.

g gunsides
usemtl gunsides

v -14.25264 11.35697 12.49184
vt 0.331231 1
vn -0.925664 0.294217 0.237872

v -13.59976 -5.264516 28.81928
vt 0 0.268225
vn -0.868799 0.32921 0.369877

v -10.209 8.178803 26.3192
vt 0.050718 0.860079
vn -0.899263 0.288038 0.329182

v 13.98344 11.35696 12.49184
vt 0.331231 1
vn 0.924163 0.296858 0.240412

v 9.953362 8.178797 26.3192
vt 0.050718 0.860079
vn 0.898413 0.291149 0.328766

v 13.39508 -5.264524 28.81928
vt 0 0.268225
vn 0.867905 0.332119 0.369375

v -13.59976 -5.264516 28.81928
vt 0 0.268225
vn -0.868799 0.32921 0.369877

v -14.25264 11.35697 12.49184
vt 0.331231 1
vn -0.925664 0.294217 0.237872

v -19.98172 -11.35695 21.29212
vt 0.152702 0
vn -0.911075 0.327038 0.250976

v 13.98344 11.35696 12.49184
vt 0.331231 1
vn 0.924163 0.296858 0.240412

v 13.39508 -5.264524 28.81928
vt 0 0.268225
vn 0.867905 0.332119 0.369375

v 19.79856 -11.35697 21.29212
vt 0.152702 0
vn 0.909308 0.330671 0.252619

v 23.67876 -11.35697 -20.47388
vt 1 0
vn 0.960932 0.255427 0.106619

v 16.756 11.35696 -9.02752
vt 0.76779 1
vn 0.964877 0.231427 0.124315

v 13.98344 11.35696 12.49184
vt 0.331231 1
vn 0.924163 0.296858 0.240412

v -23.67876 -11.35695 -20.47388
vt 1 0
vn -0.962225 0.252864 0.100908

v -14.25264 11.35697 12.49184
vt 0.331231 1
vn -0.925664 0.294217 0.237872

v -16.85832 11.35697 -9.02752
vt 0.76779 1
vn -0.965877 0.23109 0.116955

v -14.25264 11.35697 12.49184
vt 0.331231 1
vn -0.925664 0.294217 0.237872

v -23.67876 -11.35695 -20.47388
vt 1 0
vn -0.962225 0.252864 0.100908

v -19.98172 -11.35695 21.29212
vt 0.152702 0
vn -0.911075 0.327038 0.250976

v 23.67876 -11.35697 -20.47388
vt 1 0
vn 0.960932 0.255427 0.106619

v 13.98344 11.35696 12.49184
vt 0.331231 1
vn 0.924163 0.296858 0.240412

v 19.79856 -11.35697 21.29212
vt 0.152702 0
vn 0.909308 0.330671 0.252619

# 24 vertice(s).

f 22/22/22 23/23/23 24/24/24
f 25/25/25 26/26/26 27/27/27
f 28/28/28 29/29/29 30/30/30
f 31/31/31 32/32/32 33/33/33
f 34/34/34 35/35/35 36/36/36
f 37/37/37 38/38/38 39/39/39
f 40/40/40 41/41/41 42/42/42
f 43/43/43 44/44/44 45/45/45
# 24 indices; 8 primitives.

# 1 primitive groups.

g gunback
usemtl gunback

v 0.273733 11.35696 -17.37292
vt 0.49422 1
vn 0.004739 0.498736 -0.866741

v 23.67876 -11.35697 -20.47388
vt 0 0
vn 0.347337 0.468783 -0.812157

v 0.273726 -11.35696 -28.81928
vt 0.49422 0
vn 0.003311 0.450021 -0.893012

v 23.67876 -11.35697 -20.47388
vt 0 0
vn 0.347337 0.468783 -0.812157

v 0.273733 11.35696 -17.37292
vt 0.49422 1
vn 0.004739 0.498736 -0.866741

v 16.756 11.35696 -9.02752
vt 0.14618 1
vn 0.389519 0.506399 -0.769308

v -23.67876 -11.35695 -20.47388
vt 1 0
vn -0.338346 0.468234 -0.816259

v 0.273733 11.35696 -17.37292
vt 0.49422 1
vn 0.004739 0.498736 -0.866741

v 0.273726 -11.35696 -28.81928
vt 0.49422 0
vn 0.003311 0.450021 -0.893012

v -23.67876 -11.35695 -20.47388
vt 1 0
vn -0.338346 0.468234 -0.816259

v -16.85832 11.35697 -9.02752
vt 0.85598 1
vn -0.378073 0.504649 -0.776138

v 0.273733 11.35696 -17.37292
vt 0.49422 1
vn 0.004739 0.498736 -0.866741

# 12 vertice(s).

f 46/46/46 47/47/47 48/48/48
f 49/49/49 50/50/50 51/51/51
f 52/52/52 53/53/53 54/54/54
f 55/55/55 56/56/56 57/57/57
# 12 indices; 4 primitives.

# 1 primitive groups.

g gunfront
usemtl gunfront

v -13.59976 -5.264516 28.81928
vt 1 0
vn 0 0.182836 0.983143

v 9.953362 8.178797 26.3192
vt 0.127495 1
vn 0 0.182836 0.983143

v -10.209 8.178803 26.3192
vt 0.874391 1
vn 0 0.182836 0.983143

v -13.59976 -5.264516 28.81928
vt 1 0
vn 0 0.182836 0.983143

v 13.39508 -5.264524 28.81928
vt 0 0
vn 0 0.182836 0.983143

v 9.953362 8.178797 26.3192
vt 0.127495 1
vn 0 0.182836 0.983143

# 6 vertice(s).

f 58/58/58 59/59/59 60/60/60
f 61/61/61 62/62/62 63/63/63
# 6 indices; 2 primitives.

# 1 primitive groups.

# 4 parts.

