mtllib gearlefttop1.mtl

g Osca12
usemtl Osca12

v 39.67284 -4.174973 3E-06
vt 0.14152 0.650024
vn 1 0 0

v 39.67284 2.087467 3.615628
vt 0.14152 0.396486
vn 1 0 0

v 39.67284 -2.087497 3.615628
vt 0.14152 0.565511
vn 1 0 0

v 39.67284 2.087467 -3.615608
vt 0.14152 0.396486
vn 1 0 0

v 39.67284 4.174948 3E-06
vt 0.14152 0.311974
vn 1 0 0

v 39.67284 -2.087497 -3.615608
vt 0.14152 0.565511
vn 1 0 0

v 39.67284 4.174948 3E-06
vt 0.14152 0.311974
vn 0 0.866025 -0.500001

v 35.0904 2.087469 -3.615608
vt 0.041988 0.396486
vn 0 0.866025 -0.500001

v 35.0904 4.174949 3E-06
vt 0.041988 0.311974
vn 0 0.866025 -0.500001

v 35.0904 2.087469 -3.615608
vt 0.041988 0.396486
vn 0 0.866025 -0.500001

v 39.67284 4.174948 3E-06
vt 0.14152 0.311974
vn 0 0.866025 -0.500001

v 39.67284 2.087467 -3.615608
vt 0.14152 0.396486
vn 0 0.866025 -0.500001

v 39.67284 2.087467 -3.615608
vt 0.14152 0.396486
vn 0 0 -1

v 35.0904 -2.087495 -3.615608
vt 0.041988 0.565511
vn 0 0 -1

v 35.0904 2.087469 -3.615608
vt 0.041988 0.396486
vn 0 0 -1

v 35.0904 -2.087495 -3.615608
vt 0.041988 0.565511
vn 0 0 -1

v 39.67284 2.087467 -3.615608
vt 0.14152 0.396486
vn 0 0 -1

v 39.67284 -2.087497 -3.615608
vt 0.14152 0.565511
vn 0 0 -1

v 39.67284 -2.087497 -3.615608
vt 0.14152 0.565511
vn 0 -0.866025 -0.5

v 35.0904 -4.174971 3E-06
vt 0.041988 0.650024
vn 0 -0.866025 -0.5

v 35.0904 -2.087495 -3.615608
vt 0.041988 0.565511
vn 0 -0.866025 -0.5

v 35.0904 -4.174971 3E-06
vt 0.041988 0.650024
vn 0 -0.866025 -0.5

v 39.67284 -2.087497 -3.615608
vt 0.14152 0.565511
vn 0 -0.866025 -0.5

v 39.67284 -4.174973 3E-06
vt 0.14152 0.650024
vn 0 -0.866025 -0.5

v 39.67284 -4.174973 3E-06
vt 0.14152 0.650024
vn 0 -0.866026 0.499999

v 35.0904 -2.087495 3.615628
vt 0.041988 0.565511
vn 0 -0.866026 0.499999

v 35.0904 -4.174971 3E-06
vt 0.041988 0.650024
vn 0 -0.866026 0.499999

v 35.0904 -2.087495 3.615628
vt 0.041988 0.565511
vn 0 -0.866026 0.499999

v 39.67284 -4.174973 3E-06
vt 0.14152 0.650024
vn 0 -0.866026 0.499999

v 39.67284 -2.087497 3.615628
vt 0.14152 0.565511
vn 0 -0.866026 0.499999

v 39.67284 -2.087497 3.615628
vt 0.14152 0.565511
vn 0 0 1

v 35.0904 2.087469 3.615628
vt 0.041988 0.396486
vn 0 0 1

v 35.0904 -2.087495 3.615628
vt 0.041988 0.565511
vn 0 0 1

v 35.0904 2.087469 3.615628
vt 0.041988 0.396486
vn 0 0 1

v 39.67284 -2.087497 3.615628
vt 0.14152 0.565511
vn 0 0 1

v 39.67284 2.087467 3.615628
vt 0.14152 0.396486
vn 0 0 1

v 39.67284 2.087467 3.615628
vt 0.14152 0.396486
vn 0 0.866025 0.5

v 35.0904 4.174949 3E-06
vt 0.041988 0.311974
vn 0 0.866025 0.5

v 35.0904 2.087469 3.615628
vt 0.041988 0.396486
vn 0 0.866025 0.5

v 35.0904 4.174949 3E-06
vt 0.041988 0.311974
vn 0 0.866025 0.5

v 39.67284 2.087467 3.615628
vt 0.14152 0.396486
vn 0 0.866025 0.5

v 39.67284 4.174948 3E-06
vt 0.14152 0.311974
vn 0 0.866025 0.5

v 35.0904 2.087469 3.615628
vt 0.041988 0.396486
vn -1 0 0

v 35.0904 -4.174971 3E-06
vt 0.041988 0.650024
vn -1 0 0

v 35.0904 -2.087495 3.615628
vt 0.041988 0.565511
vn -1 0 0

v 35.0904 -2.087495 -3.615608
vt 0.041988 0.565511
vn -1 0 0

v 35.0904 2.087469 -3.615608
vt 0.041988 0.396486
vn -1 0 0

v 35.0904 4.174949 3E-06
vt 0.041988 0.311974
vn -1 0 0

v -39.67284 -4.174948 3E-06
vt 0.040094 0.601811
vn -1 0 0

v -39.67284 -2.087471 3.615628
vt 0.040094 0.518633
vn -1 0 0

v -39.67284 2.087492 3.615628
vt 0.040094 0.352277
vn -1 0 0

v -39.67284 -4.174948 3E-06
vt 0.040094 0.601811
vn 0 -0.866026 0.499999

v -35.0904 -4.174949 3E-06
vt 0.132901 0.601811
vn 0 -0.866026 0.499999

v -35.0904 -2.087473 3.615628
vt 0.132901 0.518633
vn 0 -0.866026 0.499999

v -39.67284 4.174973 3E-06
vt 0.040094 0.269098
vn -1 0 0

v -39.67284 2.087492 -3.615608
vt 0.040094 0.352277
vn -1 0 0

v -39.67284 -2.087471 -3.615608
vt 0.040094 0.518633
vn -1 0 0

v -39.67284 4.174973 3E-06
vt 0.040094 0.269098
vn 0 0.866025 -0.500001

v -35.0904 4.174971 3E-06
vt 0.132901 0.269098
vn 0 0.866025 -0.500001

v -35.0904 2.087491 -3.615608
vt 0.132901 0.352277
vn 0 0.866025 -0.500001

v -35.0904 2.087491 -3.615608
vt 0.132901 0.352277
vn 0 0.866025 -0.500001

v -39.67284 2.087492 -3.615608
vt 0.040094 0.352277
vn 0 0.866025 -0.500001

v -39.67284 4.174973 3E-06
vt 0.040094 0.269098
vn 0 0.866025 -0.500001

v -39.67284 2.087492 -3.615608
vt 0.040094 0.352277
vn 0 0 -1

v -35.0904 2.087491 -3.615608
vt 0.132901 0.352277
vn 0 0 -1

v -35.0904 -2.087473 -3.615608
vt 0.132901 0.518633
vn 0 0 -1

v -35.0904 -2.087473 -3.615608
vt 0.132901 0.518633
vn 0 0 -1

v -39.67284 -2.087471 -3.615608
vt 0.040094 0.518633
vn 0 0 -1

v -39.67284 2.087492 -3.615608
vt 0.040094 0.352277
vn 0 0 -1

v -39.67284 -2.087471 -3.615608
vt 0.040094 0.518633
vn 0 -0.866025 -0.5

v -35.0904 -2.087473 -3.615608
vt 0.132901 0.518633
vn 0 -0.866025 -0.5

v -35.0904 -4.174949 3E-06
vt 0.132901 0.601811
vn 0 -0.866025 -0.5

v -35.0904 -4.174949 3E-06
vt 0.132901 0.601811
vn 0 -0.866025 -0.5

v -39.67284 -4.174948 3E-06
vt 0.040094 0.601811
vn 0 -0.866025 -0.5

v -39.67284 -2.087471 -3.615608
vt 0.040094 0.518633
vn 0 -0.866025 -0.5

v -35.0904 -2.087473 3.615628
vt 0.132901 0.518633
vn 0 -0.866026 0.499999

v -39.67284 -2.087471 3.615628
vt 0.040094 0.518633
vn 0 -0.866026 0.499999

v -39.67284 -4.174948 3E-06
vt 0.040094 0.601811
vn 0 -0.866026 0.499999

v -39.67284 -2.087471 3.615628
vt 0.040094 0.518633
vn 0 0 1

v -35.0904 -2.087473 3.615628
vt 0.132901 0.518633
vn 0 0 1

v -35.0904 2.087491 3.615628
vt 0.132901 0.352277
vn 0 0 1

v -35.0904 2.087491 3.615628
vt 0.132901 0.352277
vn 0 0 1

v -39.67284 2.087492 3.615628
vt 0.040094 0.352277
vn 0 0 1

v -39.67284 -2.087471 3.615628
vt 0.040094 0.518633
vn 0 0 1

v -39.67284 2.087492 3.615628
vt 0.040094 0.352277
vn 0 0.866025 0.5

v -35.0904 2.087491 3.615628
vt 0.132901 0.352277
vn 0 0.866025 0.5

v -35.0904 4.174971 3E-06
vt 0.132901 0.269098
vn 0 0.866025 0.5

v -35.0904 4.174971 3E-06
vt 0.132901 0.269098
vn 0 0.866025 0.5

v -39.67284 4.174973 3E-06
vt 0.040094 0.269098
vn 0 0.866025 0.5

v -39.67284 2.087492 3.615628
vt 0.040094 0.352277
vn 0 0.866025 0.5

v -35.0904 2.087491 3.615628
vt 0.132901 0.352277
vn 1 0 0

v -35.0904 -2.087473 3.615628
vt 0.132901 0.518633
vn 1 0 0

v -35.0904 -4.174949 3E-06
vt 0.132901 0.601811
vn 1 0 0

v -35.0904 -2.087473 -3.615608
vt 0.132901 0.518633
vn 1 0 0

v -35.0904 2.087491 -3.615608
vt 0.132901 0.352277
vn 1 0 0

v -35.0904 4.174971 3E-06
vt 0.132901 0.269098
vn 1 0 0

# 96 vertice(s).

f 1/1/1 2/2/2 3/3/3
f 2/2/2 4/4/4 5/5/5
f 4/4/4 2/2/2 6/6/6
f 7/7/7 8/8/8 9/9/9
f 10/10/10 11/11/11 12/12/12
f 13/13/13 14/14/14 15/15/15
f 16/16/16 17/17/17 18/18/18
f 19/19/19 20/20/20 21/21/21
f 22/22/22 23/23/23 24/24/24
f 25/25/25 26/26/26 27/27/27
f 28/28/28 29/29/29 30/30/30
f 31/31/31 32/32/32 33/33/33
f 34/34/34 35/35/35 36/36/36
f 37/37/37 38/38/38 39/39/39
f 40/40/40 41/41/41 42/42/42
f 43/43/43 44/44/44 45/45/45
f 43/43/43 46/46/46 44/44/44
f 47/47/47 43/43/43 48/48/48
f 43/43/43 47/47/47 46/46/46
f 6/6/6 2/2/2 1/1/1
f 49/49/49 50/50/50 51/51/51
f 52/52/52 53/53/53 54/54/54
f 51/51/51 55/55/55 56/56/56
f 56/56/56 57/57/57 51/51/51
f 58/58/58 59/59/59 60/60/60
f 61/61/61 62/62/62 63/63/63
f 64/64/64 65/65/65 66/66/66
f 67/67/67 68/68/68 69/69/69
f 70/70/70 71/71/71 72/72/72
f 73/73/73 74/74/74 75/75/75
f 57/57/57 49/49/49 51/51/51
f 76/76/76 77/77/77 78/78/78
f 79/79/79 80/80/80 81/81/81
f 82/82/82 83/83/83 84/84/84
f 85/85/85 86/86/86 87/87/87
f 88/88/88 89/89/89 90/90/90
f 91/91/91 92/92/92 93/93/93
f 91/91/91 93/93/93 94/94/94
f 95/95/95 96/96/96 91/91/91
f 91/91/91 94/94/94 95/95/95
# 120 indices; 40 primitives.

# 1 primitive groups.

# 1 parts.

