mtllib lefttopdoorflap00.mtl

g 0sca41
usemtl 0sca41

v -58.7 -21.90256 -1.51758
vt 0.00495 0.995049
vn -0.834164 -0.000256 0.551516

v -56.7 0 1.517584
vt 0.021818 0.00495
vn -0.834164 -0.000256 0.551516

v -58.7 -2.174282 -1.51758
vt 0.00495 0.206566
vn -0.835015 0 0.550227

v -58.7 -21.90256 -1.51758
vt 0.00495 0.995049
vn 0 0 -1

v 58.7 -2.174318 -1.51758
vt 0.995049 0.206566
vn 0 0 -1

v 58.7 -21.9026 -1.51758
vt 0.995049 0.995049
vn 0 0 -1

v 58.7 -21.9026 -1.51758
vt 0.995049 0.995049
vn 0 -1 0.000198

v -56.7 -21.90196 1.49728
vt 0.021818 0.994996
vn 0 -1 0.000198

v -58.7 -21.90256 -1.51758
vt 0.00495 0.995049
vn 0 -1 0.000198

v -56.7 -21.90196 1.49728
vt 0.021818 0.994996
vn 0 -1 0.000198

v 58.7 -21.9026 -1.51758
vt 0.995049 0.995049
vn 0 -1 0.000198

v 56.7 -21.902 1.49728
vt 0.978183 0.994996
vn 0 -1 0.000198

v 56.7 -4E-05 1.517584
vt 0.978183 0.00495
vn 0.834164 -0.000257 0.551516

v 58.7 -21.9026 -1.51758
vt 0.995049 0.995049
vn 0.834164 -0.000257 0.551516

v 58.7 -2.174318 -1.51758
vt 0.995049 0.206566
vn 0.835015 0 0.550227

v 58.7 -21.9026 -1.51758
vt 0.995049 0.995049
vn 0.834164 -0.000257 0.551516

v 56.7 -4E-05 1.517584
vt 0.978183 0.00495
vn 0.834164 -0.000257 0.551516

v 56.7 -21.902 1.49728
vt 0.978183 0.994996
vn 0.833312 -0.000513 0.552803

v 58.7 -2.174318 -1.51758
vt 0.995049 0.206566
vn 0 0 -1

v -58.7 -21.90256 -1.51758
vt 0.00495 0.995049
vn 0 0 -1

v -58.7 -2.174282 -1.51758
vt 0.00495 0.206566
vn 0 0 -1

v -58.7 -21.90256 -1.51758
vt 0.00495 0.995049
vn -0.834164 -0.000256 0.551516

v -56.7 -21.90196 1.49728
vt 0.021818 0.994996
vn -0.833312 -0.000512 0.552803

v -56.7 0 1.517584
vt 0.021818 0.00495
vn -0.834164 -0.000256 0.551516

v -56.7 -21.90196 1.49728
vt 0.021818 0.994996
vn 0 -0.000927 1

v 56.7 -4E-05 1.517584
vt 0.978183 0.00495
vn 0 -0.000927 1

v -56.7 0 1.517584
vt 0.021818 0.00495
vn 0 -0.000927 1

v 56.7 -4E-05 1.517584
vt 0.978183 0.00495
vn 0 -0.000927 1

v -56.7 -21.90196 1.49728
vt 0.021818 0.994996
vn 0 -0.000927 1

v 56.7 -21.902 1.49728
vt 0.978183 0.994996
vn 0 -0.000927 1

v -58.7 -2.174282 -1.51758
vt 0.00495 0.206566
vn 0 0.812932 -0.582359

v 56.7 -4E-05 1.517584
vt 0.978183 0.00495
vn 0 0.812932 -0.582359

v 58.7 -2.174318 -1.51758
vt 0.995049 0.206566
vn 0 0.812932 -0.582359

v -58.7 -2.174282 -1.51758
vt 0.00495 0.206566
vn 0 0.812932 -0.582359

v -56.7 0 1.517584
vt 0.021818 0.00495
vn 0 0.812932 -0.582359

v 56.7 -4E-05 1.517584
vt 0.978183 0.00495
vn 0 0.812932 -0.582359

# 36 vertice(s).

f 1/1/1 2/2/2 3/3/3
f 4/4/4 5/5/5 6/6/6
f 7/7/7 8/8/8 9/9/9
f 10/10/10 11/11/11 12/12/12
f 13/13/13 14/14/14 15/15/15
f 16/16/16 17/17/17 18/18/18
f 19/19/19 20/20/20 21/21/21
f 22/22/22 23/23/23 24/24/24
f 25/25/25 26/26/26 27/27/27
f 28/28/28 29/29/29 30/30/30
f 31/31/31 32/32/32 33/33/33
f 34/34/34 35/35/35 36/36/36
# 36 indices; 12 primitives.

# 1 primitive groups.

# 1 parts.

