mtllib turret2.mtl

g gun_front
usemtl gun_front

v 4.9562 -1.94787 9.11924
vt 1.02608 0.004322
vn 0 -0.777294 0.629137

v -7.393242 -4.202078 6.3342
vt 2.20012 0.103587
vn 0 -0.777294 0.629137

v 7.325479 -4.202083 6.3342
vt 0.799881 0.097294
vn 0 -0.777294 0.629137

v -7.393242 -4.202078 6.3342
vt 1.20012 0.103587
vn 0 -0.777294 0.629137

v 4.9562 -1.94787 9.11924
vt 0.026078 0.004322
vn 0 -0.777294 0.629137

v -5.03192 -1.947866 9.11924
vt 0.976277 0.008592
vn 0 -0.777294 0.629137

v 5.173882 4.202079 3.078088
vt 0.995049 0.004951
vn 0 0.700769 0.713389

v -5.03192 -1.947866 9.11924
vt 0.027843 0.995049
vn 0 0.700769 0.713389

v 4.9562 -1.94787 9.11924
vt 0.974419 0.995049
vn 0 0.700769 0.713389

v -5.03192 -1.947866 9.11924
vt 0.027843 0.995049
vn 0 0.700769 0.713389

v 5.173882 4.202079 3.078088
vt 0.995049 0.004951
vn 0 0.700769 0.713389

v -5.273479 4.202082 3.078088
vt 0.00495 0.004951
vn 0 0.700769 0.713389

# 12 vertice(s).

f 1/1/1 2/2/2 3/3/3
f 4/4/4 5/5/5 6/6/6
f 7/7/7 8/8/8 9/9/9
f 10/10/10 11/11/11 12/12/12
# 12 indices; 4 primitives.

# 1 primitive groups.

g gun_back
usemtl gun_back

v -6.237599 4.202082 -4.88408
vt 0.147544 0.004951
vn 0 0.450023 -0.893017

v 8.761119 -4.202083 -9.11924
vt 0.995049 0.99505
vn 0 0.450023 -0.893017

v -8.761122 -4.202077 -9.11924
vt 0.00495 0.99505
vn 0 0.450023 -0.893017

v 8.761119 -4.202083 -9.11924
vt 0.995049 0.99505
vn 0 0.450023 -0.893017

v -6.237599 4.202082 -4.88408
vt 0.147544 0.004951
vn 0 0.450023 -0.893017

v 6.199721 4.202078 -4.88408
vt 0.850317 0.004951
vn 0 0.450023 -0.893017

# 6 vertice(s).

f 13/13/13 14/14/14 15/15/15
f 16/16/16 17/17/17 18/18/18
# 6 indices; 2 primitives.

# 1 primitive groups.

g gun_top
usemtl gun_top

v -5.273479 4.202082 3.078088
vt 0.369981 0.154925
vn 0 1 0

v 5.173882 4.202079 3.078088
vt 0.369981 0.912892
vn 0 1 0

v -6.237599 4.202082 -4.88408
vt 0.802559 0.084977
vn 0 1 0

v 5.173882 4.202079 3.078088
vt 0.369981 0.912892
vn 0 1 0

v 6.199721 4.202078 -4.88408
vt 0.802559 0.987319
vn 0 1 0

v -6.237599 4.202082 -4.88408
vt 0.802559 0.084977
vn 0 1 0

# 6 vertice(s).

f 19/19/19 20/20/20 21/21/21
f 22/22/22 23/23/23 24/24/24
# 6 indices; 2 primitives.

# 1 primitive groups.

g gun_sides
usemtl gun_sides

v 5.173882 4.202079 3.078088
vt 0.332902 0.004951
vn 0.931091 0.298218 0.210086

v 4.9562 -1.94787 9.11924
vt 0.004951 0.72948
vn 0.833702 0.371675 0.408411

v 7.325479 -4.202083 6.3342
vt 0.156141 0.99505
vn 0.909308 0.330671 0.252619

v 8.761119 -4.202083 -9.11924
vt 0.995049 0.99505
vn 0.960932 0.255427 0.106619

v 5.173882 4.202079 3.078088
vt 0.332902 0.004951
vn 0.931091 0.298218 0.210086

v 7.325479 -4.202083 6.3342
vt 0.156141 0.99505
vn 0.909308 0.330671 0.252619

v 8.761119 -4.202083 -9.11924
vt 0.995049 0.99505
vn 0.960932 0.255427 0.106619

v 6.199721 4.202078 -4.88408
vt 0.765139 0.004951
vn 0.964877 0.231427 0.124315

v 5.173882 4.202079 3.078088
vt 0.332902 0.004951
vn 0.931091 0.298218 0.210086

v -7.393242 -4.202078 6.3342
vt 0.156141 0.99505
vn -0.911075 0.327038 0.250976

v -5.03192 -1.947866 9.11924
vt 0.004951 0.72948
vn -0.834617 0.368973 0.40899

v -5.273479 4.202082 3.078088
vt 0.332902 0.004951
vn -0.932692 0.295702 0.206509

v -5.273479 4.202082 3.078088
vt 0.332902 0.004951
vn -0.932692 0.295702 0.206509

v -8.761122 -4.202077 -9.11924
vt 0.995049 0.99505
vn -0.962225 0.252864 0.100908

v -7.393242 -4.202078 6.3342
vt 0.156141 0.99505
vn -0.911075 0.327038 0.250976

v -8.761122 -4.202077 -9.11924
vt 0.995049 0.99505
vn -0.962225 0.252864 0.100908

v -5.273479 4.202082 3.078088
vt 0.332902 0.004951
vn -0.932692 0.295702 0.206509

v -6.237599 4.202082 -4.88408
vt 0.765139 0.004951
vn -0.965877 0.23109 0.116955

# 18 vertice(s).

f 25/25/25 26/26/26 27/27/27
f 28/28/28 29/29/29 30/30/30
f 31/31/31 32/32/32 33/33/33
f 34/34/34 35/35/35 36/36/36
f 37/37/37 38/38/38 39/39/39
f 40/40/40 41/41/41 42/42/42
# 18 indices; 6 primitives.

# 1 primitive groups.

# 4 parts.

