mtllib leftwing2.mtl

g SHV_wing_top
usemtl SHV_wing_top

v 4.111723 9.532206 40.01489
vt 0.995049 0.577523
vn -0.0465 0.994708 -0.091612

v -16.3659 7.252959 32.76093
vt 0.361805 0.51215
vn -0.083468 0.990505 -0.10924

v -12.00085 7.14216 68.38042
vt 0.496788 0.833158
vn -0.206409 0.978235 0.021242

v -16.3659 7.252959 32.76093
vt 0.361805 0.51215
vn -0.083468 0.990505 -0.10924

v 4.111723 9.532206 40.01489
vt 0.995049 0.577523
vn -0.0465 0.994708 -0.091612

v -0.04125 2.622968 -0.017873
vt 0.860998 0.218144
vn -0.007566 0.983851 -0.17883

v -23.81353 -0.908228 -13.60798
vt 0.131496 0.094263
vn -0.042788 0.982648 -0.180479

v -0.04125 2.622968 -0.017873
vt 0.860998 0.218144
vn -0.007566 0.983851 -0.17883

v -8.698353 -2.926191 -23.51839
vt 0.598915 0.00495
vn -0.016728 0.97446 -0.223936

v -27.90573 1.846111 8.386095
vt 0.00495 0.292479
vn -0.075046 0.984614 -0.157809

v -0.04125 2.622968 -0.017873
vt 0.860998 0.218144
vn -0.007566 0.983851 -0.17883

v -23.81353 -0.908228 -13.60798
vt 0.131496 0.094263
vn -0.042788 0.982648 -0.180479

v -16.3659 7.252959 32.76093
vt 0.361805 0.51215
vn -0.083468 0.990505 -0.10924

v -0.04125 2.622968 -0.017873
vt 0.860998 0.218144
vn -0.007566 0.983851 -0.17883

v -27.90573 1.846111 8.386095
vt 0.00495 0.292479
vn -0.075046 0.984614 -0.157809

v 4.111739 10.88817 86.34401
vt 0.995049 0.995049
vn -0.250759 0.967774 0.023108

v -12.00085 7.14216 68.38042
vt 0.496788 0.833158
vn -0.206409 0.978235 0.021242

v -3.588066 8.641442 83.55921
vt 0.756943 0.969952
vn -0.304149 0.949686 0.074769

v -0.04125 2.622968 -0.017873
vt 0.860998 0.218144
vn -0.007566 0.983851 -0.17883

v 4.111723 9.532206 40.01489
vt 0.995049 0.577523
vn -0.0465 0.994708 -0.091612

v 4.111712 2.889441 5.411565
vt 0.995049 0.265673
vn 0.180448 0.965947 -0.185432

v 4.111723 9.532206 40.01489
vt 0.995049 0.577523
vn -0.0465 0.994708 -0.091612

v -12.00085 7.14216 68.38042
vt 0.496788 0.833158
vn -0.206409 0.978235 0.021242

v 4.111739 10.88817 86.34401
vt 0.995049 0.995049
vn -0.250759 0.967774 0.023108

v 4.111723 9.532206 40.01489
vt 0.963812 0.577519
vn 1 0 0

v 4.111739 10.88817 86.34401
vt 0.948302 0.995043
vn 1 0 0

v 4.111739 9.743166 86.34481
vt 0.962175 0.99505
vn 1 0 0

v 4.111712 2.889441 5.411565
vt 0.898112 0.26567
vn 1 0 0

v 4.111723 9.532206 40.01489
vt 0.963812 0.577519
vn 1 0 0

v 4.111723 5.814325 40.01565
vt 0.983377 0.577526
vn 1 0 0

v 4.111723 5.814325 40.01565
vt 0.983377 0.577526
vn 1 0 0

v 4.111712 -4.055555 5.412286
vt 0.985945 0.265677
vn 1 0 0

v 4.111712 2.889441 5.411565
vt 0.898112 0.26567
vn 1 0 0

v -0.04125 2.622968 -0.017873
vt 0.908808 0.21674
vn 0.850812 2E-05 -0.52547

v 4.111712 2.889441 5.411565
vt 0.898112 0.26567
vn 0.794287 -6.5E-05 -0.607543

v 4.111712 -4.055555 5.412286
vt 0.985945 0.265677
vn 0.794318 -1.2E-05 -0.607502

v 4.111712 -4.055555 5.412286
vt 0.985945 0.265677
vn 0.794318 -1.2E-05 -0.607502

v -0.04025 -5.322036 -0.017114
vt 0.979129 0.216746
vn 0.87618 6.3E-05 -0.481983

v -0.04125 2.622968 -0.017873
vt 0.908808 0.21674
vn 0.850812 2E-05 -0.52547

v 4.111739 9.743166 86.34481
vt 0.962175 0.99505
vn 1 0 0

v 4.111723 5.814325 40.01565
vt 0.983377 0.577526
vn 1 0 0

v 4.111723 9.532206 40.01489
vt 0.963812 0.577519
vn 1 0 0

v -0.04125 2.622968 -0.017873
vt 0.908808 0.21674
vn 0.850812 2E-05 -0.52547

v -0.04025 -5.322036 -0.017114
vt 0.979129 0.216746
vn 0.87618 6.3E-05 -0.481983

v -8.698353 -2.926191 -23.51839
vt 0.573591 0.004951
vn 0.938349 8.3E-05 -0.345688

v -3.588066 8.641442 83.55921
vt 0.535608 0.964597
vn -0.340259 0.00044 0.940332

v -3.587105 7.271043 83.56001
vt 0.529707 0.983134
vn -0.340237 0.000269 0.94034

v 4.111739 9.743166 86.34481
vt 0.98835 0.983988
vn -0.340259 0.00044 0.940332

v -3.588066 8.641442 83.55921
vt 0.535608 0.964597
vn -0.340259 0.00044 0.940332

v 4.111739 9.743166 86.34481
vt 0.98835 0.983988
vn -0.340259 0.00044 0.940332

v 4.111739 10.88817 86.34401
vt 0.994125 0.963553
vn -0.34028 0.000611 0.940324

# 51 vertice(s).

f 1/1/1 2/2/2 3/3/3
f 4/4/4 5/5/5 6/6/6
f 7/7/7 8/8/8 9/9/9
f 10/10/10 11/11/11 12/12/12
f 13/13/13 14/14/14 15/15/15
f 16/16/16 17/17/17 18/18/18
f 19/19/19 20/20/20 21/21/21
f 22/22/22 23/23/23 24/24/24
f 25/25/25 26/26/26 27/27/27
f 28/28/28 29/29/29 30/30/30
f 31/31/31 32/32/32 33/33/33
f 34/34/34 35/35/35 36/36/36
f 37/37/37 38/38/38 39/39/39
f 40/40/40 41/41/41 42/42/42
f 43/43/43 44/44/44 45/45/45
f 46/46/46 47/47/47 48/48/48
f 49/49/49 50/50/50 51/51/51
# 51 indices; 17 primitives.

# 1 primitive groups.

g SHV_wing_side
usemtl SHV_wing_side

v -21.66996 -10.88816 33.37524
vt 0.017347 0.520156
vn -0.943978 0.170815 0.28236

v -12.00085 7.14216 68.38042
vt 3.50238 0.831962
vn -0.934037 0.033824 0.35557

v -16.3659 7.252959 32.76093
vt 3.49935 0.519506
vn -0.929183 0.279848 0.241464

v -27.90573 1.846111 8.386095
vt 2.46418 0.271137
vn -0.959643 0.224598 0.169234

v -29.01533 -3.780233 8.614296
vt 1.36123 0.273462
vn -0.978412 0.195659 0.066543

v -21.66996 -10.88816 33.37524
vt 0.017347 0.520156
vn -0.943978 0.170815 0.28236

v -27.90573 1.846111 8.386095
vt 2.46418 0.271137
vn -0.959643 0.224598 0.169234

v -21.66996 -10.88816 33.37524
vt 0.017347 0.520156
vn -0.943978 0.170815 0.28236

v -16.3659 7.252959 32.76093
vt 3.49935 0.519506
vn -0.929183 0.279848 0.241464

v -12.00085 7.14216 68.38042
vt 0.50238 0.831962
vn -0.934037 0.033824 0.35557

v -11.84056 5.19716 68.38118
vt 0.121097 0.831969
vn -0.915479 -0.075298 0.395257

v -3.587105 7.271043 83.56001
vt 0.527644 0.986634
vn -0.873931 -0.036047 0.484712

v -12.00085 7.14216 68.38042
vt 0.50238 0.831962
vn -0.934037 0.033824 0.35557

v -3.587105 7.271043 83.56001
vt 0.527644 0.986634
vn -0.873931 -0.036047 0.484712

v -3.588066 8.641442 83.55921
vt 0.796294 0.986627
vn -0.874627 -0.000359 0.484796

v -12.00085 7.14216 68.38042
vt 3.50238 0.831962
vn -0.934037 0.033824 0.35557

v -21.66996 -10.88816 33.37524
vt 0.017347 0.520156
vn -0.943978 0.170815 0.28236

v -11.84056 5.19716 68.38118
vt 3.1211 0.831969
vn -0.915479 -0.075298 0.395257

v -27.90573 1.846111 8.386095
vt 1.46418 0.271137
vn -0.959643 0.224598 0.169234

v -23.81353 -0.908228 -13.60798
vt 0.924238 0.107335
vn -0.962436 0.181624 -0.201814

v -29.01533 -3.780233 8.614296
vt 0.361231 0.273462
vn -0.978412 0.195659 0.066543

v -15.57069 0.863303 16.24641
vt 0.554124 0.363315
vn 0.169868 -0.979802 0.10551

v -0.04025 -5.322036 -0.017114
vt 2.63029 0.216746
vn -0.069384 -0.984805 0.159202

v 4.111723 5.814325 40.01565
vt 3.18533 0.577526
vn 0.086282 -0.984276 0.154133

v -0.04025 -5.322036 -0.017114
vt 3.63029 0.216746
vn -0.069384 -0.984805 0.159202

v -23.81353 -0.908228 -13.60798
vt 0.452192 0.094263
vn -0.128334 -0.987066 -0.09608

v -8.698353 -2.926191 -23.51839
vt 2.47284 0.004951
vn -0.159168 -0.986361 -0.041916

v 4.111723 5.814325 40.01565
vt 3.18533 0.577526
vn 0.086282 -0.984276 0.154133

v -0.04025 -5.322036 -0.017114
vt 2.63029 0.216746
vn -0.069384 -0.984805 0.159202

v 4.111712 -4.055555 5.412286
vt 3.18533 0.265677
vn -0.065212 -0.9596 0.273706

v -29.01533 -3.780233 8.614296
vt 0.756799 0.294533
vn -0.010978 -0.99009 0.140003

v -0.04025 -5.322036 -0.017114
vt 4.63029 0.216746
vn -0.069384 -0.984805 0.159202

v -15.57069 0.863303 16.24641
vt 2.55412 0.363315
vn 0.169868 -0.979802 0.10551

v -15.57069 0.863303 16.24641
vt 2.55412 0.363315
vn 0.169868 -0.979802 0.10551

v -21.66996 -10.88816 33.37524
vt 1.73875 0.517682
vn 0.48431 -0.79229 -0.371107

v -29.01533 -3.780233 8.614296
vt 0.756799 0.294533
vn 0.48431 -0.79229 -0.371107

v -15.57069 0.863303 16.24641
vt 1.55412 0.363315
vn 0.873798 -0.485785 -0.022136

v -11.84056 5.19716 68.38118
vt 2.05278 0.833159
vn 0.873798 -0.485785 -0.022136

v -21.66996 -10.88816 33.37524
vt 0.738754 0.517682
vn 0.873798 -0.485785 -0.022136

v 4.111723 5.814325 40.01565
vt 3.18533 0.577526
vn 0.086282 -0.984276 0.154133

v 4.111739 9.743166 86.34481
vt 3.18533 0.995049
vn 0.277983 -0.95715 0.081169

v -3.587105 7.271043 83.56001
vt 2.15613 0.969952
vn 0.210274 -0.975147 0.069799

v -23.81353 -0.908228 -13.60798
vt 1.45219 0.094263
vn -0.128334 -0.987066 -0.09608

v -0.04025 -5.322036 -0.017114
vt 4.63029 0.216746
vn -0.069384 -0.984805 0.159202

v -29.01533 -3.780233 8.614296
vt 0.756799 0.294533
vn -0.010978 -0.99009 0.140003

v -15.57069 0.863303 16.24641
vt 0.554124 0.363315
vn 0.169868 -0.979802 0.10551

v 4.111723 5.814325 40.01565
vt 3.18533 0.577526
vn 0.086282 -0.984276 0.154133

v -11.84056 5.19716 68.38118
vt 1.05278 0.833159
vn 0.15218 -0.98627 0.064124

v -11.84056 5.19716 68.38118
vt 1.05278 0.833159
vn 0.15218 -0.98627 0.064124

v 4.111723 5.814325 40.01565
vt 3.18533 0.577526
vn 0.086282 -0.984276 0.154133

v -3.587105 7.271043 83.56001
vt 2.15613 0.969952
vn 0.210274 -0.975147 0.069799

# 51 vertice(s).

f 52/52/52 53/53/53 54/54/54
f 55/55/55 56/56/56 57/57/57
f 58/58/58 59/59/59 60/60/60
f 61/61/61 62/62/62 63/63/63
f 64/64/64 65/65/65 66/66/66
f 67/67/67 68/68/68 69/69/69
f 70/70/70 71/71/71 72/72/72
f 73/73/73 74/74/74 75/75/75
f 76/76/76 77/77/77 78/78/78
f 79/79/79 80/80/80 81/81/81
f 82/82/82 83/83/83 84/84/84
f 85/85/85 86/86/86 87/87/87
f 88/88/88 89/89/89 90/90/90
f 91/91/91 92/92/92 93/93/93
f 94/94/94 95/95/95 96/96/96
f 97/97/97 98/98/98 99/99/99
f 100/100/100 101/101/101 102/102/102
# 51 indices; 17 primitives.

# 1 primitive groups.

# 2 parts.

