# Wavefront Object File.
# Created by Cold Fusion HOD Editor v3.2.0
# Date: 05-31-2012; Time: 19:01:11
# 

# Mesh Part #1
g Part1
usemtl Material_0

v -38.53161 9.444111 16.87549
vn -0.8721552 0.3365701 0.3550577
vt 0.1160714 0.8285714

v -41.11408 -1.551437E-02 14.28891
vn -0.9931623 5.664067E-08 0.1167414
vt 0.4642857 0.9142857

v -38.20388 -1.551437E-02 20.289
vn -0.8597043 9.287631E-08 0.5107921
vt 0.2752105 0.843531

v -38.53161 -9.475132 16.87549
vn -0.8721553 -0.3365701 0.3550573
vt 0.3785715 0.8285714

v -39.27512 -10.62307 5.704926
vn -0.8565505 -0.3545343 -0.3750022
vt 0.4906468 0.8236198

v -39.53294 -1.551056E-02 6.027039
vn -0.8413395 1.063973E-07 -0.5405072
vt 0.6223905 0.8169905

v -39.27511 10.59208 5.704926
vn -0.8565503 0.3545348 -0.3750022
vt 0.7325886 0.8236198

v -38.53161 9.444111 16.87549
vn -0.8721552 0.3365701 0.3550577
vt 0.8285715 0.8285714

v -32.08264 16.64724 18.8978
vn -0.5908644 0.7102399 0.382673
vt 0 0.725

v -35.54267 7.419315 22.729
vn -0.7465978 0.242662 0.6194409
vt 0.075 0.8

v -30.0297 11.59673 25.54608
vn -0.5091379 0.4452262 0.7365814
vt 5.769629E-02 0.7241142

v -27.71453 -1.551437E-02 30.57306
vn -0.4686449 7.828633E-09 0.8833867
vt 0.15 0.7218328

v -33.95888 -1.551437E-02 26.00864
vn -0.7054226 1.491943E-07 0.708787
vt 0.15 0.8

v -35.54267 -7.45034 22.729
vn -0.7465979 -0.242662 0.6194408
vt 0.25 0.8

v -30.02971 -11.62775 25.54608
vn -0.509138 -0.4452263 0.7365813
vt 0.2666366 0.7241142

v -32.08264 -16.67826 18.8978
vn -0.5908646 -0.7102399 0.3826727
vt 0.35 0.725

v -33.08158 -17.61469 11.21506
vn -0.5804049 -0.8138712 -2.727601E-02
vt 0.4314449 0.723274

v -33.49429 -15.83371 4.89328
vn -0.5045099 -0.5894424 -0.6308941
vt 0.5125 0.725

v -33.65033 -1.551056E-02 1.846436
vn -0.3957742 1.907142E-08 -0.9183478
vt 0.6092467 0.723847

v -33.65033 -1.551056E-02 1.846436
vn -0.3957742 1.907142E-08 -0.9183478
vt 0.7315067 0.7204435

v -33.49429 15.80269 4.89328
vn -0.5045093 0.5894429 -0.6308942
vt 0.7875001 0.725

v -33.08158 17.58367 11.21506
vn -0.5804044 0.8138715 -2.727579E-02
vt 0.8685551 0.723274

v -22.59837 20.69276 19.93951
vn -0.2933002 0.87696 0.3806784
vt 0 0.625

v -20.47677 15.39259 27.7269
vn -0.2572494 0.5620518 0.7860792
vt 5.013023E-02 0.6235716

v -18.52087 -1.551247E-02 33.71756
vn -0.2302662 -1.589765E-08 0.9731278
vt 0.2 0.625

v -20.47677 -15.42362 27.7269
vn -0.2572494 -0.5620519 0.7860791
vt 0.2748047 0.6235716

v -22.59837 -20.72378 19.93951
vn -0.2933004 -0.87696 0.3806784
vt 0.35 0.625

v -23.71372 -21.73036 10.93253
vn -0.2897509 -0.954566 -6.963006E-02
vt 0.4248074 0.6235077

v -24.3859 -19.30121 3.451172
vn -0.2964347 -0.7242302 -0.622589
vt 0.5 0.625

v -24.40442 -14.55909 0.2358398
vn -0.2186314 -0.2352791 -0.9470185
vt 0.5495406 0.6225463

v -24.68509 -1.551056E-02 -0.581604
vn -0.1638548 1.406259E-08 -0.9864845
vt 0.7 0.625

v -24.40442 14.52807 0.2358398
vn -0.2186314 0.2352791 -0.9470185
vt 0.7504594 0.6225463

v -24.3859 19.2702 3.451172
vn -0.2964347 0.7242303 -0.6225889
vt 0.8000001 0.625

v -23.71372 21.69934 10.93253
vn -0.2897509 0.9545659 -6.962997E-02
vt 0.8751926 0.6235077

v -10.3802 22.96177 20.21332
vn -0.1177261 0.9268265 0.3565575
vt 0 0.55

v -9.217485 17.40051 28.2998
vn -9.764578E-02 0.6063559 0.7891754
vt 4.735873E-02 0.5489794

v -8.087255 -1.551247E-02 35.04584
vn -8.314317E-02 2.390354E-08 0.9965376
vt 0.15 0.5494387

v -9.217484 -17.43154 28.2998
vn -9.764573E-02 -0.6063561 0.7891754
vt 0.2789619 0.5489794

v -10.3802 -22.99279 20.21332
vn -0.117726 -0.9268266 0.3565575
vt 0.35 0.55

v -10.98846 -23.95569 10.52759
vn -0.1176605 -0.9874839 -0.1050316
vt 0.426259 0.5492829

v -11.39568 -21.22006 2.679932
vn -9.813278E-02 -0.7763831 -0.6225749
vt 0.5 0.55

v -11.33937 -15.67763 -0.5897522
vn -5.822027E-02 -0.293835 -0.9540815
vt 0.5498729 0.5487777

v -11.41187 -1.551056E-02 -1.402252
vn -3.950671E-02 2.798746E-09 -0.9992193
vt 0.65 0.5495261

v -11.33937 15.64661 -0.5897522
vn -5.822023E-02 0.293835 -0.9540815
vt 0.7501271 0.5487777

v -11.39568 21.18904 2.679932
vn -0.0981327 0.776383 -0.6225747
vt 0.8000001 0.55

v -10.98846 23.92466 10.52759
vn -0.1176605 0.9874839 -0.1050315
vt 0.873741 0.549283

v -32.08264 16.64724 18.8978
vn -0.5908644 0.7102399 0.382673
vt 0.9500001 0.725

v -18.52087 -1.551247E-02 33.71756
vn -0.2302662 -1.589765E-08 0.9731278
vt 0.125 0.6243627

v -24.68509 -1.551056E-02 -0.581604
vn -0.1638548 1.406259E-08 -0.9864845
vt 0.625 0.6254027

v -22.59837 20.69276 19.93951
vn -0.2933002 0.87696 0.3806784
vt 0.9500001 0.625

v 0.1564359 -1.551294E-02 35.33893
vn 4.48752E-08 1.595563E-08 1
vt 0.15 0.5

v 0.156436 17.66244 28.69193
vn -5.362862E-08 0.6133794 0.7897884
vt 0.05 0.5

v 0.156435 23.57974 20.36542
vn -7.13195E-08 0.9361361 0.3516378
vt 0 0.5

v 0.156435 -23.61077 20.36542
vn 9.637771E-09 -0.9361362 0.3516377
vt 0.35 0.5

v 0.156436 -17.69347 28.69193
vn 4.680316E-08 -0.6133795 0.7897884
vt 0.275 0.5

v 0.156435 -21.84372 2.565063
vn 2.782205E-08 -0.7717721 -0.6358993
vt 0.5 0.5

v 0.156435 -24.6666 10.57138
vn 3.82444E-08 -0.9933529 -0.1151087
vt 0.425 0.5

v 0.1564359 -1.551151E-02 -1.551239
vn 1.165779E-09 -9.326229E-10 -1
vt 0.65 0.5

v 0.1564369 -16.12056 -0.7481079
vn 6.71208E-09 -0.2856695 -0.9583282
vt 0.55 0.5

v 0.156435 21.8127 2.565063
vn -4.372036E-08 0.7717721 -0.6358992
vt 0.8000001 0.5

v 0.1564369 16.08954 -0.7481079
vn -1.174614E-08 0.2856695 -0.9583282
vt 0.7500001 0.5

v -10.3802 22.96177 20.21332
vn -0.1177261 0.9268265 0.3565575
vt 0.9500001 0.55

v 0.156435 23.57974 20.36542
vn -7.13195E-08 0.9361361 0.3516378
vt 0.9500001 0.5

v 0.156435 24.63558 10.57138
vn -5.545438E-08 0.9933529 -0.1151088
vt 0.8750001 0.5

v 38.84449 9.444109 16.87549
vn 0.8721552 0.33657 0.3550577
vt 0.1160714 0.8285714

v 38.51675 -1.551437E-02 20.289
vn 0.8597042 -2.51017E-08 0.5107922
vt 0.2752105 0.843531

v 41.42696 -1.551056E-02 14.28891
vn 0.9931624 9.765633E-08 0.1167412
vt 0.4642857 0.9142857

v 38.84449 -9.475132 16.87549
vn 0.8721553 -0.3365701 0.3550574
vt 0.3785715 0.8285714

v 39.58799 -10.62307 5.704926
vn 0.8565505 -0.3545342 -0.3750025
vt 0.4906468 0.8236198

v 39.84582 -1.551056E-02 6.027039
vn 0.8413393 2.790419E-07 -0.5405073
vt 0.6223905 0.8169905

v 39.58798 10.59208 5.704926
vn 0.8565502 0.3545348 -0.3750025
vt 0.7325886 0.8236198

v 38.84449 9.444109 16.87549
vn 0.8721552 0.33657 0.3550577
vt 0.8285715 0.8285714

v 32.39551 16.64724 18.8978
vn 0.5908643 0.7102399 0.382673
vt 0 0.725

v 30.34257 11.59673 25.54608
vn 0.5091379 0.4452262 0.7365815
vt 5.769629E-02 0.7241142

v 35.85555 7.419315 22.729
vn 0.7465977 0.2426619 0.6194409
vt 0.075 0.8

v 28.02741 -1.551056E-02 30.57306
vn 0.4686448 7.045769E-08 0.8833867
vt 0.15 0.7218328

v 30.34258 -11.62775 25.54608
vn 0.509138 -0.4452263 0.7365814
vt 0.2666366 0.7241142

v 35.85555 -7.45034 22.729
vn 0.7465978 -0.242662 0.6194409
vt 0.25 0.8

v 34.27176 -1.551437E-02 26.00864
vn 0.7054225 5.355692E-08 0.708787
vt 0.15 0.8

v 32.39551 -16.67826 18.8978
vn 0.5908645 -0.7102399 0.3826727
vt 0.35 0.725

v 33.39445 -17.61469 11.21506
vn 0.5804049 -0.8138711 -2.727608E-02
vt 0.4314449 0.723274

v 33.80716 -15.83371 4.89328
vn 0.5045099 -0.5894423 -0.6308942
vt 0.5125 0.725

v 33.9632 -1.551056E-02 1.846436
vn 0.3957742 3.432855E-08 -0.9183479
vt 0.65 0.7227125

v 33.80717 15.80269 4.89328
vn 0.5045092 0.5894426 -0.6308945
vt 0.7875001 0.725

v 33.39446 17.58367 11.21506
vn 0.5804043 0.8138716 -2.727606E-02
vt 0.8685551 0.723274

v 22.91124 20.69276 19.93951
vn 0.2933002 0.87696 0.3806785
vt 0 0.625

v 20.78964 15.3926 27.7269
vn 0.2572495 0.5620518 0.7860793
vt 5.013023E-02 0.6235716

v 18.83375 -1.551247E-02 33.71756
vn 0.2302662 1.589765E-08 0.9731277
vt 0.15 0.6245751

v 20.78964 -15.42362 27.7269
vn 0.2572496 -0.562052 0.7860792
vt 0.2748047 0.6235716

v 22.91124 -20.72379 19.93951
vn 0.2933004 -0.87696 0.3806784
vt 0.35 0.625

v 24.02659 -21.73036 10.93253
vn 0.289751 -0.954566 -6.963001E-02
vt 0.4248074 0.6235077

v 24.69877 -19.30122 3.451172
vn 0.2964346 -0.7242302 -0.622589
vt 0.5 0.625

v 24.71729 -14.55909 0.2358398
vn 0.2186315 -0.2352791 -0.9470185
vt 0.5495406 0.6225463

v 24.99797 -1.551056E-02 -0.581604
vn 0.1638549 -9.375061E-10 -0.9864845
vt 0.65 0.6252685

v 24.71729 14.52807 0.2358398
vn 0.2186315 0.2352791 -0.9470185
vt 0.7504594 0.6225463

v 24.69877 19.27019 3.451172
vn 0.2964346 0.7242303 -0.6225891
vt 0.8000001 0.625

v 24.02659 21.69934 10.93253
vn 0.2897508 0.9545661 -0.06963
vt 0.8751926 0.6235077

v 10.69307 22.96177 20.21332
vn 0.117726 0.9268265 0.3565574
vt 0 0.55

v 9.530357 17.40052 28.2998
vn 9.764572E-02 0.606356 0.7891754
vt 4.735873E-02 0.5489794

v 8.400127 -1.551318E-02 35.04584
vn 8.314328E-02 1.593569E-08 0.9965376
vt 0.15 0.5494387

v 9.530358 -17.43154 28.2998
vn 0.0976458 -0.6063561 0.7891754
vt 0.2789619 0.5489794

v 10.69307 -22.99279 20.21332
vn 0.1177259 -0.9268267 0.3565573
vt 0.35 0.55

v 11.30133 -23.95568 10.52759
vn 0.1176604 -0.9874839 -0.1050316
vt 0.426259 0.5492829

v 11.70855 -21.22006 2.679932
vn 9.813272E-02 -0.776383 -0.6225747
vt 0.5 0.55

v 11.65225 -15.67763 -0.5897522
vn 5.822026E-02 -0.293835 -0.9540814
vt 0.5498729 0.5487777

v 11.72475 -1.551151E-02 -1.402252
vn 0.0395067 -4.664577E-09 -0.9992193
vt 0.65 0.5495261

v 11.65225 15.64661 -0.5897522
vn 5.822024E-02 0.293835 -0.9540814
vt 0.7501271 0.5487777

v 11.70855 21.18904 2.679932
vn 0.0981327 0.776383 -0.6225747
vt 0.8000001 0.55

v 11.30133 23.92466 10.52759
vn 0.1176605 0.9874839 -0.1050315
vt 0.873741 0.549283

v 32.39551 16.64724 18.8978
vn 0.5908643 0.7102399 0.382673
vt 0.9500001 0.725

v 22.91124 20.69276 19.93951
vn 0.2933002 0.87696 0.3806785
vt 0.9500001 0.625

v 10.69307 22.96177 20.21332
vn 0.117726 0.9268265 0.3565574
vt 0.9500001 0.55

v -38.53161 9.444111 16.87549
vn -0.8721552 0.3365701 0.3550577
vt 0.1160714 0.8285714

v -32.08264 16.64724 18.8978
vn -0.5908644 0.7102399 0.382673
vt 0 0.725

v -35.54267 7.419315 22.729
vn -0.7465978 0.242662 0.6194409
vt 0.075 0.8

v 32.39551 16.64724 18.8978
vn 0.5908643 0.7102399 0.382673
vt 0 0.725

v 35.85555 7.419315 22.729
vn 0.7465977 0.2426619 0.6194409
vt 0.075 0.8

v 38.84449 9.444109 16.87549
vn 0.8721552 0.33657 0.3550577
vt 0.1160714 0.8285714

v 0.156436 17.66244 28.69193
vn -5.362862E-08 0.6133794 0.7897884
vt 0.05 0.5

v 0.1564359 -1.551294E-02 35.33893
vn 4.48752E-08 1.595563E-08 1
vt 0.15 0.5

v 0.156435 23.57974 20.36542
vn -7.13195E-08 0.9361361 0.3516378
vt 0 0.5

v 0.156436 -17.69347 28.69193
vn 4.680316E-08 -0.6133795 0.7897884
vt 0.275 0.5

v 0.156435 -23.61077 20.36542
vn 9.637771E-09 -0.9361362 0.3516377
vt 0.35 0.5

v 0.156435 -24.6666 10.57138
vn 3.82444E-08 -0.9933529 -0.1151087
vt 0.425 0.5

v 0.156435 -21.84372 2.565063
vn 2.782205E-08 -0.7717721 -0.6358993
vt 0.5 0.5

v 0.1564369 -16.12056 -0.7481079
vn 6.71208E-09 -0.2856695 -0.9583282
vt 0.55 0.5

v 0.1564359 -1.551151E-02 -1.551239
vn 1.165779E-09 -9.326229E-10 -1
vt 0.65 0.5

v 0.1564369 16.08954 -0.7481079
vn -1.174614E-08 0.2856695 -0.9583282
vt 0.7500001 0.5

v 0.156435 21.8127 2.565063
vn -4.372036E-08 0.7717721 -0.6358992
vt 0.8000001 0.5

v 0.156435 24.63558 10.57138
vn -5.545438E-08 0.9933529 -0.1151088
vt 0.8750001 0.5

v 0.156435 23.57974 20.36542
vn -7.13195E-08 0.9361361 0.3516378
vt 0.9500001 0.5
# 131 vertice(s) in part #1.

f 1/1/1 2/2/2 3/3/3
f 3/3/3 2/2/2 4/4/4
f 4/4/4 2/2/2 5/5/5
f 5/5/5 2/2/2 6/6/6
f 7/7/7 2/2/2 8/8/8
f 9/9/9 113/113/113 10/10/10
f 114/114/114 115/115/115 11/11/11
f 12/12/12 13/13/13 14/14/14
f 12/12/12 14/14/14 15/15/15
f 16/16/16 4/4/4 5/5/5
f 16/16/16 5/5/5 17/17/17
f 18/18/18 5/5/5 19/19/19
f 19/19/19 5/5/5 6/6/6
f 20/20/20 7/7/7 21/21/21
f 21/21/21 7/7/7 22/22/22
f 23/23/23 114/114/114 11/11/11
f 23/23/23 11/11/11 24/24/24
f 25/25/25 12/12/12 15/15/15
f 25/25/25 15/15/15 26/26/26
f 27/27/27 16/16/16 17/17/17
f 27/27/27 17/17/17 28/28/28
f 29/29/29 18/18/18 19/19/19
f 29/29/29 19/19/19 30/30/30
f 31/31/31 20/20/20 32/32/32
f 33/33/33 21/21/21 22/22/22
f 33/33/33 22/22/22 34/34/34
f 35/35/35 23/23/23 24/24/24
f 35/35/35 24/24/24 36/36/36
f 37/37/37 25/25/25 26/26/26
f 37/37/37 26/26/26 38/38/38
f 39/39/39 27/27/27 28/28/28
f 39/39/39 28/28/28 40/40/40
f 41/41/41 29/29/29 30/30/30
f 41/41/41 30/30/30 42/42/42
f 43/43/43 31/31/31 32/32/32
f 43/43/43 32/32/32 44/44/44
f 45/45/45 33/33/33 34/34/34
f 45/45/45 34/34/34 46/46/46
f 3/3/3 13/13/13 115/115/115
f 115/115/115 1/1/1 3/3/3
f 4/4/4 14/14/14 3/3/3
f 14/14/14 13/13/13 3/3/3
f 115/115/115 13/13/13 12/12/12
f 115/115/115 12/12/12 11/11/11
f 14/14/14 4/4/4 16/16/16
f 14/14/14 16/16/16 15/15/15
f 5/5/5 18/18/18 17/17/17
f 6/6/6 7/7/7 20/20/20
f 7/7/7 8/8/8 47/47/47
f 7/7/7 47/47/47 22/22/22
f 11/11/11 12/12/12 48/48/48
f 11/11/11 48/48/48 24/24/24
f 15/15/15 16/16/16 27/27/27
f 15/15/15 27/27/27 26/26/26
f 17/17/17 18/18/18 29/29/29
f 17/17/17 29/29/29 28/28/28
f 19/19/19 49/49/49 30/30/30
f 20/20/20 21/21/21 33/33/33
f 20/20/20 33/33/33 32/32/32
f 22/22/22 47/47/47 50/50/50
f 22/22/22 50/50/50 34/34/34
f 24/24/24 48/48/48 37/37/37
f 24/24/24 37/37/37 36/36/36
f 37/37/37 51/51/51 52/52/52
f 37/37/37 52/52/52 36/36/36
f 52/52/52 53/53/53 35/35/35
f 52/52/52 35/35/35 36/36/36
f 26/26/26 27/27/27 39/39/39
f 26/26/26 39/39/39 38/38/38
f 39/39/39 54/54/54 55/55/55
f 39/39/39 55/55/55 38/38/38
f 55/55/55 51/51/51 37/37/37
f 55/55/55 37/37/37 38/38/38
f 28/28/28 29/29/29 41/41/41
f 28/28/28 41/41/41 40/40/40
f 41/41/41 56/56/56 57/57/57
f 41/41/41 57/57/57 40/40/40
f 57/57/57 54/54/54 39/39/39
f 57/57/57 39/39/39 40/40/40
f 30/30/30 49/49/49 43/43/43
f 30/30/30 43/43/43 42/42/42
f 43/43/43 58/58/58 59/59/59
f 43/43/43 59/59/59 42/42/42
f 59/59/59 56/56/56 41/41/41
f 59/59/59 41/41/41 42/42/42
f 32/32/32 33/33/33 45/45/45
f 32/32/32 45/45/45 44/44/44
f 45/45/45 60/60/60 61/61/61
f 45/45/45 61/61/61 44/44/44
f 61/61/61 58/58/58 43/43/43
f 61/61/61 43/43/43 44/44/44
f 34/34/34 50/50/50 62/62/62
f 34/34/34 62/62/62 46/46/46
f 62/62/62 63/63/63 64/64/64
f 62/62/62 64/64/64 46/46/46
f 64/64/64 60/60/60 45/45/45
f 64/64/64 45/45/45 46/46/46
f 6/6/6 2/2/2 7/7/7
f 65/65/65 66/66/66 67/67/67
f 66/66/66 68/68/68 67/67/67
f 68/68/68 69/69/69 67/67/67
f 69/69/69 70/70/70 67/67/67
f 71/71/71 72/72/72 67/67/67
f 73/73/73 74/74/74 75/75/75
f 116/116/116 117/117/117 118/118/118
f 76/76/76 77/77/77 78/78/78
f 76/76/76 78/78/78 79/79/79
f 80/80/80 81/81/81 69/69/69
f 80/80/80 69/69/69 68/68/68
f 82/82/82 83/83/83 69/69/69
f 83/83/83 70/70/70 69/69/69
f 83/83/83 84/84/84 71/71/71
f 84/84/84 85/85/85 71/71/71
f 86/86/86 87/87/87 74/74/74
f 86/86/86 74/74/74 73/73/73
f 88/88/88 89/89/89 77/77/77
f 88/88/88 77/77/77 76/76/76
f 90/90/90 91/91/91 81/81/81
f 90/90/90 81/81/81 80/80/80
f 92/92/92 93/93/93 83/83/83
f 92/92/92 83/83/83 82/82/82
f 94/94/94 95/95/95 83/83/83
f 96/96/96 97/97/97 85/85/85
f 96/96/96 85/85/85 84/84/84
f 98/98/98 99/99/99 87/87/87
f 98/98/98 87/87/87 86/86/86
f 100/100/100 101/101/101 89/89/89
f 100/100/100 89/89/89 88/88/88
f 102/102/102 103/103/103 91/91/91
f 102/102/102 91/91/91 90/90/90
f 104/104/104 105/105/105 93/93/93
f 104/104/104 93/93/93 92/92/92
f 106/106/106 107/107/107 95/95/95
f 106/106/106 95/95/95 94/94/94
f 108/108/108 109/109/109 97/97/97
f 108/108/108 97/97/97 96/96/96
f 66/66/66 75/75/75 79/79/79
f 75/75/75 66/66/66 65/65/65
f 68/68/68 66/66/66 78/78/78
f 78/78/78 66/66/66 79/79/79
f 75/75/75 74/74/74 76/76/76
f 75/75/75 76/76/76 79/79/79
f 78/78/78 77/77/77 80/80/80
f 78/78/78 80/80/80 68/68/68
f 69/69/69 81/81/81 82/82/82
f 70/70/70 83/83/83 71/71/71
f 71/71/71 85/85/85 110/110/110
f 71/71/71 110/110/110 72/72/72
f 74/74/74 87/87/87 88/88/88
f 74/74/74 88/88/88 76/76/76
f 77/77/77 89/89/89 90/90/90
f 77/77/77 90/90/90 80/80/80
f 81/81/81 91/91/91 92/92/92
f 81/81/81 92/92/92 82/82/82
f 83/83/83 93/93/93 94/94/94
f 83/83/83 95/95/95 96/96/96
f 83/83/83 96/96/96 84/84/84
f 85/85/85 97/97/97 111/111/111
f 85/85/85 111/111/111 110/110/110
f 87/87/87 99/99/99 100/100/100
f 87/87/87 100/100/100 88/88/88
f 100/100/100 99/99/99 119/119/119
f 100/100/100 119/119/119 120/120/120
f 119/119/119 99/99/99 98/98/98
f 119/119/119 98/98/98 121/121/121
f 89/89/89 101/101/101 102/102/102
f 89/89/89 102/102/102 90/90/90
f 102/102/102 101/101/101 122/122/122
f 102/102/102 122/122/122 123/123/123
f 122/122/122 101/101/101 100/100/100
f 122/122/122 100/100/100 120/120/120
f 91/91/91 103/103/103 104/104/104
f 91/91/91 104/104/104 92/92/92
f 104/104/104 103/103/103 124/124/124
f 104/104/104 124/124/124 125/125/125
f 124/124/124 103/103/103 102/102/102
f 124/124/124 102/102/102 123/123/123
f 93/93/93 105/105/105 106/106/106
f 93/93/93 106/106/106 94/94/94
f 106/106/106 105/105/105 126/126/126
f 106/106/106 126/126/126 127/127/127
f 126/126/126 105/105/105 104/104/104
f 126/126/126 104/104/104 125/125/125
f 95/95/95 107/107/107 108/108/108
f 95/95/95 108/108/108 96/96/96
f 108/108/108 107/107/107 128/128/128
f 108/108/108 128/128/128 129/129/129
f 128/128/128 107/107/107 106/106/106
f 128/128/128 106/106/106 127/127/127
f 97/97/97 109/109/109 112/112/112
f 97/97/97 112/112/112 111/111/111
f 112/112/112 109/109/109 130/130/130
f 112/112/112 130/130/130 131/131/131
f 130/130/130 109/109/109 108/108/108
f 130/130/130 108/108/108 129/129/129
f 70/70/70 71/71/71 67/67/67
# 196 listed triangle(s).
# 1  Mesh part(s).

# EOF
