# Wavefront Object File.
# Created by Cold Fusion HOD Editor v3.2.0
# Date: 05-31-2012; Time: 19:01:05
# 

# Mesh Part #1
g Part1
usemtl Material_0

v -42.00222 9.505241 22.87506
vn -0.8853354 0.3670949 0.2853463
vt 0.1160714 0.8285714

v -44.81964 -1.561356E-02 19.21069
vn -0.9954073 -1.564648E-07 9.573004E-02
vt 0.4642857 0.9142857

v -41.64467 -1.561356E-02 27.71094
vn -0.9088857 -1.634195E-08 0.4170454
vt 0.2752105 0.843531

v -42.00222 -9.536469 22.87506
vn -0.8853354 -0.3670951 0.2853462
vt 0.3785715 0.8285714

v -42.81336 -10.69185 8.736481
vn -0.8717898 -0.3829182 -0.305543
vt 0.4906468 0.8236198

v -43.09465 -1.561356E-02 7.506256
vn -0.8846027 -2.110339E-07 -0.4663455
vt 0.6223905 0.8169905

v -42.81337 10.66063 8.736481
vn -0.8717898 0.382918 -0.3055428
vt 0.7325886 0.8236198

v -42.00222 9.505241 22.87506
vn -0.8853354 0.3670949 0.2853463
vt 0.8285715 0.8285714

v -34.96653 16.755 25.74005
vn -0.5828751 0.7552177 0.299838
vt 0 0.725

v -38.74135 7.467346 31.16766
vn -0.8056257 0.2830362 0.52044
vt 0.075 0.8

v -32.72683 11.6718 35.15854
vn -0.5619881 0.525243 0.6389751
vt 5.769629E-02 0.7241142

v -30.20102 -1.561356E-02 42.28021
vn -0.564256 -1.371548E-07 0.8256
vt 0.15 0.7218328

v -37.01347 -1.561356E-02 35.81384
vn -0.788047 1.541778E-08 0.6156151
vt 0.15 0.8

v -38.74135 -7.498566 31.16766
vn -0.8056257 -0.2830364 0.5204401
vt 0.25 0.8

v -32.72682 -11.70303 35.15854
vn -0.5619881 -0.525243 0.6389751
vt 0.2666366 0.7241142

v -34.96653 -16.78623 25.74005
vn -0.5828751 -0.7552177 0.299838
vt 0.35 0.725

v -36.05636 -17.72872 14.85602
vn -0.555484 -0.8313547 -1.694249E-02
vt 0.4314449 0.723274

v -36.50661 -15.93621 5.900116
vn -0.5777999 -0.621022 -0.5296026
vt 0.5125 0.725

v -36.67684 -1.561356E-02 1.583679
vn -0.5287643 -5.016739E-08 -0.8487687
vt 0.6092467 0.723847

v -36.67684 -1.561356E-02 1.583679
vn -0.5287643 -5.016739E-08 -0.8487687
vt 0.7315067 0.7204435

v -36.50662 15.90499 5.900116
vn -0.5777999 0.621022 -0.5296026
vt 0.7875001 0.725

v -36.05636 17.6975 14.85602
vn -0.555484 0.8313546 -1.694236E-02
vt 0.8685551 0.723274

v -24.6194 20.82671 27.21582
vn -0.284205 0.9133414 0.2916077
vt 0 0.625

v -22.30478 15.49224 38.24811
vn -0.2861621 0.6623116 0.6924266
vt 5.013023E-02 0.6235716

v -20.17094 -1.561356E-02 46.73499
vn -0.2926463 -5.019447E-08 0.9562207
vt 0.2 0.625

v -22.30478 -15.52346 38.24811
vn -0.2861622 -0.6623117 0.6924265
vt 0.2748047 0.6235716

v -24.6194 -20.85794 27.21582
vn -0.284205 -0.9133414 0.2916077
vt 0.35 0.625

v -25.83622 -21.87103 14.45578
vn -0.269648 -0.9616152 -0.0508539
vt 0.4248074 0.6235077

v -26.56956 -19.42616 3.857117
vn -0.3120483 -0.7880796 -0.530619
vt 0.5 0.625

v -26.58976 -14.65334 -0.6980286
vn -0.2709496 -0.3055156 -0.9128234
vt 0.5495406 0.6225463

v -26.89597 -1.561356E-02 -1.85614
vn -0.2094928 -3.013875E-08 -0.9778102
vt 0.7 0.625

v -26.58977 14.62212 -0.6980286
vn -0.2709496 0.3055156 -0.9128234
vt 0.7504594 0.6225463

v -26.56956 19.39494 3.857117
vn -0.3120482 0.7880796 -0.530619
vt 0.8000001 0.625

v -25.83623 21.83981 14.45578
vn -0.269648 0.9616153 -5.085398E-02
vt 0.8751926 0.6235077

v -11.28964 23.11041 27.60379
vn -0.1124297 0.9562144 0.2702105
vt 0 0.55

v -10.02115 17.51316 39.05975
vn -0.1077678 0.7094084 0.6965098
vt 4.735873E-02 0.5489794

v -8.78809 -1.561356E-02 48.6167
vn -0.1076644 -4.219402E-08 0.9941873
vt 0.15 0.5494387

v -10.02114 -17.54438 39.05975
vn -0.1077679 -0.7094084 0.6965097
vt 0.2789619 0.5489794

v -11.28964 -23.14164 27.60379
vn -0.1124298 -0.9562143 0.2702106
vt 0.35 0.55

v -11.95324 -24.11076 13.88214
vn -0.1089395 -0.991088 -7.665991E-02
vt 0.426259 0.5492829

v -12.39751 -21.35743 2.764465
vn -9.961899E-02 -0.8483813 -0.5199282
vt 0.5 0.55

v -12.33608 -15.77912 -1.867645
vn -7.132194E-02 -0.3792083 -0.9225585
vt 0.5498729 0.5487777

v -12.41518 -1.561165E-02 -3.018707
vn -5.124797E-02 -7.475077E-09 -0.998686
vt 0.65 0.5495261

v -12.33608 15.7479 -1.867645
vn -7.132193E-02 0.3792084 -0.9225585
vt 0.7501271 0.5487777

v -12.39751 21.32621 2.764465
vn -9.961896E-02 0.8483813 -0.519928
vt 0.8000001 0.55

v -11.95324 24.07954 13.88214
vn -0.1089395 0.991088 -7.665996E-02
vt 0.873741 0.549283

v -34.96653 16.755 25.74005
vn -0.5828751 0.7552177 0.299838
vt 0.9500001 0.725

v -20.17094 -1.561356E-02 46.73499
vn -0.2926463 -5.019447E-08 0.9562207
vt 0.125 0.6243627

v -26.89597 -1.561356E-02 -1.85614
vn -0.2094928 -3.013875E-08 -0.9778102
vt 0.625 0.6254027

v -24.6194 20.82671 27.21582
vn -0.284205 0.9133414 0.2916077
vt 0.9500001 0.625

v 0.2055977 -1.561356E-02 49.03198
vn -8.567142E-08 -2.538412E-08 1
vt 0.15 0.5

v 0.2055979 17.77678 39.61526
vn -3.816447E-08 0.7168211 0.6972571
vt 0.05 0.5

v 0.2055988 23.73239 27.81921
vn 1.521009E-08 0.963957 0.2660583
vt 0 0.5

v 0.2055988 -23.76361 27.81921
vn 2.946955E-08 -0.963957 0.2660582
vt 0.35 0.5

v 0.2055979 -17.80801 39.61526
vn -2.740014E-08 -0.7168213 0.697257
vt 0.275 0.5

v 0.2055988 -21.98513 2.601715
vn 5.401752E-08 -0.8456665 -0.5337118
vt 0.5 0.5

v 0.2055988 -24.82628 13.94418
vn 8.690937E-08 -0.9964635 -0.0840282
vt 0.425 0.5

v 0.2055977 -1.561165E-02 -3.229767
vn 7.937888E-09 -1.867738E-09 -1
vt 0.65 0.5

v 0.2055979 -16.22492 -2.09198
vn 1.369013E-08 -0.3706718 -0.9287639
vt 0.55 0.5

v 0.2055988 21.9539 2.601715
vn -3.830333E-08 0.8456665 -0.5337117
vt 0.8000001 0.5

v 0.2055988 16.1937 -2.09198
vn 6.845066E-09 0.3706719 -0.9287639
vt 0.7500001 0.5

v -11.28964 23.11041 27.60379
vn -0.1124297 0.9562144 0.2702105
vt 0.9500001 0.55

v 0.2055988 23.73239 27.81921
vn 1.521009E-08 0.963957 0.2660583
vt 0.9500001 0.5

v 0.2055988 24.79506 13.94418
vn -5.290136E-08 0.9964635 -8.402819E-02
vt 0.8750001 0.5

v 42.41342 9.505245 22.87509
vn 0.8853355 0.3670946 0.2853464
vt 0.1160714 0.8285714

v 42.05587 -1.561356E-02 27.71094
vn 0.9088857 -2.539287E-07 0.4170452
vt 0.2752105 0.843531

v 45.23084 -1.561356E-02 19.21069
vn 0.9954073 -1.815764E-07 9.572992E-02
vt 0.4642857 0.9142857

v 42.41342 -9.536469 22.87506
vn 0.8853355 -0.367095 0.285346
vt 0.3785715 0.8285714

v 43.22456 -10.69185 8.736481
vn 0.8717896 -0.3829183 -0.3055428
vt 0.4906468 0.8236198

v 43.50585 -1.561356E-02 7.506256
vn 0.8846027 -8.916928E-08 -0.4663454
vt 0.6223905 0.8169905

v 43.22456 10.66063 8.736481
vn 0.8717898 0.382918 -0.3055428
vt 0.7325886 0.8236198

v 42.41342 9.505245 22.87509
vn 0.8853355 0.3670946 0.2853464
vt 0.8285715 0.8285714

v 35.37772 16.755 25.74005
vn 0.5828748 0.7552179 0.2998382
vt 0 0.725

v 33.13802 11.6718 35.15854
vn 0.5619878 0.5252432 0.6389753
vt 5.769629E-02 0.7241142

v 39.15255 7.467344 31.16766
vn 0.8056253 0.2830364 0.5204405
vt 0.075 0.8

v 30.61222 -1.561356E-02 42.28021
vn 0.5642557 6.454344E-08 0.8256001
vt 0.15 0.7218328

v 33.13802 -11.70303 35.15854
vn 0.5619879 -0.5252432 0.6389751
vt 0.2666366 0.7241142

v 39.15255 -7.498569 31.16766
vn 0.8056257 -0.2830364 0.52044
vt 0.25 0.8

v 37.42467 -1.561356E-02 35.81384
vn 0.788047 2.0814E-07 0.6156151
vt 0.15 0.8

v 35.37772 -16.78622 25.74005
vn 0.5828749 -0.755218 0.2998379
vt 0.35 0.725

v 36.46755 -17.72872 14.85602
vn 0.5554839 -0.8313547 -1.694225E-02
vt 0.4314449 0.723274

v 36.91781 -15.93622 5.900116
vn 0.5778001 -0.621022 -0.5296025
vt 0.5125 0.725

v 37.08804 -1.561356E-02 1.583679
vn 0.5287644 -3.473127E-08 -0.8487687
vt 0.65 0.7227125

v 36.91782 15.90499 5.900116
vn 0.5778002 0.6210219 -0.5296026
vt 0.7875001 0.725

v 36.46756 17.6975 14.85602
vn 0.5554841 0.8313546 -1.694231E-02
vt 0.8685551 0.723274

v 25.0306 20.82672 27.21582
vn 0.284205 0.9133414 0.2916077
vt 0 0.625

v 22.71597 15.49224 38.24811
vn 0.2861621 0.6623116 0.6924266
vt 5.013023E-02 0.6235716

v 20.58214 -1.561356E-02 46.73499
vn 0.2926462 -7.529171E-08 0.9562208
vt 0.15 0.6245751

v 22.71597 -15.52346 38.24811
vn 0.286162 -0.6623117 0.6924266
vt 0.2748047 0.6235716

v 25.03059 -20.85794 27.21582
vn 0.284205 -0.9133414 0.2916076
vt 0.35 0.625

v 26.24742 -21.87103 14.45578
vn 0.2696479 -0.9616153 -5.085376E-02
vt 0.4248074 0.6235077

v 26.98075 -19.42616 3.857117
vn 0.3120482 -0.7880797 -0.530619
vt 0.5 0.625

v 27.00096 -14.65334 -0.6980286
vn 0.2709495 -0.3055155 -0.9128234
vt 0.5495406 0.6225463

v 27.30717 -1.561165E-02 -1.85614
vn 0.2094929 -3.767344E-09 -0.9778102
vt 0.65 0.6252685

v 27.00096 14.62212 -0.6980286
vn 0.2709495 0.3055156 -0.9128234
vt 0.7504594 0.6225463

v 26.98075 19.39494 3.857117
vn 0.3120482 0.7880796 -0.530619
vt 0.8000001 0.625

v 26.24742 21.83981 14.45578
vn 0.2696479 0.9616153 -5.085379E-02
vt 0.8751926 0.6235077

v 11.70083 23.11041 27.60379
vn 0.1124297 0.9562143 0.2702106
vt 0 0.55

v 10.43234 17.51316 39.05975
vn 0.1077677 0.7094083 0.6965098
vt 4.735873E-02 0.5489794

v 9.199285 -1.561332E-02 48.6167
vn 0.1076643 -2.531642E-08 0.9941873
vt 0.15 0.5494387

v 10.43234 -17.54438 39.05975
vn 0.1077679 -0.7094084 0.6965097
vt 0.2789619 0.5489794

v 11.70083 -23.14164 27.60379
vn 0.1124298 -0.9562144 0.2702105
vt 0.35 0.55

v 12.36444 -24.11076 13.88214
vn 0.1089395 -0.991088 -0.0766599
vt 0.426259 0.5492829

v 12.8087 -21.35743 2.764465
vn 9.961901E-02 -0.8483813 -0.5199282
vt 0.5 0.55

v 12.74728 -15.77912 -1.867645
vn 7.132194E-02 -0.3792083 -0.9225585
vt 0.5498729 0.5487777

v 12.82637 -1.561117E-02 -3.018707
vn 5.124798E-02 -1.868769E-09 -0.998686
vt 0.65 0.5495261

v 12.74728 15.7479 -1.867645
vn 7.132194E-02 0.3792083 -0.9225585
vt 0.7501271 0.5487777

v 12.8087 21.32621 2.764465
vn 9.961897E-02 0.8483814 -0.5199282
vt 0.8000001 0.55

v 12.36444 24.07954 13.88214
vn 0.1089394 0.991088 -0.0766599
vt 0.873741 0.549283

v 35.37772 16.755 25.74005
vn 0.5828748 0.7552179 0.2998382
vt 0.9500001 0.725

v 25.0306 20.82672 27.21582
vn 0.284205 0.9133414 0.2916077
vt 0.9500001 0.625

v 11.70083 23.11041 27.60379
vn 0.1124297 0.9562143 0.2702106
vt 0.9500001 0.55

v -42.00222 9.505241 22.87506
vn -0.8853354 0.3670949 0.2853463
vt 0.1160714 0.8285714

v -34.96653 16.755 25.74005
vn -0.5828751 0.7552177 0.299838
vt 0 0.725

v -38.74135 7.467346 31.16766
vn -0.8056257 0.2830362 0.52044
vt 0.075 0.8

v 35.37772 16.755 25.74005
vn 0.5828748 0.7552179 0.2998382
vt 0 0.725

v 39.15255 7.467344 31.16766
vn 0.8056253 0.2830364 0.5204405
vt 0.075 0.8

v 42.41342 9.505245 22.87509
vn 0.8853355 0.3670946 0.2853464
vt 0.1160714 0.8285714

v 0.2055979 17.77678 39.61526
vn -3.816447E-08 0.7168211 0.6972571
vt 0.05 0.5

v 0.2055977 -1.561356E-02 49.03198
vn -8.567142E-08 -2.538412E-08 1
vt 0.15 0.5

v 0.2055988 23.73239 27.81921
vn 1.521009E-08 0.963957 0.2660583
vt 0 0.5

v 0.2055979 -17.80801 39.61526
vn -2.740014E-08 -0.7168213 0.697257
vt 0.275 0.5

v 0.2055988 -23.76361 27.81921
vn 2.946955E-08 -0.963957 0.2660582
vt 0.35 0.5

v 0.2055988 -24.82628 13.94418
vn 8.690937E-08 -0.9964635 -0.0840282
vt 0.425 0.5

v 0.2055988 -21.98513 2.601715
vn 5.401752E-08 -0.8456665 -0.5337118
vt 0.5 0.5

v 0.2055979 -16.22492 -2.09198
vn 1.369013E-08 -0.3706718 -0.9287639
vt 0.55 0.5

v 0.2055977 -1.561165E-02 -3.229767
vn 7.937888E-09 -1.867738E-09 -1
vt 0.65 0.5

v 0.2055988 16.1937 -2.09198
vn 6.845066E-09 0.3706719 -0.9287639
vt 0.7500001 0.5

v 0.2055988 21.9539 2.601715
vn -3.830333E-08 0.8456665 -0.5337117
vt 0.8000001 0.5

v 0.2055988 24.79506 13.94418
vn -5.290136E-08 0.9964635 -8.402819E-02
vt 0.8750001 0.5

v 0.2055988 23.73239 27.81921
vn 1.521009E-08 0.963957 0.2660583
vt 0.9500001 0.5
# 131 vertice(s) in part #1.

f 1/1/1 2/2/2 3/3/3
f 3/3/3 2/2/2 4/4/4
f 4/4/4 2/2/2 5/5/5
f 5/5/5 2/2/2 6/6/6
f 7/7/7 2/2/2 8/8/8
f 9/9/9 113/113/113 10/10/10
f 114/114/114 115/115/115 11/11/11
f 12/12/12 13/13/13 14/14/14
f 12/12/12 14/14/14 15/15/15
f 16/16/16 4/4/4 5/5/5
f 16/16/16 5/5/5 17/17/17
f 18/18/18 5/5/5 19/19/19
f 19/19/19 5/5/5 6/6/6
f 20/20/20 7/7/7 21/21/21
f 21/21/21 7/7/7 22/22/22
f 23/23/23 114/114/114 11/11/11
f 23/23/23 11/11/11 24/24/24
f 25/25/25 12/12/12 15/15/15
f 25/25/25 15/15/15 26/26/26
f 27/27/27 16/16/16 17/17/17
f 27/27/27 17/17/17 28/28/28
f 29/29/29 18/18/18 19/19/19
f 29/29/29 19/19/19 30/30/30
f 31/31/31 20/20/20 32/32/32
f 33/33/33 21/21/21 22/22/22
f 33/33/33 22/22/22 34/34/34
f 35/35/35 23/23/23 24/24/24
f 35/35/35 24/24/24 36/36/36
f 37/37/37 25/25/25 26/26/26
f 37/37/37 26/26/26 38/38/38
f 39/39/39 27/27/27 28/28/28
f 39/39/39 28/28/28 40/40/40
f 41/41/41 29/29/29 30/30/30
f 41/41/41 30/30/30 42/42/42
f 43/43/43 31/31/31 32/32/32
f 43/43/43 32/32/32 44/44/44
f 45/45/45 33/33/33 34/34/34
f 45/45/45 34/34/34 46/46/46
f 3/3/3 13/13/13 115/115/115
f 115/115/115 1/1/1 3/3/3
f 4/4/4 14/14/14 3/3/3
f 14/14/14 13/13/13 3/3/3
f 115/115/115 13/13/13 12/12/12
f 115/115/115 12/12/12 11/11/11
f 14/14/14 4/4/4 16/16/16
f 14/14/14 16/16/16 15/15/15
f 5/5/5 18/18/18 17/17/17
f 6/6/6 7/7/7 20/20/20
f 7/7/7 8/8/8 47/47/47
f 7/7/7 47/47/47 22/22/22
f 11/11/11 12/12/12 48/48/48
f 11/11/11 48/48/48 24/24/24
f 15/15/15 16/16/16 27/27/27
f 15/15/15 27/27/27 26/26/26
f 17/17/17 18/18/18 29/29/29
f 17/17/17 29/29/29 28/28/28
f 19/19/19 49/49/49 30/30/30
f 20/20/20 21/21/21 33/33/33
f 20/20/20 33/33/33 32/32/32
f 22/22/22 47/47/47 50/50/50
f 22/22/22 50/50/50 34/34/34
f 24/24/24 48/48/48 37/37/37
f 24/24/24 37/37/37 36/36/36
f 37/37/37 51/51/51 52/52/52
f 37/37/37 52/52/52 36/36/36
f 52/52/52 53/53/53 35/35/35
f 52/52/52 35/35/35 36/36/36
f 26/26/26 27/27/27 39/39/39
f 26/26/26 39/39/39 38/38/38
f 39/39/39 54/54/54 55/55/55
f 39/39/39 55/55/55 38/38/38
f 55/55/55 51/51/51 37/37/37
f 55/55/55 37/37/37 38/38/38
f 28/28/28 29/29/29 41/41/41
f 28/28/28 41/41/41 40/40/40
f 41/41/41 56/56/56 57/57/57
f 41/41/41 57/57/57 40/40/40
f 57/57/57 54/54/54 39/39/39
f 57/57/57 39/39/39 40/40/40
f 30/30/30 49/49/49 43/43/43
f 30/30/30 43/43/43 42/42/42
f 43/43/43 58/58/58 59/59/59
f 43/43/43 59/59/59 42/42/42
f 59/59/59 56/56/56 41/41/41
f 59/59/59 41/41/41 42/42/42
f 32/32/32 33/33/33 45/45/45
f 32/32/32 45/45/45 44/44/44
f 45/45/45 60/60/60 61/61/61
f 45/45/45 61/61/61 44/44/44
f 61/61/61 58/58/58 43/43/43
f 61/61/61 43/43/43 44/44/44
f 34/34/34 50/50/50 62/62/62
f 34/34/34 62/62/62 46/46/46
f 62/62/62 63/63/63 64/64/64
f 62/62/62 64/64/64 46/46/46
f 64/64/64 60/60/60 45/45/45
f 64/64/64 45/45/45 46/46/46
f 6/6/6 2/2/2 7/7/7
f 65/65/65 66/66/66 67/67/67
f 66/66/66 68/68/68 67/67/67
f 68/68/68 69/69/69 67/67/67
f 69/69/69 70/70/70 67/67/67
f 71/71/71 72/72/72 67/67/67
f 73/73/73 74/74/74 75/75/75
f 116/116/116 117/117/117 118/118/118
f 76/76/76 77/77/77 78/78/78
f 76/76/76 78/78/78 79/79/79
f 80/80/80 81/81/81 69/69/69
f 80/80/80 69/69/69 68/68/68
f 82/82/82 83/83/83 69/69/69
f 83/83/83 70/70/70 69/69/69
f 83/83/83 84/84/84 71/71/71
f 84/84/84 85/85/85 71/71/71
f 86/86/86 87/87/87 74/74/74
f 86/86/86 74/74/74 73/73/73
f 88/88/88 89/89/89 77/77/77
f 88/88/88 77/77/77 76/76/76
f 90/90/90 91/91/91 81/81/81
f 90/90/90 81/81/81 80/80/80
f 92/92/92 93/93/93 83/83/83
f 92/92/92 83/83/83 82/82/82
f 94/94/94 95/95/95 83/83/83
f 96/96/96 97/97/97 85/85/85
f 96/96/96 85/85/85 84/84/84
f 98/98/98 99/99/99 87/87/87
f 98/98/98 87/87/87 86/86/86
f 100/100/100 101/101/101 89/89/89
f 100/100/100 89/89/89 88/88/88
f 102/102/102 103/103/103 91/91/91
f 102/102/102 91/91/91 90/90/90
f 104/104/104 105/105/105 93/93/93
f 104/104/104 93/93/93 92/92/92
f 106/106/106 107/107/107 95/95/95
f 106/106/106 95/95/95 94/94/94
f 108/108/108 109/109/109 97/97/97
f 108/108/108 97/97/97 96/96/96
f 66/66/66 75/75/75 79/79/79
f 75/75/75 66/66/66 65/65/65
f 68/68/68 66/66/66 78/78/78
f 78/78/78 66/66/66 79/79/79
f 75/75/75 74/74/74 76/76/76
f 75/75/75 76/76/76 79/79/79
f 78/78/78 77/77/77 80/80/80
f 78/78/78 80/80/80 68/68/68
f 69/69/69 81/81/81 82/82/82
f 70/70/70 83/83/83 71/71/71
f 71/71/71 85/85/85 110/110/110
f 71/71/71 110/110/110 72/72/72
f 74/74/74 87/87/87 88/88/88
f 74/74/74 88/88/88 76/76/76
f 77/77/77 89/89/89 90/90/90
f 77/77/77 90/90/90 80/80/80
f 81/81/81 91/91/91 92/92/92
f 81/81/81 92/92/92 82/82/82
f 83/83/83 93/93/93 94/94/94
f 83/83/83 95/95/95 96/96/96
f 83/83/83 96/96/96 84/84/84
f 85/85/85 97/97/97 111/111/111
f 85/85/85 111/111/111 110/110/110
f 87/87/87 99/99/99 100/100/100
f 87/87/87 100/100/100 88/88/88
f 100/100/100 99/99/99 119/119/119
f 100/100/100 119/119/119 120/120/120
f 119/119/119 99/99/99 98/98/98
f 119/119/119 98/98/98 121/121/121
f 89/89/89 101/101/101 102/102/102
f 89/89/89 102/102/102 90/90/90
f 102/102/102 101/101/101 122/122/122
f 102/102/102 122/122/122 123/123/123
f 122/122/122 101/101/101 100/100/100
f 122/122/122 100/100/100 120/120/120
f 91/91/91 103/103/103 104/104/104
f 91/91/91 104/104/104 92/92/92
f 104/104/104 103/103/103 124/124/124
f 104/104/104 124/124/124 125/125/125
f 124/124/124 103/103/103 102/102/102
f 124/124/124 102/102/102 123/123/123
f 93/93/93 105/105/105 106/106/106
f 93/93/93 106/106/106 94/94/94
f 106/106/106 105/105/105 126/126/126
f 106/106/106 126/126/126 127/127/127
f 126/126/126 105/105/105 104/104/104
f 126/126/126 104/104/104 125/125/125
f 95/95/95 107/107/107 108/108/108
f 95/95/95 108/108/108 96/96/96
f 108/108/108 107/107/107 128/128/128
f 108/108/108 128/128/128 129/129/129
f 128/128/128 107/107/107 106/106/106
f 128/128/128 106/106/106 127/127/127
f 97/97/97 109/109/109 112/112/112
f 97/97/97 112/112/112 111/111/111
f 112/112/112 109/109/109 130/130/130
f 112/112/112 130/130/130 131/131/131
f 130/130/130 109/109/109 108/108/108
f 130/130/130 108/108/108 129/129/129
f 70/70/70 71/71/71 67/67/67
# 196 listed triangle(s).
# 1  Mesh part(s).

# EOF
