# Wavefront Object File.
# Created by Cold Fusion HOD Editor v3.2.0
# Date: 05-31-2012; Time: 19:01:16
# 

# Mesh Part #1
g Part1
usemtl Material_0

v -45.66514 9.505241 30.13754
vn -0.8839452 0.3946875 0.2507245
vt 0.1160714 0.8285714

v -48.73053 -1.561356E-02 25.55362
vn -0.9963312 -7.90242E-08 8.558092E-02
vt 0.4642857 0.9142857

v -45.27612 -1.561356E-02 36.18701
vn -0.92861 -1.448407E-07 0.3710576
vt 0.2752105 0.843531

v -45.66514 -9.536469 30.13754
vn -0.8839452 -0.3946876 0.2507246
vt 0.3785715 0.8285714

v -46.54768 -10.69185 13.46661
vn -0.8716224 -0.4110196 -0.2670902
vt 0.4906468 0.8236198

v -46.85372 -1.561356E-02 10.9119
vn -0.9050986 1.709832E-07 -0.4252018
vt 0.6223905 0.8169905

v -46.54768 10.66063 13.46661
vn -0.8716224 0.4110197 -0.2670902
vt 0.7325886 0.8236198

v -45.66514 9.505241 30.13754
vn -0.8839452 0.3946875 0.2507245
vt 0.8285715 0.8285714

v -38.01022 16.755 33.7215
vn -0.5620769 0.7870186 0.2543059
vt 0 0.725

v -42.11728 7.467346 40.51117
vn -0.8267118 0.3141147 0.4667758
vt 0.075 0.8

v -35.57339 11.6718 45.5036
vn -0.5764996 0.5791969 0.57635
vt 5.769629E-02 0.7241142

v -32.82529 -1.561356E-02 54.41245
vn -0.6166168 -8.290449E-09 0.7872635
vt 0.15 0.7218328

v -40.23732 -1.561356E-02 46.3233
vn -0.8261362 -1.396974E-07 0.5634705
vt 0.15 0.8

v -42.11728 -7.498566 40.51117
vn -0.8267117 -0.3141148 0.4667758
vt 0.25 0.8

v -35.57339 -11.70303 45.5036
vn -0.5764996 -0.5791968 0.5763499
vt 0.2666366 0.7241142

v -38.01022 -16.78623 33.7215
vn -0.562077 -0.7870184 0.2543059
vt 0.35 0.725

v -39.19597 -17.72872 20.10605
vn -0.5274117 -0.8495194 -0.0123939
vt 0.4314449 0.723274

v -39.68586 -15.93621 8.902679
vn -0.6005135 -0.6481189 -0.4683219
vt 0.5125 0.725

v -39.87107 -1.561356E-02 3.50296
vn -0.5971723 8.611064E-08 -0.802113
vt 0.6092467 0.723847

v -39.87107 -1.561356E-02 3.50296
vn -0.5971723 8.611064E-08 -0.802113
vt 0.7315067 0.7204435

v -39.68586 15.90499 8.902679
vn -0.6005136 0.6481189 -0.4683219
vt 0.7875001 0.725

v -39.19597 17.6975 20.10605
vn -0.5274118 0.8495194 -0.0123939
vt 0.8685551 0.723274

v -26.75242 20.82671 35.5676
vn -0.2681097 0.9325678 0.2417325
vt 0 0.625

v -24.23408 15.49224 49.3685
vn -0.2920017 0.7235903 0.6254216
vt 5.013023E-02 0.6235716

v -21.91244 -1.561356E-02 59.98514
vn -0.3314718 -5.27522E-08 0.9434651
vt 0.2 0.625

v -24.23408 -15.52346 49.3685
vn -0.2920016 -0.7235903 0.6254216
vt 0.2748047 0.6235716

v -26.75242 -20.85794 35.5676
vn -0.2681097 -0.9325678 0.2417325
vt 0.35 0.625

v -28.07634 -21.87103 19.60535
vn -0.2497413 -0.967437 -4.117059E-02
vt 0.4248074 0.6235077

v -28.87421 -19.42616 6.346954
vn -0.3108547 -0.8258767 -0.4704222
vt 0.5 0.625

v -28.8962 -14.65334 0.6486511
vn -0.299834 -0.3561218 -0.8850293
vt 0.5495406 0.6225463

v -29.22935 -1.561356E-02 -0.8000488
vn -0.2380323 -7.564526E-09 -0.9712573
vt 0.7 0.625

v -28.8962 14.62212 0.6486511
vn -0.299834 0.3561219 -0.8850293
vt 0.7504594 0.6225463

v -28.87421 19.39494 6.346954
vn -0.3108546 0.8258768 -0.4704222
vt 0.8000001 0.625

v -28.07634 21.83981 19.60535
vn -0.2497413 0.967437 -0.0411706
vt 0.8751926 0.6235077

v -12.24947 23.11041 36.05292
vn -0.1049406 0.9693762 0.2220303
vt 0 0.55

v -10.86934 17.51316 50.38382
vn -0.109153 0.7700151 0.6286195
vt 4.735873E-02 0.5489794

v -9.527759 -1.561356E-02 62.33911
vn -0.1235396 -7.153552E-08 0.9923397
vt 0.15 0.5494387

v -10.86934 -17.54438 50.38382
vn -0.109153 -0.7700151 0.6286194
vt 0.2789619 0.5489794

v -12.24947 -23.14164 36.05292
vn -0.1049406 -0.9693762 0.2220303
vt 0.35 0.55

v -12.97148 -24.11076 18.88782
vn -0.1003455 -0.9930229 -6.193925E-02
vt 0.426259 0.5492829

v -13.45485 -21.35743 4.980103
vn -9.608851E-02 -0.8870378 -0.4515871
vt 0.5 0.55

v -13.38802 -15.77912 -0.8144531
vn -7.789081E-02 -0.4381161 -0.8955374
vt 0.5498729 0.5487777

v -13.47407 -1.561165E-02 -2.254395
vn -5.887376E-02 -9.359845E-09 -0.9982654
vt 0.65 0.5495261

v -13.38802 15.7479 -0.8144531
vn -7.789084E-02 0.4381163 -0.8955373
vt 0.7501271 0.5487777

v -13.45485 21.32621 4.980103
vn -9.608851E-02 0.8870379 -0.4515869
vt 0.8000001 0.55

v -12.97149 24.07954 18.88782
vn -0.1003455 0.9930229 -0.0619393
vt 0.873741 0.549283

v -38.01022 16.755 33.7215
vn -0.5620769 0.7870186 0.2543059
vt 0.9500001 0.725

v -21.91244 -1.561356E-02 59.98514
vn -0.3314718 -5.27522E-08 0.9434651
vt 0.125 0.6243627

v -29.22935 -1.561356E-02 -0.8000488
vn -0.2380323 -7.564526E-09 -0.9712573
vt 0.625 0.6254027

v -26.75242 20.82671 35.5676
vn -0.2681097 0.9325678 0.2417325
vt 0.9500001 0.625

v 0.2574836 -1.561356E-02 62.85858
vn -7.632749E-08 -1.795941E-08 1
vt 0.15 0.5

v 0.2574835 17.77678 51.07874
vn 2.147869E-08 0.7772409 0.6292033
vt 0.05 0.5

v 0.2574825 23.73239 36.32245
vn 1.889288E-09 0.9758773 0.2183202
vt 0 0.5

v 0.2574825 -23.76361 36.32245
vn 4.061968E-08 -0.9758772 0.2183201
vt 0.35 0.5

v 0.2574835 -17.80801 51.07874
vn -5.272042E-08 -0.7772409 0.6292033
vt 0.275 0.5

v 0.2574825 -21.98513 4.77655
vn 4.472453E-08 -0.8853381 -0.4649478
vt 0.5 0.5

v 0.2574825 -24.82628 18.96542
vn 6.299427E-08 -0.9976944 -6.786621E-02
vt 0.425 0.5

v 0.2574836 -1.561165E-02 -2.518402
vn 0 -1.122319E-08 -1
vt 0.65 0.5

v 0.2574844 -16.22492 -1.095093
vn 1.291931E-08 -0.4298381 -0.902906
vt 0.55 0.5

v 0.2574825 21.9539 4.77655
vn -4.375225E-08 0.8853382 -0.4649476
vt 0.8000001 0.5

v 0.2574844 16.1937 -1.095093
vn -4.968967E-09 0.4298382 -0.9029059
vt 0.7500001 0.5

v -12.24947 23.11041 36.05292
vn -0.1049406 0.9693762 0.2220303
vt 0.9500001 0.55

v 0.2574825 23.73239 36.32245
vn 1.889288E-09 0.9758773 0.2183202
vt 0.9500001 0.5

v 0.2574825 24.79506 18.96542
vn -6.017363E-08 0.9976944 -6.786625E-02
vt 0.8750001 0.5

v 46.18011 9.505245 30.13757
vn 0.8839452 0.3946872 0.2507247
vt 0.1160714 0.8285714

v 45.79109 -1.561356E-02 36.18701
vn 0.9286099 -1.725493E-07 0.3710577
vt 0.2752105 0.843531

v 49.2455 -1.561356E-02 25.55362
vn 0.9963312 9.31586E-08 8.558087E-02
vt 0.4642857 0.9142857

v 46.18011 -9.536469 30.13754
vn 0.8839453 -0.3946874 0.2507245
vt 0.3785715 0.8285714

v 47.06264 -10.69185 13.46661
vn 0.8716224 -0.4110198 -0.2670904
vt 0.4906468 0.8236198

v 47.36869 -1.561356E-02 10.9119
vn 0.9050984 1.47263E-07 -0.4252021
vt 0.6223905 0.8169905

v 47.06264 10.66063 13.46661
vn 0.8716224 0.4110196 -0.2670903
vt 0.7325886 0.8236198

v 46.18011 9.505245 30.13757
vn 0.8839452 0.3946872 0.2507247
vt 0.8285715 0.8285714

v 38.52519 16.755 33.7215
vn 0.5620769 0.7870185 0.254306
vt 0 0.725

v 36.08836 11.6718 45.5036
vn 0.5764995 0.5791969 0.5763501
vt 5.769629E-02 0.7241142

v 42.63225 7.467344 40.51117
vn 0.8267117 0.3141144 0.4667762
vt 0.075 0.8

v 33.34026 -1.561356E-02 54.41245
vn 0.6166167 -6.632359E-08 0.7872636
vt 0.15 0.7218328

v 36.08836 -11.70303 45.5036
vn 0.5764995 -0.5791969 0.57635
vt 0.2666366 0.7241142

v 42.63225 -7.498569 40.51117
vn 0.8267118 -0.3141145 0.4667759
vt 0.25 0.8

v 40.75229 -1.561356E-02 46.3233
vn 0.8261361 7.760964E-09 0.5634706
vt 0.15 0.8

v 38.52519 -16.78622 33.7215
vn 0.5620769 -0.7870185 0.2543058
vt 0.35 0.725

v 39.71093 -17.72872 20.10605
vn 0.5274116 -0.8495196 -1.239391E-02
vt 0.4314449 0.723274

v 40.20082 -15.93622 8.902679
vn 0.6005136 -0.648119 -0.4683219
vt 0.5125 0.725

v 40.38603 -1.561356E-02 3.50296
vn 0.5971723 -7.828239E-09 -0.802113
vt 0.65 0.7227125

v 40.20083 15.90499 8.902679
vn 0.6005139 0.6481186 -0.4683218
vt 0.7875001 0.725

v 39.71094 17.6975 20.10605
vn 0.5274119 0.8495194 -1.239387E-02
vt 0.8685551 0.723274

v 27.26739 20.82672 35.5676
vn 0.2681097 0.9325678 0.2417325
vt 0 0.625

v 24.74905 15.49224 49.3685
vn 0.2920015 0.7235902 0.6254218
vt 5.013023E-02 0.6235716

v 22.42741 -1.561356E-02 59.98514
vn 0.3314716 -7.033626E-08 0.9434652
vt 0.15 0.6245751

v 24.74905 -15.52346 49.3685
vn 0.2920015 -0.7235903 0.6254217
vt 0.2748047 0.6235716

v 27.26739 -20.85794 35.5676
vn 0.2681097 -0.9325678 0.2417324
vt 0.35 0.625

v 28.5913 -21.87103 19.60535
vn 0.2497412 -0.967437 -4.117061E-02
vt 0.4248074 0.6235077

v 29.38918 -19.42616 6.346954
vn 0.3108546 -0.8258767 -0.4704222
vt 0.5 0.625

v 29.41117 -14.65334 0.6486511
vn 0.2998341 -0.3561217 -0.8850294
vt 0.5495406 0.6225463

v 29.74433 -1.561165E-02 -0.8000488
vn 0.2380325 3.782263E-08 -0.9712572
vt 0.65 0.6252685

v 29.41117 14.62212 0.6486511
vn 0.2998341 0.3561217 -0.8850294
vt 0.7504594 0.6225463

v 29.38918 19.39494 6.346954
vn 0.3108546 0.8258767 -0.4704223
vt 0.8000001 0.625

v 28.5913 21.83981 19.60535
vn 0.2497412 0.967437 -4.117061E-02
vt 0.8751926 0.6235077

v 12.76444 23.11041 36.05292
vn 0.1049405 0.9693762 0.2220303
vt 0 0.55

v 11.38431 17.51316 50.38382
vn 0.1091528 0.7700151 0.6286195
vt 4.735873E-02 0.5489794

v 10.04273 -1.561332E-02 62.33911
vn 0.1235394 -1.788388E-08 0.9923397
vt 0.15 0.5494387

v 11.38431 -17.54438 50.38382
vn 0.1091529 -0.7700151 0.6286194
vt 0.2789619 0.5489794

v 12.76444 -23.14164 36.05292
vn 0.1049406 -0.9693762 0.2220303
vt 0.35 0.55

v 13.48645 -24.11076 18.88782
vn 0.1003455 -0.9930229 -6.193926E-02
vt 0.426259 0.5492829

v 13.96982 -21.35743 4.980103
vn 9.608853E-02 -0.8870379 -0.4515871
vt 0.5 0.55

v 13.90298 -15.77912 -0.8144531
vn 7.789082E-02 -0.4381161 -0.8955374
vt 0.5498729 0.5487777

v 13.98904 -1.561117E-02 -2.254395
vn 5.887374E-02 -7.487876E-09 -0.9982654
vt 0.65 0.5495261

v 13.90298 15.7479 -0.8144531
vn 7.789081E-02 0.4381161 -0.8955374
vt 0.7501271 0.5487777

v 13.96982 21.32621 4.980103
vn 9.608849E-02 0.8870379 -0.4515871
vt 0.8000001 0.55

v 13.48645 24.07954 18.88782
vn 0.1003454 0.9930229 -6.193931E-02
vt 0.873741 0.549283

v 38.52519 16.755 33.7215
vn 0.5620769 0.7870185 0.254306
vt 0.9500001 0.725

v 27.26739 20.82672 35.5676
vn 0.2681097 0.9325678 0.2417325
vt 0.9500001 0.625

v 12.76444 23.11041 36.05292
vn 0.1049405 0.9693762 0.2220303
vt 0.9500001 0.55

v -45.66514 9.505241 30.13754
vn -0.8839452 0.3946875 0.2507245
vt 0.1160714 0.8285714

v -38.01022 16.755 33.7215
vn -0.5620769 0.7870186 0.2543059
vt 0 0.725

v -42.11728 7.467346 40.51117
vn -0.8267118 0.3141147 0.4667758
vt 0.075 0.8

v 38.52519 16.755 33.7215
vn 0.5620769 0.7870185 0.254306
vt 0 0.725

v 42.63225 7.467344 40.51117
vn 0.8267117 0.3141144 0.4667762
vt 0.075 0.8

v 46.18011 9.505245 30.13757
vn 0.8839452 0.3946872 0.2507247
vt 0.1160714 0.8285714

v 0.2574835 17.77678 51.07874
vn 2.147869E-08 0.7772409 0.6292033
vt 0.05 0.5

v 0.2574836 -1.561356E-02 62.85858
vn -7.632749E-08 -1.795941E-08 1
vt 0.15 0.5

v 0.2574825 23.73239 36.32245
vn 1.889288E-09 0.9758773 0.2183202
vt 0 0.5

v 0.2574835 -17.80801 51.07874
vn -5.272042E-08 -0.7772409 0.6292033
vt 0.275 0.5

v 0.2574825 -23.76361 36.32245
vn 4.061968E-08 -0.9758772 0.2183201
vt 0.35 0.5

v 0.2574825 -24.82628 18.96542
vn 6.299427E-08 -0.9976944 -6.786621E-02
vt 0.425 0.5

v 0.2574825 -21.98513 4.77655
vn 4.472453E-08 -0.8853381 -0.4649478
vt 0.5 0.5

v 0.2574844 -16.22492 -1.095093
vn 1.291931E-08 -0.4298381 -0.902906
vt 0.55 0.5

v 0.2574836 -1.561165E-02 -2.518402
vn 0 -1.122319E-08 -1
vt 0.65 0.5

v 0.2574844 16.1937 -1.095093
vn -4.968967E-09 0.4298382 -0.9029059
vt 0.7500001 0.5

v 0.2574825 21.9539 4.77655
vn -4.375225E-08 0.8853382 -0.4649476
vt 0.8000001 0.5

v 0.2574825 24.79506 18.96542
vn -6.017363E-08 0.9976944 -6.786625E-02
vt 0.8750001 0.5

v 0.2574825 23.73239 36.32245
vn 1.889288E-09 0.9758773 0.2183202
vt 0.9500001 0.5
# 131 vertice(s) in part #1.

f 1/1/1 2/2/2 3/3/3
f 3/3/3 2/2/2 4/4/4
f 4/4/4 2/2/2 5/5/5
f 5/5/5 2/2/2 6/6/6
f 7/7/7 2/2/2 8/8/8
f 9/9/9 113/113/113 10/10/10
f 114/114/114 115/115/115 11/11/11
f 12/12/12 13/13/13 14/14/14
f 12/12/12 14/14/14 15/15/15
f 16/16/16 4/4/4 5/5/5
f 16/16/16 5/5/5 17/17/17
f 18/18/18 5/5/5 19/19/19
f 19/19/19 5/5/5 6/6/6
f 20/20/20 7/7/7 21/21/21
f 21/21/21 7/7/7 22/22/22
f 23/23/23 114/114/114 11/11/11
f 23/23/23 11/11/11 24/24/24
f 25/25/25 12/12/12 15/15/15
f 25/25/25 15/15/15 26/26/26
f 27/27/27 16/16/16 17/17/17
f 27/27/27 17/17/17 28/28/28
f 29/29/29 18/18/18 19/19/19
f 29/29/29 19/19/19 30/30/30
f 31/31/31 20/20/20 32/32/32
f 33/33/33 21/21/21 22/22/22
f 33/33/33 22/22/22 34/34/34
f 35/35/35 23/23/23 24/24/24
f 35/35/35 24/24/24 36/36/36
f 37/37/37 25/25/25 26/26/26
f 37/37/37 26/26/26 38/38/38
f 39/39/39 27/27/27 28/28/28
f 39/39/39 28/28/28 40/40/40
f 41/41/41 29/29/29 30/30/30
f 41/41/41 30/30/30 42/42/42
f 43/43/43 31/31/31 32/32/32
f 43/43/43 32/32/32 44/44/44
f 45/45/45 33/33/33 34/34/34
f 45/45/45 34/34/34 46/46/46
f 3/3/3 13/13/13 115/115/115
f 115/115/115 1/1/1 3/3/3
f 4/4/4 14/14/14 3/3/3
f 14/14/14 13/13/13 3/3/3
f 115/115/115 13/13/13 12/12/12
f 115/115/115 12/12/12 11/11/11
f 14/14/14 4/4/4 16/16/16
f 14/14/14 16/16/16 15/15/15
f 5/5/5 18/18/18 17/17/17
f 6/6/6 7/7/7 20/20/20
f 7/7/7 8/8/8 47/47/47
f 7/7/7 47/47/47 22/22/22
f 11/11/11 12/12/12 48/48/48
f 11/11/11 48/48/48 24/24/24
f 15/15/15 16/16/16 27/27/27
f 15/15/15 27/27/27 26/26/26
f 17/17/17 18/18/18 29/29/29
f 17/17/17 29/29/29 28/28/28
f 19/19/19 49/49/49 30/30/30
f 20/20/20 21/21/21 33/33/33
f 20/20/20 33/33/33 32/32/32
f 22/22/22 47/47/47 50/50/50
f 22/22/22 50/50/50 34/34/34
f 24/24/24 48/48/48 37/37/37
f 24/24/24 37/37/37 36/36/36
f 37/37/37 51/51/51 52/52/52
f 37/37/37 52/52/52 36/36/36
f 52/52/52 53/53/53 35/35/35
f 52/52/52 35/35/35 36/36/36
f 26/26/26 27/27/27 39/39/39
f 26/26/26 39/39/39 38/38/38
f 39/39/39 54/54/54 55/55/55
f 39/39/39 55/55/55 38/38/38
f 55/55/55 51/51/51 37/37/37
f 55/55/55 37/37/37 38/38/38
f 28/28/28 29/29/29 41/41/41
f 28/28/28 41/41/41 40/40/40
f 41/41/41 56/56/56 57/57/57
f 41/41/41 57/57/57 40/40/40
f 57/57/57 54/54/54 39/39/39
f 57/57/57 39/39/39 40/40/40
f 30/30/30 49/49/49 43/43/43
f 30/30/30 43/43/43 42/42/42
f 43/43/43 58/58/58 59/59/59
f 43/43/43 59/59/59 42/42/42
f 59/59/59 56/56/56 41/41/41
f 59/59/59 41/41/41 42/42/42
f 32/32/32 33/33/33 45/45/45
f 32/32/32 45/45/45 44/44/44
f 45/45/45 60/60/60 61/61/61
f 45/45/45 61/61/61 44/44/44
f 61/61/61 58/58/58 43/43/43
f 61/61/61 43/43/43 44/44/44
f 34/34/34 50/50/50 62/62/62
f 34/34/34 62/62/62 46/46/46
f 62/62/62 63/63/63 64/64/64
f 62/62/62 64/64/64 46/46/46
f 64/64/64 60/60/60 45/45/45
f 64/64/64 45/45/45 46/46/46
f 6/6/6 2/2/2 7/7/7
f 65/65/65 66/66/66 67/67/67
f 66/66/66 68/68/68 67/67/67
f 68/68/68 69/69/69 67/67/67
f 69/69/69 70/70/70 67/67/67
f 71/71/71 72/72/72 67/67/67
f 73/73/73 74/74/74 75/75/75
f 116/116/116 117/117/117 118/118/118
f 76/76/76 77/77/77 78/78/78
f 76/76/76 78/78/78 79/79/79
f 80/80/80 81/81/81 69/69/69
f 80/80/80 69/69/69 68/68/68
f 82/82/82 83/83/83 69/69/69
f 83/83/83 70/70/70 69/69/69
f 83/83/83 84/84/84 71/71/71
f 84/84/84 85/85/85 71/71/71
f 86/86/86 87/87/87 74/74/74
f 86/86/86 74/74/74 73/73/73
f 88/88/88 89/89/89 77/77/77
f 88/88/88 77/77/77 76/76/76
f 90/90/90 91/91/91 81/81/81
f 90/90/90 81/81/81 80/80/80
f 92/92/92 93/93/93 83/83/83
f 92/92/92 83/83/83 82/82/82
f 94/94/94 95/95/95 83/83/83
f 96/96/96 97/97/97 85/85/85
f 96/96/96 85/85/85 84/84/84
f 98/98/98 99/99/99 87/87/87
f 98/98/98 87/87/87 86/86/86
f 100/100/100 101/101/101 89/89/89
f 100/100/100 89/89/89 88/88/88
f 102/102/102 103/103/103 91/91/91
f 102/102/102 91/91/91 90/90/90
f 104/104/104 105/105/105 93/93/93
f 104/104/104 93/93/93 92/92/92
f 106/106/106 107/107/107 95/95/95
f 106/106/106 95/95/95 94/94/94
f 108/108/108 109/109/109 97/97/97
f 108/108/108 97/97/97 96/96/96
f 66/66/66 75/75/75 79/79/79
f 75/75/75 66/66/66 65/65/65
f 68/68/68 66/66/66 78/78/78
f 78/78/78 66/66/66 79/79/79
f 75/75/75 74/74/74 76/76/76
f 75/75/75 76/76/76 79/79/79
f 78/78/78 77/77/77 80/80/80
f 78/78/78 80/80/80 68/68/68
f 69/69/69 81/81/81 82/82/82
f 70/70/70 83/83/83 71/71/71
f 71/71/71 85/85/85 110/110/110
f 71/71/71 110/110/110 72/72/72
f 74/74/74 87/87/87 88/88/88
f 74/74/74 88/88/88 76/76/76
f 77/77/77 89/89/89 90/90/90
f 77/77/77 90/90/90 80/80/80
f 81/81/81 91/91/91 92/92/92
f 81/81/81 92/92/92 82/82/82
f 83/83/83 93/93/93 94/94/94
f 83/83/83 95/95/95 96/96/96
f 83/83/83 96/96/96 84/84/84
f 85/85/85 97/97/97 111/111/111
f 85/85/85 111/111/111 110/110/110
f 87/87/87 99/99/99 100/100/100
f 87/87/87 100/100/100 88/88/88
f 100/100/100 99/99/99 119/119/119
f 100/100/100 119/119/119 120/120/120
f 119/119/119 99/99/99 98/98/98
f 119/119/119 98/98/98 121/121/121
f 89/89/89 101/101/101 102/102/102
f 89/89/89 102/102/102 90/90/90
f 102/102/102 101/101/101 122/122/122
f 102/102/102 122/122/122 123/123/123
f 122/122/122 101/101/101 100/100/100
f 122/122/122 100/100/100 120/120/120
f 91/91/91 103/103/103 104/104/104
f 91/91/91 104/104/104 92/92/92
f 104/104/104 103/103/103 124/124/124
f 104/104/104 124/124/124 125/125/125
f 124/124/124 103/103/103 102/102/102
f 124/124/124 102/102/102 123/123/123
f 93/93/93 105/105/105 106/106/106
f 93/93/93 106/106/106 94/94/94
f 106/106/106 105/105/105 126/126/126
f 106/106/106 126/126/126 127/127/127
f 126/126/126 105/105/105 104/104/104
f 126/126/126 104/104/104 125/125/125
f 95/95/95 107/107/107 108/108/108
f 95/95/95 108/108/108 96/96/96
f 108/108/108 107/107/107 128/128/128
f 108/108/108 128/128/128 129/129/129
f 128/128/128 107/107/107 106/106/106
f 128/128/128 106/106/106 127/127/127
f 97/97/97 109/109/109 112/112/112
f 97/97/97 112/112/112 111/111/111
f 112/112/112 109/109/109 130/130/130
f 112/112/112 130/130/130 131/131/131
f 130/130/130 109/109/109 108/108/108
f 130/130/130 108/108/108 129/129/129
f 70/70/70 71/71/71 67/67/67
# 196 listed triangle(s).
# 1  Mesh part(s).

# EOF
