mtllib bst_fighter3.mtl

g Tur_Fighter
usemtl Tur_Fighter

v 3.935232 2.107267 7.50015
vt 0.216656 0.456818
vn 0.419289 0.693162 0.586279

v 0 0.620194 12.07269
vt 0 0.375
vn 0.419289 0.693162 0.586279

v 3.279438 0.128124 10.30911
vt 0.083562 0.443183
vn 0.419289 0.693162 0.586279

v 0 0.620194 12.07269
vt 0 0.375
vn -0.419301 0.69315 0.586285

v -3.935232 2.107267 7.50015
vt 0.216656 0.293182
vn -0.419301 0.69315 0.586285

v -3.27936 0.128124 10.30911
vt 0.083562 0.306818
vn -0.419301 0.69315 0.586285

v 0 0.620194 12.07269
vt 0 0.375
vn 0 0.950973 0.309274

v 3.935232 2.107267 7.50015
vt 0.216656 0.456818
vn 0 0.950973 0.309274

v -3.935232 2.107267 7.50015
vt 0.216656 0.293182
vn 0 0.950973 0.309274

v -3.935232 2.107267 7.50015
vt 0.14523 0.625
vn 0 0 1

v -5.086754 -1.008 7.50015
vt 0.14523 0.665738
vn 0 0 1

v -3.935232 -2.672171 7.50015
vt 0.14523 0.687499
vn 0 0 1

v -3.935232 2.107267 7.50015
vt 0.14523 0.625
vn 0 0 1

v -5.086754 1.008 7.50015
vt 0.14523 0.639375
vn 0 0 1

v -5.086754 -1.008 7.50015
vt 0.14523 0.665738
vn 0 0 1

v 3.935232 2.107267 7.50015
vt 0.14523 0.625
vn 0 0 1

v 5.086754 -1.008 7.50015
vt 0.14523 0.665738
vn 0 0 1

v 5.086754 1.008 7.50015
vt 0.14523 0.639375
vn 0 0 1

v 3.935232 2.107267 7.50015
vt 0.14523 0.625
vn 0 0 1

v 3.935232 -2.672171 7.50015
vt 0.14523 0.687499
vn 0 0 1

v 5.086754 -1.008 7.50015
vt 0.14523 0.665738
vn 0 0 1

v 0 -2.24 12.09663
vt 0.250003 0.625
vn 0.477423 0.007354 0.878643

v 3.27936 -1.56688 10.30911
vt 6E-06 0.595582
vn 0.477423 0.007354 0.878643

v 0 0.620194 12.07269
vt 0.250003 0.5
vn 0.477423 0.007354 0.878643

v 0 -2.24 12.09663
vt 0.250003 0.625
vn -0.477423 0.007354 0.878643

v 0 0.620194 12.07269
vt 0.250003 0.5
vn -0.477423 0.007354 0.878643

v -3.27936 -1.56688 10.30911
vt 0.499995 0.595582
vn -0.477423 0.007354 0.878643

v 0 0.620194 12.07269
vt 0.250003 0.5
vn 0.473624 -2.2E-05 0.880727

v 3.27936 -1.56688 10.30911
vt 6E-06 0.595582
vn 0.473624 -2.2E-05 0.880727

v 3.279438 0.128124 10.30911
vt 0 0.521505
vn 0.473624 -2.2E-05 0.880727

v -3.27936 0.128124 10.30911
vt 0.499995 0.521505
vn -0.473636 0 0.880721

v -3.27936 -1.56688 10.30911
vt 0.499995 0.595582
vn -0.473636 0 0.880721

v 0 0.620194 12.07269
vt 0.250003 0.5
vn -0.473636 0 0.880721

v 0 -2.24 12.09663
vt 0 0.125
vn 0 -0.995609 0.093609

v -3.935232 -2.672171 7.50015
vt 0.217544 0.043182
vn 0 -0.995609 0.093609

v 3.935232 -2.672171 7.50015
vt 0.217544 0.206818
vn 0 -0.995609 0.093609

v 0 -2.24 12.09663
vt 0 0.125
vn -0.394393 -0.82002 0.414755

v -3.27936 -1.56688 10.30911
vt 0.0846 0.056818
vn -0.394393 -0.82002 0.414755

v -3.935232 -2.672171 7.50015
vt 0.217544 0.043182
vn -0.394393 -0.82002 0.414755

v 3.935232 -2.672171 7.50015
vt 0.217544 0.206818
vn 0.394393 -0.82002 0.414755

v 3.27936 -1.56688 10.30911
vt 0.0846 0.193182
vn 0.394393 -0.82002 0.414755

v 0 -2.24 12.09663
vt 0 0.125
vn 0.394393 -0.82002 0.414755

v 4.044544 -2.43544 -9.032348
vt 0.081818 0.749999
vn 0 0 -1

v 6.01216 1.008 -9.032348
vt 0 0.700302
vn 0 0 -1

v 6.01216 -1.008 -9.032348
vt 0 0.729398
vn 0 0 -1

v 4.044544 -2.43544 -9.032348
vt 0.081818 0.749999
vn 0 0 -1

v 4.044544 1.89504 -9.032348
vt 0.081818 0.6875
vn 0 0 -1

v 6.01216 1.008 -9.032348
vt 0 0.700302
vn 0 0 -1

v 4.044544 -2.43544 -9.032348
vt 0.081818 0.749999
vn 0 0 -1

v -4.044544 1.89504 -9.032348
vt 0.418182 0.6875
vn 0 0 -1

v 4.044544 1.89504 -9.032348
vt 0.081818 0.6875
vn 0 0 -1

v -4.044544 -2.43544 -9.032348
vt 0.418182 0.749999
vn 0 0 -1

v -4.044544 1.89504 -9.032348
vt 0.418182 0.6875
vn 0 0 -1

v 4.044544 -2.43544 -9.032348
vt 0.081818 0.749999
vn 0 0 -1

v -4.044544 -2.43544 -9.032348
vt 0.418182 0.749999
vn 0 0 -1

v -6.01216 1.008 -9.032348
vt 0.499995 0.700302
vn 0 0 -1

v -4.044544 1.89504 -9.032348
vt 0.418182 0.6875
vn 0 0 -1

v -6.01216 1.008 -9.032348
vt 0.499995 0.700302
vn 0 0 -1

v -4.044544 -2.43544 -9.032348
vt 0.418182 0.749999
vn 0 0 -1

v -6.01216 -1.008 -9.032348
vt 0.499995 0.729398
vn 0 0 -1

v 4.044544 -2.43544 -9.032348
vt 0.99999 0.209091
vn 0.822327 -0.569009 -0.002711

v 5.086754 -1.008 7.50015
vt 0.217544 0.23076
vn 0.822327 -0.569009 -0.002711

v 3.935232 -2.672171 7.50015
vt 0.217544 0.206818
vn 0.822327 -0.569009 -0.002711

v 5.086754 -1.008 7.50015
vt 0.217544 0.23076
vn 0.586898 -0.808994 0.032852

v 4.044544 -2.43544 -9.032348
vt 0.99999 0.209091
vn 0.586898 -0.808994 0.032852

v 6.01216 -1.008 -9.032348
vt 0.99999 0.249997
vn 0.586898 -0.808994 0.032852

v -5.086754 -1.008 7.50015
vt 0.217544 0.01924
vn -0.822327 -0.569009 -0.002711

v -4.044544 -2.43544 -9.032348
vt 0.99999 0.040909
vn -0.822327 -0.569009 -0.002711

v -3.935232 -2.672171 7.50015
vt 0.217544 0.043182
vn -0.822327 -0.569009 -0.002711

v -4.044544 -2.43544 -9.032348
vt 0.99999 0.040909
vn -0.586898 -0.808994 0.032852

v -5.086754 -1.008 7.50015
vt 0.217544 0.01924
vn -0.586898 -0.808994 0.032852

v -6.01216 -1.008 -9.032348
vt 0.99999 0
vn -0.586898 -0.808994 0.032852

v -4.044544 1.89504 -9.032348
vt 0.99999 0.290909
vn 0 0.728369 -0.685185

v 1.872021 3.914388 -6.885727
vt 0.898289 0.413922
vn 0 0.728369 -0.685185

v 4.044544 1.89504 -9.032348
vt 0.99999 0.459091
vn 0 0.728369 -0.685185

v 1.872021 3.914388 -6.885727
vt 0.898289 0.413922
vn 0 0.728369 -0.685185

v -4.044544 1.89504 -9.032348
vt 0.99999 0.290909
vn 0 0.728369 -0.685185

v -1.872021 3.914388 -6.885727
vt 0.898289 0.336078
vn 0 0.728369 -0.685185

v 4.044544 1.89504 -9.032348
vt 0.99999 0.459091
vn 0.660417 0.749981 -0.037129

v 1.872021 3.914388 -6.885727
vt 0.898289 0.413922
vn 0.660417 0.749981 -0.037129

v 3.326255 2.780388 -3.925148
vt 0.75801 0.444157
vn 0.660417 0.749981 -0.037129

v -4.044544 1.89504 -9.032348
vt 0.99999 0.290909
vn -0.660417 0.749981 -0.037129

v -3.326255 2.780388 -3.925148
vt 0.75801 0.305843
vn -0.660417 0.749981 -0.037129

v -1.872021 3.914388 -6.885727
vt 0.898289 0.336078
vn -0.660417 0.749981 -0.037129

v 1.872021 3.914388 -6.885727
vt 0.898289 0.413922
vn 0 0.93384 0.357692

v -3.326255 2.780388 -3.925148
vt 0.75801 0.305843
vn 0 0.93384 0.357692

v 3.326255 2.780388 -3.925148
vt 0.75801 0.444157
vn 0 0.93384 0.357692

v -3.326255 2.780388 -3.925148
vt 0.75801 0.305843
vn 0 0.93384 0.357692

v 1.872021 3.914388 -6.885727
vt 0.898289 0.413922
vn 0 0.93384 0.357692

v -1.872021 3.914388 -6.885727
vt 0.898289 0.336078
vn 0 0.93384 0.357692

v 3.326255 2.780388 -3.925148
vt 0.75801 0.444157
vn 0.408937 0.907096 -0.099734

v 6.01216 1.008 -9.032348
vt 0.99999 0.499997
vn 0.408937 0.907096 -0.099734

v 4.044544 1.89504 -9.032348
vt 0.99999 0.459091
vn 0.408937 0.907096 -0.099734

v 5.086754 1.008 7.50015
vt 0.216656 0.48076
vn 0.690493 0.723316 0.00581

v 3.326255 2.780388 -3.925148
vt 0.75801 0.444157
vn 0.690493 0.723316 0.00581

v 3.935232 2.107267 7.50015
vt 0.216656 0.456818
vn 0.690493 0.723316 0.00581

v 3.326255 2.780388 -3.925148
vt 0.75801 0.444157
vn 0.593727 0.80398 0.033234

v 5.086754 1.008 7.50015
vt 0.216656 0.48076
vn 0.593727 0.80398 0.033234

v 6.01216 1.008 -9.032348
vt 0.99999 0.499997
vn 0.593727 0.80398 0.033234

v -6.01216 1.008 -9.032348
vt 0.99999 0.25
vn -0.408937 0.907096 -0.099734

v -3.326255 2.780388 -3.925148
vt 0.75801 0.305843
vn -0.408937 0.907096 -0.099734

v -4.044544 1.89504 -9.032348
vt 0.99999 0.290909
vn -0.408937 0.907096 -0.099734

v -3.326255 2.780388 -3.925148
vt 0.75801 0.305843
vn -0.690493 0.723316 0.00581

v -5.086754 1.008 7.50015
vt 0.216656 0.26924
vn -0.690493 0.723316 0.00581

v -3.935232 2.107267 7.50015
vt 0.216656 0.293182
vn -0.690493 0.723316 0.00581

v -5.086754 1.008 7.50015
vt 0.216656 0.26924
vn -0.593727 0.80398 0.033234

v -3.326255 2.780388 -3.925148
vt 0.75801 0.305843
vn -0.593727 0.80398 0.033234

v -6.01216 1.008 -9.032348
vt 0.99999 0.25
vn -0.593727 0.80398 0.033234

v 6.01216 -1.008 -9.032348
vt 0.99999 0.665738
vn 0.998437 0 0.055887

v 5.086754 1.008 7.50015
vt 0.14523 0.639375
vn 0.998437 0 0.055887

v 5.086754 -1.008 7.50015
vt 0.14523 0.665738
vn 0.998437 0 0.055887

v 5.086754 1.008 7.50015
vt 0.14523 0.639375
vn 0.998437 0 0.055887

v 6.01216 -1.008 -9.032348
vt 0.99999 0.665738
vn 0.998437 0 0.055887

v 6.01216 1.008 -9.032348
vt 0.99999 0.639375
vn 0.998437 0 0.055887

v -6.01216 1.008 -9.032348
vt 0.99999 0.639375
vn -0.998437 0 0.055887

v -5.086754 -1.008 7.50015
vt 0.14523 0.665738
vn -0.998437 0 0.055887

v -5.086754 1.008 7.50015
vt 0.14523 0.639375
vn -0.998437 0 0.055887

v -5.086754 -1.008 7.50015
vt 0.14523 0.665738
vn -0.998437 0 0.055887

v -6.01216 1.008 -9.032348
vt 0.99999 0.639375
vn -0.998437 0 0.055887

v -6.01216 -1.008 -9.032348
vt 0.99999 0.665738
vn -0.998437 0 0.055887

v -4.044544 -2.43544 -9.032348
vt 0.99999 0.040909
vn 0 -0.999897 -0.014318

v 3.935232 -2.672171 7.50015
vt 0.217544 0.206818
vn 0 -0.999897 -0.014318

v -3.935232 -2.672171 7.50015
vt 0.217544 0.043182
vn 0 -0.999897 -0.014318

v 3.935232 -2.672171 7.50015
vt 0.217544 0.206818
vn 0 -0.999897 -0.014318

v -4.044544 -2.43544 -9.032348
vt 0.99999 0.040909
vn 0 -0.999897 -0.014318

v 4.044544 -2.43544 -9.032348
vt 0.99999 0.209091
vn 0 -0.999897 -0.014318

v 3.935232 -2.672171 7.50015
vt 0.14523 0.687499
vn 0.973803 -4.5E-05 0.227394

v 3.279438 0.128124 10.30911
vt 0 0.650881
vn 0.973803 -4.5E-05 0.227394

v 3.27936 -1.56688 10.30911
vt 0 0.673046
vn 0.973803 -4.5E-05 0.227394

v 3.279438 0.128124 10.30911
vt 0 0.650881
vn 0.973813 0 0.227351

v 3.935232 -2.672171 7.50015
vt 0.14523 0.687499
vn 0.973813 0 0.227351

v 3.935232 2.107267 7.50015
vt 0.14523 0.625
vn 0.973813 0 0.227351

v -3.27936 0.128124 10.30911
vt 0 0.650881
vn -0.973807 0 0.227377

v -3.935232 -2.672171 7.50015
vt 0.14523 0.687499
vn -0.973807 0 0.227377

v -3.27936 -1.56688 10.30911
vt 0 0.673046
vn -0.973807 0 0.227377

v -3.935232 -2.672171 7.50015
vt 0.14523 0.687499
vn -0.973807 0 0.227377

v -3.27936 0.128124 10.30911
vt 0 0.650881
vn -0.973807 0 0.227377

v -3.935232 2.107267 7.50015
vt 0.14523 0.625
vn -0.973807 0 0.227377

v -3.326255 2.780388 -3.925148
vt 0.75801 0.305843
vn 0 0.998269 0.058813

v 3.935232 2.107267 7.50015
vt 0.216656 0.456818
vn 0 0.998269 0.058813

v 3.326255 2.780388 -3.925148
vt 0.75801 0.444157
vn 0 0.998269 0.058813

v 3.935232 2.107267 7.50015
vt 0.216656 0.456818
vn 0 0.998269 0.058813

v -3.326255 2.780388 -3.925148
vt 0.75801 0.305843
vn 0 0.998269 0.058813

v -3.935232 2.107267 7.50015
vt 0.216656 0.293182
vn 0 0.998269 0.058813

# 144 vertice(s).

f 1/1/1 2/2/2 3/3/3
f 4/4/4 5/5/5 6/6/6
f 7/7/7 8/8/8 9/9/9
f 10/10/10 11/11/11 12/12/12
f 13/13/13 14/14/14 15/15/15
f 16/16/16 17/17/17 18/18/18
f 19/19/19 20/20/20 21/21/21
f 22/22/22 23/23/23 24/24/24
f 25/25/25 26/26/26 27/27/27
f 28/28/28 29/29/29 30/30/30
f 31/31/31 32/32/32 33/33/33
f 34/34/34 35/35/35 36/36/36
f 37/37/37 38/38/38 39/39/39
f 40/40/40 41/41/41 42/42/42
f 43/43/43 44/44/44 45/45/45
f 46/46/46 47/47/47 48/48/48
f 49/49/49 50/50/50 51/51/51
f 52/52/52 53/53/53 54/54/54
f 55/55/55 56/56/56 57/57/57
f 58/58/58 59/59/59 60/60/60
f 61/61/61 62/62/62 63/63/63
f 64/64/64 65/65/65 66/66/66
f 67/67/67 68/68/68 69/69/69
f 70/70/70 71/71/71 72/72/72
f 73/73/73 74/74/74 75/75/75
f 76/76/76 77/77/77 78/78/78
f 79/79/79 80/80/80 81/81/81
f 82/82/82 83/83/83 84/84/84
f 85/85/85 86/86/86 87/87/87
f 88/88/88 89/89/89 90/90/90
f 91/91/91 92/92/92 93/93/93
f 94/94/94 95/95/95 96/96/96
f 97/97/97 98/98/98 99/99/99
f 100/100/100 101/101/101 102/102/102
f 103/103/103 104/104/104 105/105/105
f 106/106/106 107/107/107 108/108/108
f 109/109/109 110/110/110 111/111/111
f 112/112/112 113/113/113 114/114/114
f 115/115/115 116/116/116 117/117/117
f 118/118/118 119/119/119 120/120/120
f 121/121/121 122/122/122 123/123/123
f 124/124/124 125/125/125 126/126/126
f 127/127/127 128/128/128 129/129/129
f 130/130/130 131/131/131 132/132/132
f 133/133/133 134/134/134 135/135/135
f 136/136/136 137/137/137 138/138/138
f 139/139/139 140/140/140 141/141/141
f 142/142/142 143/143/143 144/144/144
# 144 indices; 48 primitives.

# 1 primitive groups.

# 1 parts.

