# Wavefront Object File.
# Created by Cold Fusion HOD Editor v3.2.0
# Date: 01-15-2013; Time: 10:16:24
# 

# Mesh Part #1
g Part1
usemtl Material_0

v 17.62768 26.71347 19.77443
vn 2.991905E-02 0.9932385 0.1121701
vt 0.161749 0.9580622

v 22.34047 26.71347 -4.356533
vn -9.697514E-04 0.9999954 2.864756E-03
vt 0.395153 0.9744194

v -2.940515 26.71236 -12.52693
vn -4.720236E-04 0.9999989 1.42138E-03
vt 0.475154 0.86401

v 3.949781 24.4914 33.10803
vn 2.898725E-02 0.9695697 0.2430932
vt 0.0972488 0.895106

v 12.20873 19.95148 45.02987
vn 5.803571E-02 0.945668 0.3199122
vt 0.0226658 0.9342864

v 6.263096 19.93692 45.01924
vn -2.926267E-03 0.9338531 0.3576449
vt 0.0227576 0.9062796

v -18.49064 26.71347 19.77443
vn -2.330063E-02 0.992164 0.1227504
vt 0.161749 0.79148

v -4.494583 24.48636 33.11811
vn -3.758433E-02 0.9624034 0.2690117
vt 0.0971597 0.855898

v -23.00603 26.71347 -4.356533
vn 5.140587E-05 1 -9.619073E-06
vt 0.395153 0.776108

v 1.508399 26.72075 -12.51741
vn -1.898191E-03 0.9999818 5.737553E-03
vt 0.475072 0.883223

v -13.04414 19.95148 45.02987
vn -5.604833E-02 0.9458098 0.3198474
vt 0.0226658 0.815336

v -6.805232 19.93132 45.02092
vn 3.530773E-03 0.9337132 0.3580045
vt 0.0227443 0.844724

v 1.508399 26.72075 -12.51741
vn 0.1433005 0.4824774 -0.8641068
vt 0.262295 0.505903

v 32.33597 -9.372343E-02 -17.64869
vn 0.2839842 0.484789 -0.827244
vt 0.495149 0.748256

v 1.591223 -9.372343E-02 -26.80134
vn 0.127336 0.4666286 -0.875239
vt 0.262637 0.748256

v 22.34047 26.71347 -4.356533
vn 0.3132457 0.513055 -0.7991568
vt 0.423124 0.505972

v -32.86702 -9.372343E-02 -17.64869
vn -0.2929535 0.4845433 -0.8242549
vt 2.42958E-03 0.748256

v -2.940515 26.71236 -12.52693
vn -0.1968628 0.4845037 -0.8523504
vt 0.228412 0.505985

v -3.090707 -9.372343E-02 -26.7935
vn -8.800409E-02 0.4684878 -0.8790759
vt 0.227742 0.748256

v -23.00603 26.71347 -4.356533
vn -0.3236465 0.5132018 -0.7949068
vt 0.0733909 0.505972

v -18.49064 26.71347 19.77443
vn -0.9356914 0.2771067 0.2183885
vt 0.754493 0.75043

v -17.20802 3.004751 48.14234
vn -0.922159 0.2752692 0.2717529
vt 0.515923 0.9601116

v -13.04414 19.95148 45.02987
vn -0.9214906 0.2765095 0.2727592
vt 0.524387 0.810919

v 17.62768 26.71347 19.77443
vn 0.934213 0.2795754 0.2215481
vt 0.754493 0.75043

v 12.20873 19.95148 45.02987
vn 0.9205881 0.2798075 0.2724433
vt 0.524387 0.810919

v 16.43847 3.004751 48.14234
vn 0.9211905 0.2786988 0.271542
vt 0.515923 0.9601117

v -27.38411 -9.372343E-02 16.59363
vn -0.9349177 0.2850926 0.211308
vt 0.753066 0.9902362

v 26.63433 -9.372343E-02 16.59363
vn 0.9333378 0.2881794 0.2140868
vt 0.753066 0.9902363

v 32.33597 -9.372343E-02 -17.64869
vn 0.944744 0.2797056 0.1709491
vt 0.980575 0.9902363

v 22.34047 26.71347 -4.356533
vn 0.9473105 0.2614843 0.1850102
vt 0.91607 0.75043

v -32.86702 -9.372343E-02 -17.64869
vn -0.9463868 0.2781035 0.1643487
vt 0.980575 0.9902361

v -23.00603 26.71347 -4.356533
vn -0.9488693 0.2610022 0.1775525
vt 0.91607 0.75043

v 6.263096 19.93692 45.01924
vn -1.099668E-03 0.1807488 0.9835287
vt 0.943711 0.64179

v 16.43847 3.004751 48.14234
vn -1.099668E-03 0.1807488 0.9835287
vt 0.791929 0.749586

v 12.20873 19.95148 45.02987
vn -2.199335E-03 0.1801093 0.9836442
vt 0.944566 0.703631

v 6.231736 3.004751 48.14234
vn 0 0.1813881 0.9834116
vt 0.790818 0.642908

v -17.20802 3.004751 48.14234
vn 9.96577E-04 0.1807593 0.9835268
vt 0.791671 0.749285

v -6.805232 19.93132 45.02092
vn 9.96577E-04 0.1807593 0.9835268
vt 0.94407 0.64191

v -13.04414 19.95148 45.02987
vn 1.993153E-03 0.1801666 0.9836341
vt 0.944616 0.703947

v -6.773032 3.004751 48.14234
vn 0 0.1813518 0.9834183
vt 0.79095 0.643078

v 3.908839 18.35659 42.9702
vn -1.690296E-04 0.8490081 0.5283798
vt 0.641623 0.741026

v 3.949781 24.4914 33.10803
vn 1.239335E-04 0.8491202 0.5281997
vt 0.641623 0.627009

v -4.494583 24.48636 33.11811
vn -1.690296E-04 0.8490081 0.5283798
vt 0.541568 0.627147

v -4.451821 18.351 42.97187
vn -4.619926E-04 0.8488959 0.5285599
vt 0.541568 0.741047

v -4.451821 18.351 42.97187
vn 0.7170634 0.5930799 0.3661644
vt 0.578987 0.732544

v -4.494583 24.48636 33.11811
vn 0.7170634 0.5930799 0.3661644
vt 0.578987 0.732847

v -6.805232 19.93132 45.02092
vn 0.7170634 0.5930799 0.3661644
vt 0.571035 0.729307

v 6.263096 19.93692 45.01924
vn -0.7169049 0.593313 0.366097
vt 0.614841 0.729332

v 3.949781 24.4914 33.10803
vn -0.7169049 0.593313 0.366097
vt 0.606889 0.732872

v 3.908839 18.35659 42.9702
vn -0.7169049 0.593313 0.366097
vt 0.606889 0.732569

v -4.451821 18.351 42.97187
vn 2.166601E-05 0.2263029 0.974057
vt 0.645203 0.5003

v -4.425378 4.55092 46.17786
vn 0 0.2262904 0.9740599
vt 0.645203 0.623138

v 3.883538 4.55092 46.17786
vn 2.166601E-05 0.2263029 0.974057
vt 0.749683 0.623138

v 3.908839 18.35659 42.9702
vn 4.333203E-05 0.2263153 0.9740541
vt 0.749683 0.500248

v -6.805232 19.93132 45.02092
vn 0.6436275 0.1559526 0.7492813
vt 0.679011 0.515167

v -6.773032 3.004751 48.14234
vn 0.5747905 0.1494576 0.8045361
vt 0.651377 0.515235

v -4.425378 4.55092 46.17786
vn 0.6436275 0.1559526 0.7492813
vt 0.653901 0.520201

v -4.451821 18.351 42.97187
vn 0.7074224 0.1612259 0.6881568
vt 0.676431 0.520145

v 6.231736 3.004751 48.14234
vn -0.6294084 0.1608926 0.760236
vt 0.651377 0.542744

v 6.263096 19.93692 45.01924
vn -0.6994075 0.1308948 0.7026349
vt 0.679021 0.542811

v 3.908839 18.35659 42.9702
vn -0.6294084 0.1608926 0.760236
vt 0.67644 0.537831

v 3.883538 4.55092 46.17786
vn -0.5536705 0.1894235 0.8109055
vt 0.653901 0.537777

v -4.425378 4.55092 46.17786
vn 2.632092E-04 -0.9590392 0.2832732
vt 0.559296 0.659663

v -4.467059 1.834917 36.9905
vn 5.264183E-04 -0.9589741 0.2834933
vt 0.559296 0.737182

v 3.923371 1.840522 36.99388
vn 2.632092E-04 -0.9590392 0.2832732
vt 0.622633 0.737095

v 3.883538 4.55092 46.17786
vn 0 -0.9591042 0.2830531
vt 0.622633 0.659664

v -6.773032 3.004751 48.14234
vn 0.6548495 -0.7255557 0.2115207
vt 0.541245 0.631666

v -4.467059 1.834917 36.9905
vn 0.6548495 -0.7255557 0.2115207
vt 0.559296 0.737182

v -4.425378 4.55092 46.17786
vn 0.6548495 -0.7255557 0.2115207
vt 0.559296 0.659663

v 3.923371 1.840522 36.99388
vn -0.6546841 -0.7257555 0.2113472
vt 0.622633 0.737095

v 6.231736 3.004751 48.14234
vn -0.6546841 -0.7257555 0.2113472
vt 0.640684 0.631666

v 3.883538 4.55092 46.17786
vn -0.6546841 -0.7257555 0.2113472
vt 0.622633 0.659664

v 3.923371 1.840522 36.99388
vn 1.226646E-03 -0.9952149 9.770203E-02
vt 0.171686 0.854135

v 16.43847 3.004751 48.14234
vn 2.13954E-03 -0.9948344 0.1014883
vt 0.110019 0.7919

v 6.231736 3.004751 48.14234
vn 0 -0.9945915 0.1038648
vt 0.110019 0.842444

v 26.63433 -9.372343E-02 16.59363
vn 2.13954E-03 -0.9953063 9.675165E-02
vt 0.196785 0.752375

v -6.773032 3.004751 48.14234
vn 0 -0.9945429 0.1043281
vt 0.110019 0.9068456

v -17.20802 3.004751 48.14234
vn -2.271301E-03 -0.9948063 0.1017608
vt 0.110019 0.9585211

v -4.467059 1.834917 36.9905
vn -1.30505E-03 -0.9950879 9.898704E-02
vt 0.171712 0.895155

v -27.38411 -9.372343E-02 16.59363
vn -1.305041E-03 -0.9954119 9.567413E-02
vt 0.196785 0.9979129
# 80 vertice(s) in part #1.

f 1/1/1 2/2/2 3/3/3
f 1/1/1 4/4/4 5/5/5
f 6/6/6 5/5/5 4/4/4
f 7/7/7 1/1/1 3/3/3
f 8/8/8 4/4/4 7/7/7
f 7/7/7 3/3/3 9/9/9
f 2/2/2 10/10/10 3/3/3
f 8/8/8 11/11/11 12/12/12
f 1/1/1 7/7/7 4/4/4
f 7/7/7 11/11/11 8/8/8
f 13/13/13 14/14/14 15/15/15
f 14/14/14 13/13/13 16/16/16
f 17/17/17 18/18/18 19/19/19
f 17/17/17 20/20/20 18/18/18
f 18/18/18 13/13/13 19/19/19
f 15/15/15 19/19/19 13/13/13
f 21/21/21 22/22/22 23/23/23
f 24/24/24 25/25/25 26/26/26
f 22/22/22 21/21/21 27/27/27
f 24/24/24 26/26/26 28/28/28
f 29/29/29 30/30/30 24/24/24
f 31/31/31 21/21/21 32/32/32
f 21/21/21 31/31/31 27/27/27
f 29/29/29 24/24/24 28/28/28
f 33/33/33 34/34/34 35/35/35
f 33/33/33 36/36/36 34/34/34
f 37/37/37 38/38/38 39/39/39
f 38/38/38 37/37/37 40/40/40
f 41/41/41 42/42/42 43/43/43
f 41/41/41 43/43/43 44/44/44
f 45/45/45 46/46/46 47/47/47
f 48/48/48 49/49/49 50/50/50
f 51/51/51 52/52/52 53/53/53
f 51/51/51 53/53/53 54/54/54
f 55/55/55 56/56/56 57/57/57
f 55/55/55 57/57/57 58/58/58
f 59/59/59 60/60/60 61/61/61
f 59/59/59 61/61/61 62/62/62
f 63/63/63 64/64/64 65/65/65
f 63/63/63 65/65/65 66/66/66
f 67/67/67 68/68/68 69/69/69
f 70/70/70 71/71/71 72/72/72
f 73/73/73 74/74/74 75/75/75
f 74/74/74 73/73/73 76/76/76
f 77/77/77 78/78/78 79/79/79
f 80/80/80 79/79/79 78/78/78
f 80/80/80 76/76/76 73/73/73
f 79/79/79 80/80/80 73/73/73
# 48 listed triangle(s).
# 1  Mesh part(s).

# EOF
