mtllib cruiser_hw1_ion.mtl

g gun_top
usemtl gun_top

v 10.06808 5.296997 8.994121
vt 0.354918 0.869924
vn 0 0.993627 0.11272

v 12.06432 5.296997 -6.49984
vt 0.816172 0.938931
vn 0 1 0

v 0.197088 5.297 -12.50848
vt 0.995049 0.5287
vn 0 1 0

v -14.38684 -5.296996 15.33032
vt 0.166291 0.024558
vn 0 -0.777294 0.629137

v 9.64448 -0.910451 20.74988
vt 0.00495 0.85528
vn 0 -0.777294 0.629137

v -9.791841 -0.910445 20.74988
vt 0.00495 0.1834
vn 0 -0.777294 0.629137

v 10.06808 5.296997 8.994121
vt 0.354918 0.869924
vn 0 0.993627 0.11272

v -7.350479 3.00875 18.94984
vt 0.058538 0.267794
vn 0 0.974588 0.224004

v 7.166441 3.008746 18.94984
vt 0.058538 0.769619
vn 0 0.974588 0.224004

v -10.26188 5.297003 8.994121
vt 0.354918 0.167151
vn 0 0.997177 0.075093

v 10.06808 5.296997 8.994121
vt 0.354918 0.869924
vn 0 0.993627 0.11272

v 0.197088 5.297 -12.50848
vt 0.995049 0.5287
vn 0 1 0

v 9.64448 -0.910451 20.74988
vt 0.00495 0.85528
vn 0 -0.777294 0.629137

v -14.38684 -5.296996 15.33032
vt 0.166291 0.024558
vn 0 -0.777294 0.629137

v 14.25496 -5.297005 15.33032
vt 0.166291 1.014657
vn 0 -0.777294 0.629137

v -7.350479 3.00875 18.94984
vt 0.058538 0.267794
vn 0 0.974588 0.224004

v 10.06808 5.296997 8.994121
vt 0.354918 0.869924
vn 0 0.993627 0.11272

v -10.26188 5.297003 8.994121
vt 0.354918 0.167151
vn 0 0.997177 0.075093

v -10.26188 5.297003 8.994121
vt 0.354918 0.167151
vn 0 0.997177 0.075093

v 0.197088 5.297 -12.50848
vt 0.995049 0.5287
vn 0 1 0

v -12.138 5.297004 -6.49984
vt 0.816172 0.102297
vn 0 1 0

# 21 vertice(s).

f 1/1/1 2/2/2 3/3/3
f 4/4/4 5/5/5 6/6/6
f 7/7/7 8/8/8 9/9/9
f 10/10/10 11/11/11 12/12/12
f 13/13/13 14/14/14 15/15/15
f 16/16/16 17/17/17 18/18/18
f 19/19/19 20/20/20 21/21/21
# 21 indices; 7 primitives.

# 1 primitive groups.

g gun_sides
usemtl gun_sides

v -10.26188 5.297003 8.994121
vt 0.332902 0.00495
vn -0.857357 0.468972 0.212143

v -9.791841 -0.910445 20.74988
vt 0.00495 0.585089
vn -0.769304 0.551745 0.322101

v -7.350479 3.00875 18.94984
vt 0.055167 0.218808
vn -0.71539 0.60566 0.348415

v 10.06808 5.296997 8.994121
vt 0.332902 0.00495
vn 0.854886 0.472504 0.214268

v 7.166441 3.008746 18.94984
vt 0.055167 0.218808
vn 0.712078 0.609941 0.347731

v 9.64448 -0.910451 20.74988
vt 0.00495 0.585089
vn 0.766988 0.555591 0.321011

v -9.791841 -0.910445 20.74988
vt 0.00495 0.585089
vn -0.769304 0.551745 0.322101

v -10.26188 5.297003 8.994121
vt 0.332902 0.00495
vn -0.857357 0.468972 0.212143

v -14.38684 -5.296996 15.33032
vt 0.156141 0.995049
vn -0.871706 0.452253 0.188667

v 10.06808 5.296997 8.994121
vt 0.332902 0.00495
vn 0.854886 0.472504 0.214268

v 9.64448 -0.910451 20.74988
vt 0.00495 0.585089
vn 0.766988 0.555591 0.321011

v 14.25496 -5.297005 15.33032
vt 0.156141 0.995049
vn 0.869055 0.456907 0.189681

v 17.04868 -5.297006 -14.7412
vt 0.995049 0.995049
vn 0.920395 0.377384 0.102249

v 12.06432 5.296997 -6.49984
vt 0.765139 0.00495
vn 0.931011 0.344717 0.119952

v 10.06808 5.296997 8.994121
vt 0.332902 0.00495
vn 0.854886 0.472504 0.214268

v -17.04868 -5.296995 -14.7412
vt 0.995049 0.995049
vn -0.92238 0.373949 0.096834

v -10.26188 5.297003 8.994121
vt 0.332902 0.00495
vn -0.857357 0.468972 0.212143

v -12.138 5.297004 -6.49984
vt 0.765139 0.00495
vn -0.93207 0.344249 0.112861

v -10.26188 5.297003 8.994121
vt 0.332902 0.00495
vn -0.857357 0.468972 0.212143

v -17.04868 -5.296995 -14.7412
vt 0.995049 0.995049
vn -0.92238 0.373949 0.096834

v -14.38684 -5.296996 15.33032
vt 0.156141 0.995049
vn -0.871706 0.452253 0.188667

v 17.04868 -5.297006 -14.7412
vt 0.995049 0.995049
vn 0.920395 0.377384 0.102249

v 10.06808 5.296997 8.994121
vt 0.332902 0.00495
vn 0.854886 0.472504 0.214268

v 14.25496 -5.297005 15.33032
vt 0.156141 0.995049
vn 0.869055 0.456907 0.189681

# 24 vertice(s).

f 22/22/22 23/23/23 24/24/24
f 25/25/25 26/26/26 27/27/27
f 28/28/28 29/29/29 30/30/30
f 31/31/31 32/32/32 33/33/33
f 34/34/34 35/35/35 36/36/36
f 37/37/37 38/38/38 39/39/39
f 40/40/40 41/41/41 42/42/42
f 43/43/43 44/44/44 45/45/45
# 24 indices; 8 primitives.

# 1 primitive groups.

g gun_back
usemtl gun_back

v 0.197088 5.297 -12.50848
vt 0.494277 0.00495
vn 0.004017 0.663185 -0.748445

v 17.04868 -5.297006 -14.7412
vt 0.00495 0.995049
vn 0.303561 0.63296 -0.712189

v 0.197084 -5.297 -20.74988
vt 0.494277 0.995049
vn 0.002985 0.614011 -0.789292

v 17.04868 -5.297006 -14.7412
vt 0.00495 0.995049
vn 0.303561 0.63296 -0.712189

v 0.197088 5.297 -12.50848
vt 0.494277 0.00495
vn 0.004017 0.663185 -0.748445

v 12.06432 5.296997 -6.49984
vt 0.149684 0.00495
vn 0.334667 0.671647 -0.660975

v -17.04868 -5.296995 -14.7412
vt 0.995049 0.995049
vn -0.295824 0.632442 -0.715895

v 0.197088 5.297 -12.50848
vt 0.494277 0.00495
vn 0.004017 0.663185 -0.748445

v 0.197084 -5.297 -20.74988
vt 0.494277 0.995049
vn 0.002985 0.614011 -0.789292

v -17.04868 -5.296995 -14.7412
vt 0.995049 0.995049
vn -0.295824 0.632442 -0.715895

v -12.138 5.297004 -6.49984
vt 0.852456 0.00495
vn -0.325126 0.669931 -0.667446

v 0.197088 5.297 -12.50848
vt 0.494277 0.00495
vn 0.004017 0.663185 -0.748445

# 12 vertice(s).

f 46/46/46 47/47/47 48/48/48
f 49/49/49 50/50/50 51/51/51
f 52/52/52 53/53/53 54/54/54
f 55/55/55 56/56/56 57/57/57
# 12 indices; 4 primitives.

# 1 primitive groups.

g gun_front
usemtl gun_front

v -9.791841 -0.910445 20.74988
vt 0.999904 1.979007
vn 0 0.417373 0.908735

v 7.166441 3.008746 18.94984
vt 0.136037 0.988908
vn 0 0.417373 0.908735

v -7.350479 3.00875 18.94984
vt 0.875539 0.988908
vn 0 0.417373 0.908735

v -9.791841 -0.910445 20.74988
vt 0.999904 1.979007
vn 0 0.417373 0.908735

v 9.64448 -0.910451 20.74988
vt 0.009805 1.979007
vn 0 0.417373 0.908735

v 7.166441 3.008746 18.94984
vt 0.136037 0.988908
vn 0 0.417373 0.908735

# 6 vertice(s).

f 58/58/58 59/59/59 60/60/60
f 61/61/61 62/62/62 63/63/63
# 6 indices; 2 primitives.

# 1 primitive groups.

# 4 parts.

