mtllib dockpads.mtl

g Bst_workerdock
usemtl Bst_workerdock

v 119.2181 38.89039 -22.39201
vt 0.809364 0.508814
vn 0.3888939 0.8116165 0

v 65.9399 64.42004 80.56734
vt 0.00495 0.745197
vn 0.3888939 0.8116165 0

v 119.2181 38.89037 57.64957
vt 0.184005 0.508814
vn 0.3888939 0.8116165 0

v 65.9399 64.42004 80.56734
vt 0.00495 0.745197
vn 0.3888939 0.8116165 0

v 119.2181 38.89039 -22.39201
vt 0.809364 0.508814
vn 0.3888939 0.8116165 0

v 65.9399 64.42007 -46.15882
vt 0.995049 0.745197
vn 0.3888939 0.8116165 0

v -116.6056 43.01654 -22.40821
vt 0.809666 0.501238
vn -0.3635066 0.8233095 0

v -116.6056 43.01653 57.66542
vt 0.183713 0.501238
vn -0.3635066 0.8233095 0

v -63.09167 66.64281 80.5329
vt 0.004951 0.748762
vn -0.3635066 0.8233095 0

v -116.6056 43.01654 -22.40821
vt 0.809666 0.501238
vn -0.3635066 0.8233095 0

v -63.09167 66.64281 80.5329
vt 0.004951 0.748762
vn -0.3635066 0.8233095 0

v -63.09167 66.64283 -46.12246
vt 0.995049 0.748762
vn -0.3635066 0.8233095 0

# 12 vertice(s).

f 1/1/1 2/2/2 3/3/3
f 4/4/4 5/5/5 6/6/6
f 7/7/7 8/8/8 9/9/9
f 10/10/10 11/11/11 12/12/12
# 12 indices; 4 primitives.

# 1 primitive groups.

# 1 parts.

